<?xml version="1.0" standalone="no"?>
<!DOCTYPE svg PUBLIC "-//W3C//DTD SVG 1.1//EN" "http://www.w3.org/Graphics/SVG/1.1/DTD/svg11.dtd" >
<svg xmlns="http://www.w3.org/2000/svg">
<metadata></metadata>
<defs>
<font id="ashburylight" horiz-adv-x="533" >
<font-face units-per-em="1000" ascent="750" descent="-250" />
<missing-glyph horiz-adv-x="221" />
<glyph unicode="&#xfb01;" horiz-adv-x="613" d="M183 134q0 -70 15 -86q14 -15 53 -15q3 0 12 0.5t13 0.5q14 0 14 -18t-14 -18q-2 0 -21 1t-48 2.5t-55 1.5q-25 0 -46.5 -1t-34.5 -2.5t-16 -1.5q-14 0 -14 19q0 17 13 17q2 0 9 -0.5t10 -0.5q33 0 42 19q9 18 9 82v253q0 9 -3.5 12.5t-13.5 3.5q-17 0 -34 -1t-18 -1 q-12 0 -12 21q0 14 12 16q42 6 54 21q13 15 16 71q4 96 23 147t59 81q55 43 143 43q62 0 98.5 -29.5t36.5 -72.5q0 -47 -42 -47q-36 0 -41 38q-2 32 -13 49q-14 27 -57 27q-81 0 -114 -73q-35 -77 -35 -233q0 -9 3 -12t13 -3q124 0 207 4q37 2 63 16q12 7 19 7q14 0 14 -16 q0 -17 -1 -30q-3 -53 -3 -152v-140q0 -71 11 -85q12 -16 47 -16q4 0 9.5 0.5t6.5 0.5q15 0 15 -18t-16 -18q-2 0 -15.5 1t-37 2.5t-50.5 1.5t-49 -1t-34 -2.5t-14 -1.5q-14 0 -14 19q0 17 15 17q2 0 8.5 -0.5t9.5 -0.5q32 0 40 18q10 22 10 81v144q0 74 -12 98 q-14 27 -78 28q-58 1 -151 1q-10 0 -13 -3t-3 -12v-254z" />
<glyph unicode="&#xfb02;" horiz-adv-x="607" d="M183 134q0 -70 15 -86q14 -15 53 -15q3 0 12 0.5t13 0.5q14 0 14 -18t-14 -18q-2 0 -21 1t-48 2.5t-55 1.5q-25 0 -46.5 -1t-34.5 -2.5t-16 -1.5q-14 0 -14 19q0 17 13 17q2 0 9 -0.5t10 -0.5q33 0 42 19q9 18 9 82v253q0 9 -3.5 12.5t-13.5 3.5q-17 0 -34 -1t-18 -1 q-12 0 -12 21q0 14 13 16q40 6 53 21t16 71q4 98 20 149.5t53 82.5q23 20 60.5 30.5t71.5 10.5q48 0 93 -18q10 -4 12 -4q4 0 11 4q27 19 35 19q13 0 13 -13q0 -2 -1 -28.5t-2 -79t-1 -116.5v-432q0 -69 11 -85q12 -16 45 -16q4 0 11.5 0.5t9.5 0.5q12 0 12 -17 q0 -19 -12 -19q-3 0 -17 1t-38 2.5t-50 1.5t-50 -1t-37.5 -2.5t-15.5 -1.5q-12 0 -12 19q0 17 12 17q1 0 9 -0.5t13 -0.5q31 0 40 19q10 18 10 82v451q0 104 -19 134q-17 26 -38.5 37t-57.5 11t-66.5 -23.5t-42.5 -56.5q-24 -65 -24 -228q0 -9 3 -12t13 -3q34 0 61 1.5 t33 1.5t9.5 -1t6 -6.5t2.5 -15.5q0 -24 -19 -24q-2 0 -12.5 0.5t-31.5 1t-49 0.5q-10 0 -13 -3t-3 -12v-254z" />
<glyph unicode="&#xfb03;" horiz-adv-x="938" d="M183 134q0 -70 15 -86q14 -15 53 -15q3 0 12 0.5t13 0.5q14 0 14 -18t-14 -18q-2 0 -21 1t-48 2.5t-55 1.5q-25 0 -46.5 -1t-34.5 -2.5t-16 -1.5q-14 0 -14 19q0 17 13 17q2 0 9 -0.5t10 -0.5q33 0 42 19q9 18 9 82v253q0 9 -3.5 12.5t-13.5 3.5q-17 0 -34 -1t-18 -1 q-12 0 -12 21q0 14 13 16q42 7 53 20q14 15 16 68q4 93 19.5 136.5t53.5 77.5q44 40 120 40q49 0 82 -19.5t33 -57.5q0 -39 -37 -39t-38 32q0 17 -7 31q-9 19 -52 19q-31 0 -56 -22t-36 -55q-24 -70 -24 -211q0 -8 3 -11t13 -3q33 0 75.5 -0.5t49.5 -0.5q94 0 110 18 q14 15 16 69q4 95 23.5 146t59.5 82q55 43 142 43q62 0 98.5 -29.5t36.5 -72.5q0 -47 -41 -47q-39 0 -42 38q-2 32 -13 49q-16 27 -57 27q-81 0 -115 -73q-35 -77 -35 -233q0 -9 3.5 -12t13.5 -3q123 0 207 4q37 2 63 16q12 7 19 7q14 0 14 -16q0 -17 -1 -30q-3 -53 -3 -152 v-140q0 -71 11 -85q12 -16 47 -16q4 0 9.5 0.5t6.5 0.5q15 0 15 -18t-15 -18q-2 0 -16 1t-37.5 2.5t-50.5 1.5t-49 -1t-34 -2.5t-15 -1.5q-13 0 -13 19q0 17 14 17q2 0 8.5 -0.5t9.5 -0.5q32 0 40 18q11 20 11 81v144q0 72 -13 98q-13 27 -77 28q-59 1 -151 1 q-10 0 -13.5 -3t-3.5 -12v-254q0 -70 15 -86q14 -15 54 -15q4 0 13 0.5t12 0.5q14 0 14 -18t-14 -18q-2 0 -21 1t-48 2.5t-55 1.5q-25 0 -46.5 -1t-34.5 -2.5t-16 -1.5q-14 0 -14 19q0 17 13 17q2 0 9 -0.5t10 -0.5q33 0 42 19q9 18 9 82v253q0 16 -17 16q-54 2 -129 2 q-60 0 -104 -2q-10 -1 -13 -4t-3 -11v-254z" />
<glyph unicode="&#xfb04;" horiz-adv-x="932" d="M183 134q0 -70 15 -86q14 -15 53 -15q3 0 12 0.5t13 0.5q14 0 14 -18t-14 -18q-2 0 -21 1t-48 2.5t-55 1.5q-25 0 -46.5 -1t-34.5 -2.5t-16 -1.5q-14 0 -14 19q0 17 13 17q2 0 9 -0.5t10 -0.5q33 0 42 19q9 18 9 82v253q0 9 -3.5 12.5t-13.5 3.5q-17 0 -34 -1t-18 -1 q-12 0 -12 21q0 14 13 16q42 7 53 20q14 15 16 68q4 93 19.5 136.5t53.5 77.5q44 40 120 40q49 0 82 -19.5t33 -57.5q0 -39 -37 -39t-38 32q0 17 -7 31q-9 19 -52 19q-31 0 -56 -22t-36 -55q-24 -70 -24 -211q0 -8 3 -11t13 -3q33 0 75.5 -0.5t49.5 -0.5q94 0 110 20 q13 15 16 66q4 98 20 150t53 83q48 41 132 41q48 0 93 -18q10 -4 12 -4q5 0 10 4q30 19 36 19q13 0 13 -13q0 -2 -1 -28.5t-2 -79t-1 -116.5v-432q0 -71 11 -85q12 -16 45 -16q4 0 11.5 0.5t9.5 0.5q12 0 12 -17q0 -19 -12 -19q-3 0 -17.5 1t-38.5 2.5t-50 1.5t-49.5 -1 t-37 -2.5t-15.5 -1.5q-12 0 -12 19q0 17 12 17q2 0 10 -0.5t12 -0.5q30 0 40 19q10 18 10 82v451q0 105 -20 134q-16 26 -37.5 37t-57.5 11t-66.5 -23.5t-42.5 -56.5q-25 -73 -25 -228q0 -9 3.5 -12t13.5 -3q34 0 61 1.5t33 1.5q18 0 18 -23q0 -24 -19 -24q-2 0 -12.5 0.5 t-31.5 1t-49 0.5q-10 0 -13.5 -3t-3.5 -12v-254q0 -70 15 -86q14 -15 54 -15q4 0 13 0.5t12 0.5q14 0 14 -18t-14 -18q-2 0 -21 1t-48 2.5t-55 1.5q-25 0 -46.5 -1t-34.5 -2.5t-16 -1.5q-14 0 -14 19q0 17 13 17q2 0 9 -0.5t10 -0.5q33 0 42 19q9 18 9 82v253q0 16 -17 16 q-54 2 -129 2q-60 0 -104 -2q-10 -1 -13 -4t-3 -11v-254z" />
<glyph horiz-adv-x="0" />
<glyph horiz-adv-x="333" />
<glyph unicode=" "  horiz-adv-x="221" />
<glyph unicode="&#x09;" horiz-adv-x="221" />
<glyph unicode="&#xa0;" horiz-adv-x="221" />
<glyph unicode="!" horiz-adv-x="316" d="M199 221q0 -27 -20 -27q-13 0 -17 5t-5 21q-3 101 -12.5 239.5t-9.5 158.5q0 55 43 55q24 0 34.5 -12t10.5 -41q0 -20 -10.5 -159.5t-13.5 -239.5zM232 46q0 -24 -14.5 -39.5t-37.5 -15.5q-24 0 -38.5 14t-14.5 40q0 24 15 38.5t39 14.5q23 0 37 -14t14 -38z" />
<glyph unicode="&#x22;" horiz-adv-x="278" d="M109 656q0 -8 -3 -34.5t-8.5 -73.5t-8.5 -81q-1 -10 -4 -13t-11 -3t-11.5 3.5t-4.5 13.5q-4 37 -9.5 82t-9 72t-3.5 33q0 39 36 39q21 0 29 -9t8 -29zM242 656q0 -8 -3 -35t-8 -72.5t-8 -81.5q-1 -10 -4.5 -13t-11.5 -3q-15 0 -16 17q-3 37 -8.5 81.5t-9 72t-3.5 33.5 q0 39 35 39q22 0 29.5 -8.5t7.5 -29.5z" />
<glyph unicode="#" horiz-adv-x="546" d="M144 6q-3 -13 -22 -13q-15 0 -15 10q0 4 3 16l36 151q1 4 1 8q0 9 -11 9h-67q-13 0 -13 11q0 19 6 36q5 13 17 13h75q11 0 14 10l26 107q2 6 2 12q0 9 -11 9h-79q-13 0 -13 9q0 12 6 36q3 14 17 14h87q11 0 14 10l37 154q3 15 23 15q16 0 16 -10q0 -3 -2 -11l-35 -140 q-1 -3 -1 -8q0 -10 11 -10h86q11 0 14 10l37 154q3 15 20 15q18 0 18 -10q0 -6 -2 -12l-34 -139q-1 -3 -1 -8q0 -10 11 -10h61q14 0 14 -11q0 -16 -5 -35q-5 -13 -16 -13h-73q-11 0 -14 -10l-26 -107q-2 -6 -2 -12q0 -9 11 -9h74q14 0 14 -10q0 -13 -5 -35q-6 -15 -16 -15 h-84q-11 0 -14 -10l-43 -171q-1 -5 -2.5 -7.5t-6 -4t-12.5 -1.5q-16 0 -16 10q0 6 3 17l36 146q2 8 2 12q0 9 -11 9h-85q-11 0 -14 -10zM207 269q-2 -6 -2 -13q0 -9 11 -9h87q11 0 14 10l26 110q1 4 1 8q0 10 -11 10h-85q-11 0 -14 -10z" />
<glyph unicode="$" horiz-adv-x="497" d="M275 -81q0 -10 -4 -14t-15 -4q-13 0 -16.5 4t-3.5 14v63q0 15 -10 15q-81 0 -126 33t-45 77q0 18 10.5 29t27.5 11q33 0 38 -38q2 -26 16 -43q28 -30 76 -31q13 0 13 15v217q0 17 -11 23q-81 42 -113 84t-32 95q0 58 39 99.5t109 51.5q8 1 8 11v71q0 20 20 20 q11 0 15 -4.5t4 -15.5v-68q0 -12 12 -12q69 -1 108 -28.5t39 -69.5q0 -43 -36 -43q-17 0 -28.5 10.5t-11.5 29.5q0 9 -5 23.5t-13 21.5q-22 20 -55 20q-10 0 -10 -13v-207q0 -16 9 -20q88 -46 121.5 -87t33.5 -93q0 -64 -40.5 -107.5t-111.5 -56.5q-12 -2 -12 -17v-66z M275 252v-202q0 -11 8 -11q6 0 16 4q72 30 72 104q0 63 -79 111q-6 3 -10 3q-7 0 -7 -9zM236 383v185q0 12 -11 12q-22 0 -52 -24t-30 -71q0 -31 16.5 -56.5t60.5 -51.5q4 -3 10 -3t6 9z" />
<glyph unicode="%" horiz-adv-x="780" d="M316 443q0 -92 -38.5 -148t-109.5 -56t-107 51.5t-36 140.5t41 146t110 57q66 0 103 -51t37 -140zM263 435q0 170 -91 170q-44 0 -69.5 -44t-25.5 -126q0 -166 93 -166q44 0 68.5 43t24.5 123zM278 12q-6 -14 -22 -14q-17 0 -17 11q0 5 5 17l252 577q6 16 22 16 q18 0 18 -12q0 -7 -3 -14zM755 197q0 -92 -38.5 -148t-109.5 -56t-107 51.5t-36 140.5t41.5 146t110.5 57q66 0 102.5 -51t36.5 -140zM702 189q0 170 -90 170q-44 0 -70 -44t-26 -126q0 -167 94 -167q44 0 68 43.5t24 123.5z" />
<glyph unicode="&#x26;" horiz-adv-x="733" d="M264 -13q-96 0 -158 52.5t-62 146.5q0 131 172 196q9 4 9 11q0 2 -5 12q-34 64 -34 115q0 66 42 106t119 40q71 0 103.5 -36.5t32.5 -76.5q0 -84 -79 -132q-27 -17 -83 -40q-7 -3 -7 -11q0 -7 9 -16q69 -112 150 -208q10 -10 13 -10t10 7q36 45 52 88q12 34 12 55 q0 19 -16 29q-23 17 -23 36q0 14 11.5 26t33.5 12t36 -16.5t14 -38.5q0 -50 -24 -105q-19 -45 -69 -110q-6 -8 -6 -14q0 -4 5 -11q48 -52 97 -52q36 0 58 47q5 9 14 9q19 0 19 -15q0 -4 -8 -20q-42 -75 -102 -75q-35 0 -62 11t-66 50q-6 6 -10 6t-7 -3q-76 -65 -191 -65z M236 349q-8 0 -31 -13q-37 -19 -63.5 -57t-26.5 -87q0 -66 43 -113t127 -47q38 0 78 13t64 35q4 4 4 7q0 5 -3 9q-24 28 -51 64t-42.5 59t-42.5 63.5l-33 49.5q-12 17 -23 17zM301 415q15 0 41 13q90 48 90 120q0 40 -24 60.5t-62 20.5q-41 0 -66.5 -23.5t-25.5 -69.5 q0 -54 28 -107q8 -14 19 -14z" />
<glyph unicode="'" horiz-adv-x="145" d="M109 656q0 -8 -3 -34.5t-8.5 -73.5t-8.5 -81q-1 -10 -4.5 -13t-11.5 -3t-11 3.5t-4 13.5q-3 38 -9 82t-9.5 71.5t-3.5 33.5q0 39 36 39q21 0 29 -9t8 -29z" />
<glyph unicode="(" horiz-adv-x="313" d="M114 306q0 -129 47 -243t128 -184q4 -4 4 -11t-6 -13t-13 -6t-17 8q-95 72 -153.5 193t-58.5 256q0 131 57 251.5t157 197.5q9 7 16 7t12.5 -5.5t5.5 -12.5q0 -8 -6 -14q-173 -157 -173 -424z" />
<glyph unicode=")" horiz-adv-x="313" d="M199 305q0 128 -47 242.5t-128 184.5q-4 4 -4 11q0 6 6 12.5t13 6.5t17 -8q95 -72 153.5 -193t58.5 -256q0 -131 -57 -251.5t-157 -197.5q-9 -7 -16 -7t-12.5 5.5t-5.5 12.5q0 9 6 14q91 88 132 185.5t41 238.5z" />
<glyph unicode="*" horiz-adv-x="349" d="M208 406q0 -13 -8.5 -21t-22.5 -8q-33 0 -33 28q0 9 14 58q8 32 8 41q0 7 -4 7q-3 0 -6 -3q-13 -11 -50 -53q-17 -19 -30 -19q-15 0 -24 11t-9 25q0 22 23 28q73 19 82 22q5 1 5 6q0 4 -6 6q-29 12 -73 21q-33 7 -33 30q0 13 9 25t25 12q3 0 6 -0.5t6 -2.5t5.5 -3.5t6 -6 t6 -7.5t8 -9.5t9.5 -10.5q11 -13 33 -30q5 -3 7 -3q4 0 4 6q0 12 -11 48q-11 46 -11 48q0 12 8.5 19.5t23.5 7.5q32 0 32 -27q0 -9 -12 -48q-10 -37 -11 -42q-1 -4 -1 -8q0 -6 4 -6q3 0 9 6q11 9 51 53q14 16 28 16q15 0 23.5 -10t8.5 -25q0 -20 -21 -27q-8 -3 -36 -10.5 t-47 -14.5q-6 -3 -6 -6t8 -6q18 -7 42 -13q35 -7 47 -14q11 -6 11 -19q0 -17 -8.5 -27.5t-22.5 -10.5q-16 0 -48 37q-23 25 -33 32q-3 3 -6 3q-4 0 -4 -7q0 -5 11 -45q13 -46 13 -53z" />
<glyph unicode="+" horiz-adv-x="642" d="M350 32q0 -13 -12 -13h-32q-14 0 -14 13v209h-197q-12 0 -12 13v31q0 13 12 13h196v209q0 13 14 13h33q12 0 12 -13v-209h196q14 0 14 -13v-31q0 -13 -14 -13h-196v-209z" />
<glyph unicode="," horiz-adv-x="218" d="M182 -1q0 -99 -108 -187q-16 -14 -26 -14q-5 0 -10.5 5.5t-5.5 12.5q0 9 10 16q82 61 82 123q0 41 -46 60q-21 10 -21 36q0 18 13.5 32.5t37.5 14.5q35 0 54.5 -31t19.5 -68z" />
<glyph unicode="-" horiz-adv-x="277" d="M230 211h-184q-12 0 -14.5 5.5t-2.5 25.5q0 18 3.5 24.5t13.5 6.5h186q11 0 13.5 -6t2.5 -24q0 -20 -3 -26t-15 -6z" />
<glyph unicode="." horiz-adv-x="218" d="M161 46q0 -24 -14.5 -39.5t-37.5 -15.5q-24 0 -38 14t-14 40q0 24 15 38.5t38 14.5t37 -14t14 -38z" />
<glyph unicode="/" horiz-adv-x="427" d="M55 -57q-9 -17 -29 -17q-21 0 -21 15q0 6 7 20l356 746q10 20 28 20q23 0 23 -15q0 -9 -4 -17z" />
<glyph unicode="0" d="M495 322q0 -152 -59.5 -243.5t-172.5 -91.5q-111 0 -168 84.5t-57 229.5q0 146 65 240t173 94q105 0 162 -83.5t57 -229.5zM418 308q0 287 -148 287q-72 0 -115 -74.5t-43 -211.5q0 -281 155 -281q72 0 111.5 73t39.5 207z" />
<glyph unicode="1" d="M301 133q0 -67 13 -82q13 -16 49 -16q3 0 12 0.5t10 0.5q12 0 12 -19q0 -18 -13 -18q-2 0 -17.5 1.5t-41 3t-51.5 1.5q-25 0 -53 -1.5t-46.5 -3t-21.5 -1.5q-12 0 -12 19q0 18 12 18q2 0 10.5 -0.5t11.5 -0.5q41 0 51 18q9 19 9 78v309q0 82 -9 97q-6 11 -26 11 q-12 0 -27.5 -1.5t-16.5 -1.5q-13 0 -13 19q0 14 11 16q58 14 118 54q10 6 20 6q13 0 13 -15q0 -12 -1 -28q-3 -51 -3 -150v-314z" />
<glyph unicode="2" d="M242 3q-58 0 -104 -1t-70.5 -2t-29.5 -1q-20 0 -20 17q0 12 18 23q178 120 252 215t74 198q0 58 -35 95t-91 37q-67 0 -99 -34q-25 -28 -32 -59q-3 -16 -22 -16q-20 0 -20 19q0 12 7 29q16 40 64.5 76t124.5 36q86 0 132.5 -48.5t46.5 -133.5q0 -70 -31.5 -133 t-119.5 -141q-51 -46 -129 -100q-8 -6 -8 -9q0 -7 12 -7q46 -2 124 -2q86 0 112.5 13t31.5 56q2 14 17 14q17 0 17 -12l-2 -22q-7 -60 -7 -99q0 -13 -20 -13q-1 0 -27 1t-71.5 2.5t-94.5 1.5z" />
<glyph unicode="3" d="M136 -25q-31 0 -47.5 10.5t-16.5 28.5q0 14 8.5 23t21.5 9q10 0 32 -11q19 -8 47 -8q91 0 143.5 42.5t52.5 119.5q0 61 -37 98.5t-98 37.5q-40 0 -67 -10q-18 -6 -24 -6q-7 0 -11.5 8t-4.5 15q0 10 6 15t24 6q38 3 78 23q94 44 94 124q0 42 -25 66t-70 24q-57 0 -87 -32 q-17 -21 -22 -38q-4 -14 -23 -14q-20 0 -20 18q0 12 11 29q54 82 168 82q67 0 103 -33.5t36 -85.5q0 -94 -112 -145q-8 -3 -8 -8q0 -6 8 -6q73 -6 114 -46.5t41 -103.5q0 -102 -93 -167t-222 -65z" />
<glyph unicode="4" d="M403 -1q0 -15 -6 -20t-26 -5q-23 0 -28.5 4t-5.5 21v145q0 12 -4 16t-15 4h-257q-29 0 -29 20q0 14 10 28q255 341 306 411q12 18 31 18q24 0 24 -20q0 -4 -0.5 -35.5t-0.5 -64.5v-283q0 -8 2.5 -11t13.5 -3h61q12 0 16.5 -5.5t4.5 -22.5q0 -21 -4 -26t-18 -5h-62 q-8 0 -10.5 -3.5t-2.5 -15.5v-147zM337 238q0 97 1 186.5t1 92.5q0 13 -6 13q-3 0 -10 -10q-28 -38 -99 -133.5t-108 -146.5q-4 -6 -4 -11q0 -8 13 -8h191q14 0 17.5 3.5t3.5 13.5z" />
<glyph unicode="5" d="M449 216q0 -100 -92 -170.5t-225 -70.5q-30 0 -46 11t-16 29q0 13 8.5 23t21.5 10q6 0 17.5 -6t16.5 -7q23 -7 47 -7q90 0 143 45t53 122q0 36 -12.5 63.5t-32.5 44t-50 28t-59.5 16.5t-67.5 8q-30 2 -30 29q0 3 38 220q3 19 16 19l31 -1h57q30 0 57.5 0.5t46 1t32 1 t21 1t8.5 0.5q10 0 10 -7q0 -17 -8 -46q-5 -14 -13 -14q-2 0 -28 0.5t-61.5 0.5h-61.5q-43 0 -66 -1q-14 -1 -17 -19q-19 -96 -19 -111q0 -11 16 -14q141 -14 203 -61t62 -138z" />
<glyph unicode="6" d="M487 215q0 -110 -59.5 -169t-152.5 -59q-101 0 -157 75t-56 215q0 72 15.5 135.5t48 117.5t90 85.5t133.5 31.5q63 0 96 -24q18 -14 18 -35q0 -18 -9.5 -27t-22.5 -9q-24 0 -34 18q-20 37 -64 37q-159 0 -199 -238q-5 -30 -5 -44q0 -5 6 -5q3 0 8 8q22 36 64.5 58 t93.5 22q83 0 134.5 -52t51.5 -141zM416 199q0 77 -35.5 121t-99.5 44q-43 0 -78.5 -22t-54.5 -62q-12 -25 -12 -69q0 -73 38 -128.5t105 -55.5q63 0 100 46t37 126z" />
<glyph unicode="7" d="M308 619q25 0 97 1t78 1q13 0 13 -12q0 -5 -9 -25q-166 -342 -255 -587q-9 -24 -32 -24q-26 0 -26 25q0 12 9 36q109 271 242 508q3 4 3 11q0 5 -17 6q-48 3 -105 3q-142 0 -162 -11q-24 -13 -43 -85q-4 -13 -17 -13q-19 0 -19 17q0 3 3.5 21t9.5 50t10 63q3 19 28 19 q3 0 26.5 -1t68 -2t97.5 -1z" />
<glyph unicode="8" d="M470 164q0 -76 -56 -126.5t-151 -50.5q-93 0 -146.5 46.5t-53.5 120.5q0 51 31 93.5t94 66.5q11 3 11 9q0 4 -8 9q-101 50 -101 145q0 69 52 113.5t139 44.5q75 0 121.5 -39t46.5 -104q0 -44 -29 -84.5t-79 -62.5q-8 -3 -8 -9q0 -5 8 -8q129 -58 129 -164zM240 300 q-8 0 -14 -3q-96 -48 -96 -137q0 -60 37 -96.5t100 -36.5q55 0 92 34t37 83q0 51 -30.5 85t-112.5 68q-6 3 -13 3zM287 356q3 0 11 3q38 18 61 51.5t23 71.5q0 53 -28 83.5t-78 30.5q-52 0 -83.5 -29.5t-31.5 -74.5q0 -42 24 -73t87 -59q9 -4 15 -4z" />
<glyph unicode="9" d="M46 419q0 109 63 168.5t155 59.5q101 0 154 -73t53 -214q0 -74 -15 -137.5t-46.5 -118t-88 -86t-133.5 -31.5q-79 0 -109 26q-18 14 -18 35q0 14 9.5 24t24.5 10q25 0 35 -19q19 -36 73 -36q159 0 195 240q5 30 5 44q0 5 -6 5q-3 0 -8 -8q-21 -36 -63.5 -57.5 t-93.5 -21.5q-83 0 -134.5 50.5t-51.5 139.5zM118 434q0 -77 35 -119.5t99 -42.5q43 0 78.5 22.5t54.5 61.5q12 25 12 70q0 73 -35.5 127t-102.5 54q-61 0 -101 -47t-40 -126z" />
<glyph unicode=":" horiz-adv-x="241" d="M181 46q0 -24 -14 -39.5t-37 -15.5q-24 0 -38 14t-14 40q0 24 15 38.5t38 14.5t36.5 -14t13.5 -38zM181 393q0 -23 -14 -38.5t-37 -15.5q-24 0 -38 14t-14 39q0 24 15 38.5t38 14.5t36.5 -13.5t13.5 -38.5z" />
<glyph unicode=";" horiz-adv-x="241" d="M181 393q0 -23 -14 -38.5t-37 -15.5q-24 0 -38 14t-14 39q0 24 15 38.5t38 14.5t36.5 -13.5t13.5 -38.5zM199 -1q0 -98 -108 -187q-17 -14 -26 -14q-6 0 -11 5.5t-5 12.5q0 9 9 16q82 61 82 123q0 39 -46 60q-21 11 -21 36q0 17 14 32t37 15q35 0 55 -31t20 -68z" />
<glyph unicode="&#x3c;" horiz-adv-x="642" d="M515 47q0 -12 -9 -12q-3 0 -7 2l-387 190q-9 4 -9 14v40q0 11 9 15l387 193q2 2 7 2q9 0 9 -12v-37q0 -9 -10 -15l-337 -165l337 -163q10 -4 10 -14v-38z" />
<glyph unicode="=" horiz-adv-x="642" d="M559 365v-31q0 -14 -14 -14h-449q-12 0 -12 14v31q0 13 12 13h449q14 0 14 -13zM559 200v-33q0 -13 -14 -13h-449q-12 0 -12 13v33q0 12 12 12h449q14 0 14 -12z" />
<glyph unicode="&#x3e;" horiz-adv-x="642" d="M128 480q0 11 8 11q4 0 7 -2l387 -189q9 -6 9 -15v-41q0 -9 -9 -15l-387 -192q-3 -2 -7 -2q-8 0 -8 12v37q0 11 9 14l338 166l-338 161q-9 5 -9 16v39z" />
<glyph unicode="?" horiz-adv-x="439" d="M212 266q0 -12 5 -30t5 -26q0 -17 -21 -17q-15 0 -20 17q-11 33 -11 69q0 39 17.5 62.5t72.5 65.5q40 30 55.5 58t15.5 66q0 48 -27 75t-74 27q-95 0 -95 -71q0 -3 0.5 -13.5t0.5 -13.5q0 -17 -11.5 -26.5t-28.5 -9.5q-37 0 -37 48q0 47 48.5 86.5t132.5 39.5 q77 0 122.5 -37t45.5 -100q0 -54 -23 -90.5t-91 -79.5q-30 -19 -43 -28.5t-26 -29t-13 -42.5zM264 46q0 -24 -14 -39.5t-37 -15.5q-24 0 -38.5 14t-14.5 40q0 24 15 38.5t38 14.5t37 -14t14 -38z" />
<glyph unicode="@" horiz-adv-x="830" d="M418 -135q-155 0 -254 93t-99 245q0 176 113.5 292.5t282.5 116.5q137 0 217.5 -71.5t80.5 -206.5q0 -109 -65.5 -196.5t-149.5 -87.5q-51 0 -51 51q0 27 13 73q5 13 5 19q0 5 -6 5q-3 0 -8 -6q-87 -143 -184 -143q-43 0 -68.5 26.5t-25.5 65.5q0 96 67 188 q75 103 193 103q20 0 42.5 -7t29.5 -7t11 2.5t6 5t5 9.5q0 1 1.5 4l2 4t2 3.5t2.5 3.5t3 2.5t4.5 2t5.5 0.5q19 0 19 -14q0 -6 -4 -20q-27 -96 -45 -179q-18 -79 -18 -121q2 -26 24 -26q52 0 95 72t43 159q0 121 -65 185t-181 64q-144 0 -241 -106.5t-97 -261.5 q0 -135 85 -218.5t220 -83.5q145 0 223 75q16 14 27 14q20 0 20 -18q0 -10 -8 -19q-36 -43 -109 -67.5t-164 -24.5zM531 360q-1 35 -67 35q-74 0 -126 -74q-26 -37 -40.5 -83.5t-14.5 -81.5q0 -60 46 -60q45 0 91.5 45.5t80.5 107.5q30 54 30 111z" />
<glyph unicode="A" horiz-adv-x="707" d="M175 138q-24 -61 -24 -79q0 -25 58 -25q5 0 13 0.5t10 0.5q13 0 13 -17q0 -20 -15 -20q-1 0 -50.5 2t-73.5 2t-55.5 -2t-33.5 -2q-12 0 -12 17q0 20 14 20q2 0 8 -0.5t10 -0.5q28 0 42 20q20 28 43 83q36 89 105 253.5t84 200.5q10 28 12 48q1 15 15 20q30 13 35 13 q9 0 12 -13q1 -3 21 -58q31 -86 181 -463q25 -64 41 -85q15 -19 44 -19q3 0 8.5 0.5t7.5 0.5q15 0 15 -18q0 -19 -14 -19q-2 0 -40 2t-63 2q-24 0 -79 -2t-56 -2q-15 0 -15 18q0 19 14 19q1 0 8.5 -0.5t9.5 -0.5q35 0 49 7t14 24q0 20 -21 74l-34 88q-8 19 -14.5 25t-20.5 6 h-200q-12 0 -17 -5t-11 -19zM250 333q-7 -16 -7 -22q0 -9 6.5 -11.5t27.5 -2.5h137q29 0 29 14q0 8 -6 22l-83 214q-4 10 -8 10t-10 -13z" />
<glyph unicode="B" horiz-adv-x="611" d="M196 387q0 -19 16 -22q6 -1 25 -1q208 0 208 141q0 118 -170 118q-46 0 -61 -2q-18 -2 -18 -25v-209zM196 303v-155q0 -58 8 -77q13 -30 120 -30q80 0 117.5 29.5t37.5 96.5q0 49 -17.5 82t-50.5 49t-68 22t-83 6q-32 0 -47 -2q-17 -2 -17 -21zM170 2q-27 0 -54.5 -1 t-45.5 -2t-21 -1q-15 0 -15 18q0 19 13 19q1 0 8.5 -0.5t10.5 -0.5q41 0 52 20q10 18 10 88v377q0 73 -10 88q-12 20 -49 20q-3 0 -11.5 -1t-9.5 -1q-14 0 -14 20q0 18 16 18q3 0 19.5 -1.5t43 -3t53.5 -1.5q13 0 60 2t68 2q120 0 173.5 -39t53.5 -113q0 -54 -30 -89 t-95 -59q-8 -3 -8 -7q0 -5 8 -6q77 -12 119 -56.5t42 -108.5q0 -185 -259 -185q-15 0 -60.5 2t-67.5 2z" />
<glyph unicode="C" horiz-adv-x="688" d="M396 -12q-168 0 -257 93.5t-89 240.5q0 156 95 253t265 97q33 0 64 -3t45.5 -6t40 -9.5t30.5 -7.5q26 -5 26 -24q1 -27 7 -74t6 -53q0 -17 -20 -17q-17 0 -20 12q-12 64 -37 93q-42 48 -163 48q-114 0 -189 -78t-75 -220q0 -139 76 -221.5t201 -82.5q101 0 154 55 q25 25 48 83q5 14 20 14q17 0 17 -14t-9.5 -52t-19.5 -56q-11 -20 -35 -32q-78 -39 -181 -39z" />
<glyph unicode="D" horiz-adv-x="748" d="M128 139v374q0 77 -9 92q-13 22 -49 22q-3 0 -12 -0.5t-11 -0.5q-13 0 -13 18q0 19 14 19q3 0 21.5 -1.5t46.5 -2.5t55 -1q20 0 59.5 1.5t57.5 1.5q166 0 254 -40q76 -35 116 -107.5t40 -168.5q0 -176 -103.5 -261.5t-280.5 -85.5q-33 0 -81.5 2t-61.5 2q-27 0 -54 -1 t-44.5 -2t-20.5 -1q-18 0 -18 18q0 19 13 19q1 0 7 -0.5t9 -0.5q44 0 55 20q10 22 10 85zM196 141q0 -61 18 -78q24 -19 131 -19q124 0 200.5 70.5t76.5 211.5q0 70 -22 130.5t-63 97.5q-42 38 -106 51.5t-161 13.5q-55 0 -65 -11q-9 -9 -9 -50v-417z" />
<glyph unicode="E" horiz-adv-x="578" d="M486 -2q-44 0 -129.5 1.5t-153.5 1.5q-27 0 -63 -0.5t-62.5 -1.5t-29.5 -1q-14 0 -14 18q0 19 13 19q2 0 10.5 -0.5t11.5 -0.5q37 0 49 20q10 18 10 85v383q0 70 -10 86q-12 19 -51 19q-3 0 -11 -0.5t-9 -0.5q-13 0 -13 17q0 20 15 20q3 0 27 -1.5t57.5 -2.5t60.5 -1 q83 0 169.5 1.5t110.5 1.5q16 0 16 -19q0 -17 1 -45.5t1.5 -47.5t0.5 -22q0 -15 -17 -15t-19 14q-3 53 -24 74q-12 13 -35.5 16.5t-71.5 3.5q-15 0 -57.5 -1t-54.5 -1q-18 0 -18 -26v-205q0 -15 8.5 -19t30.5 -4q74 0 99 9q29 10 35 70q2 15 19 15t17 -15l-3 -39 q-3 -38 -3 -64q0 -20 1.5 -52t1.5 -40q0 -14 -17 -14q-16 0 -18 14q-4 53 -29 69q-15 9 -108 9q-20 0 -27 -5t-7 -19v-182q0 -40 8 -51q12 -17 45 -22.5t98 -5.5q84 0 108 18q28 20 53 86q6 13 18 13q19 0 19 -13q0 -9 -10.5 -53.5t-17.5 -67.5q-9 -26 -31 -26z" />
<glyph unicode="F" horiz-adv-x="545" d="M196 143q0 -74 16 -92q15 -17 63 -17q2 0 9 0.5t8 0.5q15 0 15 -18q0 -19 -15 -19q-3 0 -22 1.5t-48 3t-56 1.5t-54.5 -1.5t-45 -3t-19.5 -1.5q-13 0 -13 19q0 18 13 18q1 0 7.5 -0.5t9.5 -0.5q44 0 54 20q10 18 10 90v378q0 70 -10 86q-12 19 -51 19q-3 0 -11 -0.5 t-9 -0.5q-13 0 -13 17q0 20 15 20q3 0 27 -1.5t57.5 -2.5t60.5 -1q83 0 173.5 1.5t114.5 1.5q16 0 16 -19q0 -17 1 -45.5t1.5 -47.5t0.5 -22q0 -15 -17 -15t-19 13q-3 55 -24 77q-12 13 -35 16t-72 3q-15 0 -61.5 -1t-58.5 -1q-18 0 -18 -26v-216q0 -15 9 -19t31 -4 q82 0 111 9q30 12 36 70q2 15 19 15t17 -15l-3 -39q-3 -38 -3 -64q0 -20 1.5 -52t1.5 -40q0 -14 -17 -14q-16 0 -18 14q-5 54 -30 69q-14 9 -121 9q-20 0 -27 -5t-7 -19v-149z" />
<glyph unicode="G" horiz-adv-x="745" d="M562 138q0 66 -12 83q-13 20 -50 20q-4 0 -11.5 -0.5t-9.5 -0.5q-15 0 -15 19t15 19q3 0 20.5 -1t45.5 -2.5t54 -1.5q24 0 45 1.5t33 2.5t14 1q19 0 19 -18q0 -20 -14 -20q-2 0 -11 0.5t-15 0.5q-22 0 -31 -17q-10 -22 -10 -84q0 -41 2 -60q1 -10 6 -21t5 -16 q0 -14 -13 -16q-44 -7 -53 -10q-98 -29 -174 -29q-169 0 -260.5 91t-91.5 239q0 162 97 258t264 96q43 0 76.5 -3t49.5 -6.5t37 -9.5t29 -8q22 -4 23 -23q1 -28 8.5 -75.5t7.5 -52.5q0 -16 -20 -16q-15 0 -19 15q-10 52 -39 89q-38 49 -154 49q-135 0 -210.5 -79t-75.5 -219 q0 -143 78.5 -223t206.5 -80q106 0 140 38q13 16 13 70z" />
<glyph unicode="H" horiz-adv-x="782" d="M196 145q0 -77 14 -94t55 -17q2 0 9 0.5t8 0.5q14 0 14 -17q0 -20 -14 -20q-3 0 -20 1.5t-43.5 3t-53.5 1.5t-54 -1.5t-44 -3t-19 -1.5q-14 0 -14 19q0 18 13 18q1 0 7.5 -0.5t9.5 -0.5q44 0 54 20q10 18 10 90v375q0 72 -10 88q-11 20 -51 20q-3 0 -11 -0.5t-9 -0.5 q-13 0 -13 17q0 20 15 20q3 0 20.5 -1.5t44.5 -3t54 -1.5t53 1.5t41.5 3t18.5 1.5q15 0 15 -18q0 -19 -14 -19q-2 0 -8 0.5t-8 0.5q-42 0 -56 -18q-14 -16 -14 -92v-125q0 -17 11 -21.5t50 -4.5h272q31 0 40.5 3.5t9.5 20.5v129q0 72 -10 88q-11 20 -50 20q-3 0 -11 -0.5 t-10 -0.5q-13 0 -13 17q0 20 16 20q3 0 20.5 -1.5t44.5 -3t54 -1.5t52.5 1.5t41.5 3t19 1.5q15 0 15 -18q0 -19 -14 -19q-2 0 -8 0.5t-8 0.5q-42 0 -57 -18q-13 -16 -13 -92v-372q0 -78 13 -94q14 -17 56 -17q2 0 9 0.5t8 0.5q14 0 14 -18q0 -19 -14 -19q-3 0 -20 1.5t-44 3 t-53 1.5q-27 0 -54.5 -1.5t-44.5 -3t-19 -1.5q-14 0 -14 19q0 18 13 18q2 0 8.5 -0.5t9.5 -0.5q44 0 53 20q10 18 10 90v160q0 14 -9.5 17t-42.5 3h-269q-43 0 -52.5 -3.5t-9.5 -18.5v-157z" />
<glyph unicode="I" horiz-adv-x="326" d="M197 143q0 -75 14 -92t49 -17q2 0 9 0.5t8 0.5q15 0 15 -18q0 -19 -15 -19q-3 0 -18.5 1.5t-40.5 3t-52 1.5t-54.5 -1.5t-45 -3t-19.5 -1.5q-13 0 -13 20q0 17 13 17q1 0 7.5 -0.5t9.5 -0.5q45 0 54 20q10 18 10 90v373q0 74 -10 90q-11 20 -51 20q-3 0 -11 -0.5t-9 -0.5 q-13 0 -13 17q0 20 15 20q3 0 21.5 -1.5t46.5 -3t55 -1.5t50.5 1.5t37 3t16.5 1.5q16 0 16 -18q0 -19 -15 -19q-1 0 -8 0.5t-8 0.5q-35 0 -50 -18q-14 -16 -14 -94v-372z" />
<glyph unicode="J" horiz-adv-x="350" d="M229 129q0 -69 -18.5 -121.5t-48.5 -81t-63.5 -42.5t-67.5 -14q-69 0 -69 46q0 16 9 25.5t23 9.5t31 -14q13 -12 34 -12q28 0 54.5 17t34.5 56q8 35 8 97v424q0 68 -11 88t-52 20q-3 0 -12 -0.5t-11 -0.5q-13 0 -13 18q0 19 16 19q3 0 21.5 -1.5t46.5 -3t55 -1.5 t50.5 1.5t37 3t17.5 1.5q16 0 16 -17q0 -20 -14 -20q-1 0 -8 0.5t-8 0.5q-33 0 -47 -17q-14 -16 -14 -91q0 -32 1.5 -169t1.5 -221z" />
<glyph unicode="K" horiz-adv-x="678" d="M196 145q0 -77 14 -94t55 -17q2 0 9 0.5t8 0.5q14 0 14 -18q0 -19 -14 -19q-3 0 -20 1.5t-43.5 3t-53.5 1.5t-54.5 -1.5t-44.5 -3t-19 -1.5q-13 0 -13 20q0 17 13 17q1 0 7.5 -0.5t9.5 -0.5q44 0 54 20q10 18 10 90v375q0 72 -10 88q-11 20 -51 20q-3 0 -11 -0.5t-9 -0.5 q-13 0 -13 17q0 20 15 20q3 0 20.5 -1.5t44.5 -3t54 -1.5t52.5 1.5t40.5 3t18 1.5q16 0 16 -18q0 -19 -15 -19q-2 0 -8 0.5t-8 0.5q-40 0 -54 -18q-14 -16 -14 -92v-372zM591 51q23 -17 47 -17q4 0 11 1.5t8 1.5q17 0 17 -18q0 -17 -15 -19q-21 -3 -46 -3q-54 0 -95 24 q-53 32 -118 106q-23 26 -45 52.5t-45.5 55t-35.5 42.5q-31 37 -44 47q-10 7 -10 17q0 14 13 17q29 7 50 24q47 43 138 151q47 54 47 78q0 16 -33 16q-2 0 -10 -0.5t-9 -0.5q-15 0 -15 17q0 20 15 20q3 0 22.5 -1.5t47 -3t50.5 -1.5q24 0 56.5 3t35.5 3q15 0 15 -19 q0 -18 -18 -18q-2 0 -10 0.5t-11 0.5q-22 -2 -47 -18q-28 -18 -85 -83q-21 -24 -77.5 -86.5t-68.5 -76.5q-13 -13 -13 -21t18 -28q161 -195 260 -263z" />
<glyph unicode="L" horiz-adv-x="566" d="M196 122q0 -39 9 -53q17 -28 141 -28q84 0 108 18q28 20 54 88q5 13 19 13q19 0 19 -12q0 -10 -10.5 -55.5t-17.5 -68.5q-9 -26 -31 -26q-44 0 -130 2t-154 2q-27 0 -63 -1t-62.5 -2t-29.5 -1q-14 0 -14 18q0 19 13 19q2 0 10.5 -0.5t11.5 -0.5q37 0 49 20q10 18 10 85 v379q0 72 -9 89q-12 20 -52 20q-3 0 -11 -0.5t-9 -0.5q-13 0 -13 18q0 19 15 19q3 0 21.5 -1.5t46.5 -3t55 -1.5t51 1.5t37.5 3t16.5 1.5q16 0 16 -17q0 -20 -15 -20q-2 0 -9 0.5t-8 0.5q-38 0 -52 -17q-13 -14 -13 -96v-392z" />
<glyph unicode="M" horiz-adv-x="920" d="M168 140q0 -75 11 -89q14 -17 51 -17q2 0 9.5 0.5t8.5 0.5q15 0 15 -18q0 -19 -15 -19q-2 0 -19 1.5t-45 3t-55 1.5q-23 0 -44.5 -1.5t-34.5 -3t-16 -1.5q-15 0 -15 19q0 18 13 18q2 0 8 -0.5t8 -0.5q39 0 53 19q14 17 18 86q2 51 8 150.5t10 172.5t4 83q0 53 -14 67 q-14 15 -42 15q-4 0 -14 -0.5t-13 -0.5q-12 0 -12 17q0 20 15 20q3 0 39 -2.5t55 -2.5t47.5 2t30.5 2q14 0 19 -14q21 -73 44 -133q30 -81 60.5 -164t48.5 -132.5t26 -69.5q4 -9 8 -9t8 11q4 8 161 371q17 39 45 125q5 15 24 15q1 0 28.5 -2t45.5 -2q22 0 54.5 2.5t34.5 2.5 q14 0 14 -19q0 -20 -13 -20q-3 0 -13 0.5t-12 0.5q-34 0 -48 -15q-12 -13 -12 -69q0 -4 0.5 -13.5t1 -37.5t2 -65t3.5 -114t5 -166q3 -80 14 -94q14 -17 54 -17q3 0 8 0.5t7 0.5q14 0 14 -19q0 -18 -15 -18q-3 0 -20 1.5t-44.5 3t-54.5 1.5t-53.5 -1.5t-42.5 -3t-18 -1.5 q-17 0 -17 20q0 7 4.5 12t11.5 5q1 0 8.5 -0.5t9.5 -0.5q45 0 57 20q8 15 8 91q0 79 -13 420q0 8 -6 8q-5 0 -8 -9q-61 -151 -187 -445q-4 -10 -40 -99q-7 -19 -23 -19t-22 22q-13 47 -29 89q-135 361 -171 454q-5 11 -9 11q-8 0 -8 -9q-1 -49 -8 -215t-7 -213z" />
<glyph unicode="N" horiz-adv-x="791" d="M179 139q1 -68 16 -88q14 -17 51 -17q1 0 10 0.5t12 0.5q13 0 13 -20q0 -17 -13 -17q-3 0 -18 1.5t-40 3t-52 1.5t-52 -1.5t-40 -3t-18 -1.5q-14 0 -14 19q0 18 13 18q2 0 8.5 -0.5t9.5 -0.5q43 0 54 20q10 18 11 85q4 204 4 378q0 69 -13 86q-20 24 -60 24 q-3 0 -10 -0.5t-9 -0.5q-13 0 -13 18q0 19 16 19q3 0 29 -2t42 -2q18 0 39.5 2t25.5 2q15 0 26 -16q30 -40 85 -109.5t83 -105.5q131 -167 229 -283q7 -9 12 -9t5 8q1 43 1 126q0 4 -0.5 101.5t-2.5 138.5q-3 78 -11 93q-11 20 -53 20q-3 0 -12.5 -0.5t-11.5 -0.5 q-14 0 -14 17q0 20 15 20q2 0 19 -1.5t44.5 -3t54.5 -1.5t49.5 1.5t35.5 3t15 1.5q15 0 15 -18q0 -19 -14 -19q-1 0 -10 0.5t-12 0.5q-35 0 -47 -17q-15 -19 -15 -96q0 -13 -0.5 -73t-0.5 -107q0 -69 0.5 -127t1.5 -92.5t2 -58t1.5 -36t0.5 -14.5q0 -19 -25 -19q-10 0 -16 9 q-34 48 -72 94q-67 81 -202.5 251t-160.5 201q-8 8 -12 8q-6 0 -6 -9q-1 -61 -1 -201q0 -71 2 -201z" />
<glyph unicode="O" horiz-adv-x="752" d="M703 341q0 -157 -87 -255.5t-241 -98.5q-145 0 -235 92.5t-90 240.5q0 153 93.5 253t240.5 100q145 0 232 -91t87 -241zM627 323q0 139 -72.5 223.5t-180.5 84.5q-111 0 -179.5 -81.5t-68.5 -221.5q0 -137 73 -218t182 -81q110 0 178 78t68 216z" />
<glyph unicode="P" horiz-adv-x="575" d="M196 145q0 -76 15 -93t54 -17q1 0 11 0.5t14 0.5q13 0 13 -19q0 -18 -15 -18l-43 3q-43 3 -79 3q-27 0 -54.5 -1.5t-45 -3t-19.5 -1.5q-13 0 -13 20q0 17 13 17q1 0 9.5 -0.5t11.5 -0.5q39 0 50 20q10 22 10 89v370q0 75 -10 91q-12 20 -51 20q-3 0 -11.5 -0.5t-9.5 -0.5 q-12 0 -12 19q0 20 14 20q3 0 20 -1.5t44 -2.5t54 -1q13 0 57.5 1.5t65.5 1.5q238 0 238 -173q0 -30 -6 -56t-23.5 -53.5t-45.5 -47.5t-76 -32.5t-111 -12.5q-11 0 -29.5 1t-21.5 1q-18 0 -18 -23v-120zM196 367q0 -27 13 -34q10 -7 47 -7q105 0 149.5 38t44.5 114 q0 72 -43.5 107t-137.5 35q-41 0 -55 -2q-18 -3 -18 -26v-225z" />
<glyph unicode="Q" horiz-adv-x="752" d="M703 341q0 -129 -60.5 -220.5t-169.5 -120.5q-10 -2 -10 -10q0 -6 7 -10q22 -11 69 -35t86.5 -42.5t75.5 -32.5q101 -39 221 -39q71 0 126 24q27 12 30 12q7 0 12 -6t5 -14q0 -13 -14 -20q-85 -41 -211 -41q-91 0 -176.5 23.5t-137.5 51.5t-121 68t-106 57q-3 1 -34 9 q-119 24 -182 108t-63 217q0 153 93.5 253t240.5 100q145 0 232 -91t87 -241zM627 323q0 139 -72.5 223.5t-180.5 84.5q-111 0 -179.5 -81.5t-68.5 -221.5q0 -137 73 -218t182 -81q110 0 178 78t68 216z" />
<glyph unicode="R" horiz-adv-x="661" d="M196 138q0 -71 15 -88q13 -16 56 -16q2 0 10.5 0.5t9.5 0.5q14 0 14 -21q0 -16 -13 -16q-3 0 -23.5 1.5t-50.5 3t-57 1.5q-25 0 -50 -1.5t-41 -3t-18 -1.5q-14 0 -14 18q0 19 13 19q2 0 9 -0.5t10 -0.5q41 0 52 20q10 22 10 84v376q0 76 -10 91q-13 20 -53 20 q-3 0 -8.5 -0.5t-7.5 -0.5q-15 0 -15 19q0 20 14 20q3 0 20 -1.5t43.5 -2.5t53.5 -1q13 0 54 1.5t62 1.5q242 0 242 -165q0 -131 -152 -174q-8 -2 -8 -7q0 -4 8 -8q25 -14 59 -64q56 -89 115 -164q40 -49 81 -49q2 0 10 1t12 1q5 0 9.5 -4.5t4.5 -12.5q0 -15 -10 -18 q-12 -4 -37 -4q-46 0 -76 10.5t-58 39.5q-25 25 -80 120q-61 101 -76 117q-21 22 -60 25q-36 2 -51 2q-18 0 -18 -22v-147zM196 386q0 -27 13 -34q12 -8 47 -8q101 0 145.5 35t44.5 107q0 70 -42.5 102t-128.5 32q-46 0 -61 -2q-18 -2 -18 -25v-207z" />
<glyph unicode="S" horiz-adv-x="509" d="M327 347q71 -39 103 -78.5t32 -94.5q0 -88 -60.5 -138t-166.5 -50q-49 0 -94 11t-68 26q-16 10 -17 26q-2 22 -5 49t-5 44t-2 22q0 18 22 18q17 0 21 -18q10 -57 31 -87q15 -20 47.5 -34.5t74.5 -14.5q70 0 111.5 33t41.5 90q0 77 -102 131l-93 50q-65 35 -95 75t-30 96 q0 77 58.5 123.5t152.5 46.5q62 0 129 -18q29 -9 32 -28q9 -81 9 -109q0 -18 -19 -18q-21 0 -23 17q-4 51 -27 80q-28 34 -104 34q-68 0 -106 -30t-38 -79q0 -37 23.5 -66.5t77.5 -59.5z" />
<glyph unicode="T" horiz-adv-x="644" d="M353 140q0 -69 14 -89q12 -17 56 -17q2 0 11 0.5t12 0.5q12 0 12 -19q0 -18 -14 -18q-2 0 -46 3t-80 3q-27 0 -53 -1.5t-42.5 -3t-19.5 -1.5q-14 0 -14 19q0 18 11 18q2 0 11 -0.5t11 -0.5q43 0 54 20q10 18 10 85v434q0 32 -9 38q-13 8 -86 8q-74 0 -97 -21 q-22 -20 -28 -77q-2 -16 -19 -16q-18 0 -18 14q0 1 4 51t4 74q0 19 15 19q2 0 21 -1.5t80.5 -3t168.5 -1.5q67 0 117 0.5t76 1.5t42 1.5t24 1t12 0.5q20 0 20 -19q0 -16 1 -45t2 -52t1 -25q0 -16 -18 -16q-20 0 -20 14q-3 57 -23 78q-13 14 -34.5 18t-67.5 4q-81 0 -92 -6 q-9 -6 -9 -40v-433z" />
<glyph unicode="U" horiz-adv-x="763" d="M643 247q0 -127 -62.5 -194t-200.5 -67q-139 0 -202 63.5t-63 188.5q0 22 0.5 113.5t0.5 169.5q0 67 -12 87q-12 19 -50 19q-3 0 -10.5 -0.5t-9.5 -0.5q-12 0 -12 17q0 20 16 20q3 0 20 -1.5t43.5 -3t53.5 -1.5t53.5 1.5t42.5 3t19 1.5q14 0 14 -18q0 -19 -13 -19 q-1 0 -8 0.5t-9 0.5q-43 0 -55 -16q-15 -20 -15 -92q0 -188 2 -264q2 -116 49 -168.5t149 -52.5q57 0 97 14t62.5 35.5t35 58.5t16 72.5t3.5 88.5q0 148 -2 218q-3 72 -12 87q-12 19 -53 19q-2 0 -11.5 -0.5t-11.5 -0.5q-11 0 -11 17q0 20 14 20q3 0 45.5 -3t67.5 -3 q24 0 61 3t38 3q18 0 18 -18q0 -19 -16 -19q-2 0 -10.5 0.5t-10.5 0.5q-31 -1 -46 -18q-16 -18 -16 -89q0 -18 0.5 -130t0.5 -143z" />
<glyph unicode="V" horiz-adv-x="702" d="M400 82q-2 -4 -7.5 -18.5t-12 -30t-10.5 -25.5q-9 -19 -22 -19q-16 0 -22 15q-2 5 -9.5 26t-13.5 34q-144 367 -181 459q-24 61 -44 87q-14 17 -40 17q-3 0 -10.5 -0.5t-9.5 -0.5q-15 0 -15 19q0 18 16 18q2 0 39.5 -2t62.5 -2t75 2t51 2q16 0 16 -17q0 -20 -15 -20 q-2 0 -9.5 0.5t-9.5 0.5q-55 0 -55 -27q0 -23 22 -79l142 -362q17 -44 24 -44q5 0 22 41l145 364q22 55 22 80q0 27 -52 27q-5 0 -12 -1h-7q-14 0 -14 18q0 19 17 19q1 0 46.5 -2.5t69.5 -2.5t54 2.5t32 2.5q14 0 14 -18q0 -19 -15 -19q-2 0 -8 0.5t-10 0.5q-26 0 -40 -20 q-15 -21 -42 -84q-88 -207 -184 -441z" />
<glyph unicode="W" horiz-adv-x="981" d="M323 64q-1 -3 -9 -25.5t-12 -30.5q-9 -19 -21 -19q-16 0 -22 15q-5 14 -18 56q-9 32 -58.5 205t-73.5 255q-20 72 -33 91q-12 16 -38 16q-3 0 -10.5 -0.5t-9.5 -0.5q-15 0 -15 17q0 20 16 20q2 0 39 -3t62 -3t53.5 1.5t48 2.5t22.5 1q16 0 16 -20q0 -16 -15 -16 q-1 0 -9.5 0.5t-10.5 0.5q-56 0 -56 -32q0 -25 17 -88l97 -352q8 -29 13 -29q3 0 13 26l152 429q11 31 19 58q8 21 23 21q11 0 19 -15q0 -1 20 -58l154 -438q7 -21 13 -21q5 0 12 23l94 350q17 62 17 95q0 17 -12.5 24t-46.5 7q-2 0 -10 -0.5t-9 -0.5q-15 0 -15 17 q0 20 16 20q1 0 44 -3t67 -3q25 0 58.5 3t35.5 3q17 0 17 -19q0 -18 -14 -18q-3 0 -10 0.5t-10 0.5q-26 0 -37 -15q-10 -12 -33 -92q-124 -422 -134 -456q-14 -46 -18 -56q-7 -19 -22 -19q-17 0 -23 14l-3.5 10.5t-7 20.5t-10.5 28q-11 29 -36 99.5t-60 168.5t-58 162 q-7 20 -12 20t-13 -21q-67 -180 -153 -427z" />
<glyph unicode="X" horiz-adv-x="717" d="M229 149q-54 -75 -54 -92q0 -23 48 -23q10 0 19.5 0.5t11.5 0.5q14 0 14 -20q0 -17 -14 -17l-39 3q-39 3 -77 3q-39 0 -72.5 -3t-34.5 -3q-16 0 -16 17q0 20 16 20q1 0 7.5 -0.5t8.5 -0.5q25 0 45 18q26 24 83 100l130 175q8 10 8 15q0 2 -13 21l-108 143q-64 83 -84 105 q-13 15 -44 15q-2 0 -7 -0.5t-8 -0.5q-14 0 -14 19t16 19q3 0 19.5 -1.5t42.5 -3t54 -1.5q20 0 65 3t48 3q15 0 15 -18q0 -19 -15 -19q-4 0 -19 0.5t-20 0.5q-32 0 -32 -19q0 -11 65 -98l71 -95q16 -21 21 -21t21 21l71 95q55 72 55 97q0 20 -46 20q-10 0 -18.5 -0.5 t-10.5 -0.5q-16 0 -16 18q0 19 14 19l38 -3q38 -3 76 -3q39 0 68.5 3t30.5 3q17 0 17 -19q0 -18 -14 -18q-2 0 -8 0.5t-9 0.5q-21 0 -41 -18q-25 -23 -84 -101l-107 -139q-8 -11 -8 -15q0 -6 11 -19l136 -182q51 -69 83 -102q17 -17 48 -17q2 0 7 0.5t7 0.5q14 0 14 -20 q0 -17 -16 -17q-4 0 -19.5 1.5t-40.5 3t-53 1.5q-25 0 -72 -3t-49 -3q-15 0 -15 17q0 20 16 20q4 0 14.5 -0.5t15.5 -0.5q38 0 38 20q0 15 -60 95l-98 131q-14 19 -19 19q-1 0 -2.5 -0.5t-2.5 -1.5l-3 -3t-3 -3.5t-3.5 -5t-4.5 -5.5z" />
<glyph unicode="Y" horiz-adv-x="660" d="M369 265v-122q0 -75 14 -92t49 -17q2 0 9 0.5t8 0.5q15 0 15 -19q0 -18 -15 -18q-3 0 -18.5 1.5t-40.5 3t-52 1.5t-55 -1.5t-45.5 -3t-19.5 -1.5q-13 0 -13 20q0 17 13 17q1 0 7.5 -0.5t9.5 -0.5q45 0 55 20q10 18 10 90v110q0 19 -2 25q-4 10 -11 23l-117 189 q-47 77 -81 119q-12 16 -44 16q-3 0 -9 -0.5t-8 -0.5q-13 0 -13 19t16 19q4 0 19 -1.5t40.5 -3t53.5 -1.5q20 0 67.5 3t50.5 3q15 0 15 -19q0 -18 -16 -18q-4 0 -17.5 0.5t-18.5 0.5q-35 0 -35 -21q0 -3 0.5 -7t2 -8.5t3 -8t5 -10t6 -11t8 -13.5t9 -15l10.5 -18t12 -20 l75 -123q16 -27 23 -27q8 0 24 25l77 126q49 79 49 109q0 22 -46 22q-10 0 -18.5 -0.5t-10.5 -0.5q-15 0 -15 18q0 19 15 19l36 -3q36 -3 75 -3t69 3t31 3q16 0 16 -19q0 -18 -13 -18q-2 0 -8 0.5t-9 0.5q-22 0 -42 -18q-15 -14 -77 -112l-119 -192q-6 -8 -8 -19 q-1 -5 -1 -21z" />
<glyph unicode="Z" horiz-adv-x="622" d="M156 74q-11 -13 -11 -21q0 -9 19 -9q42 -1 172 -1q141 0 174 24q35 24 49 88q4 16 17 16q24 0 24 -15q0 -7 -5.5 -31t-14.5 -59t-13 -54q-3 -13 -20 -13l-31 1q-32 0 -89.5 0.5t-120.5 0.5q-10 0 -128 -1t-127 -1q-18 0 -18 15q0 9 7 17q239 317 413 561q8 12 8 18 q0 9 -18 9q-46 1 -133 1q-134 0 -155 -13q-30 -18 -47 -87q-4 -13 -19 -13q-20 0 -20 17q0 3 3.5 18.5t9 44.5t9.5 60q1 11 7 14t21 3q2 0 73.5 -2t143.5 -2h98t83 0.5t33 0.5q18 0 18 -14q0 -7 -7 -17q-36 -53 -104.5 -147.5t-169.5 -231t-131 -177.5z" />
<glyph unicode="[" horiz-adv-x="301" d="M161 -89q0 -15 7 -15q32 -2 37 -2q9 0 25.5 0.5t26.5 0.5q6 0 9 -1t5.5 -5t2.5 -12q0 -18 -17 -18q-11 0 -32.5 0.5t-33.5 0.5q-15 0 -40.5 -0.5t-35.5 -0.5q-15 0 -15 18q0 5 0.5 25.5t0.5 24.5v713q0 30 -0.5 59.5t-0.5 30.5q0 18 15 18q13 0 37 -0.5t38 -0.5 q12 0 34 0.5t33 0.5q17 0 17 -17q0 -20 -17 -20q-10 0 -26.5 0.5t-25.5 0.5q-20 0 -36 -1q-8 0 -8 -18v-782z" />
<glyph unicode="\" horiz-adv-x="416" d="M378 12q7 -12 7 -20q0 -15 -21 -15q-20 0 -29 17l-309 651q-5 10 -5 17q0 15 23 15q20 0 28 -20z" />
<glyph unicode="]" horiz-adv-x="300" d="M139 696q0 15 -7 15q-16 1 -37 1q-9 0 -25 -0.5t-26 -0.5q-17 0 -17 19q0 18 17 18q12 0 33 -0.5t32 -0.5q15 0 41 0.5t36 0.5q15 0 15 -18q0 -5 -0.5 -25.5t-0.5 -24.5v-713q0 -30 0.5 -59.5t0.5 -30.5q0 -18 -16 -18q-13 0 -37 0.5t-38 0.5q-12 0 -33 -0.5t-33 -0.5 q-8 0 -12.5 3t-4.5 14q0 20 17 20q10 0 26 -0.5t25 -0.5q20 0 36 1q8 0 8 18v782z" />
<glyph unicode="^" horiz-adv-x="642" d="M358 610l164 -336q2 -2 2 -7q0 -9 -11 -9h-37q-10 0 -16 10l-138 287l-140 -287q-4 -10 -14 -10h-38q-12 0 -12 8q0 4 3 8l170 336q6 10 16 10h37q11 0 14 -10z" />
<glyph unicode="_" horiz-adv-x="505" d="M519 -140q0 -14 -14 -14h-505q-15 0 -15 14v23q0 15 15 15h505q14 0 14 -15v-23z" />
<glyph unicode="`" horiz-adv-x="293" d="M84 645q-17 21 -17 35t10 22.5t25 8.5q23 0 38 -29q27 -51 79 -128q7 -11 7 -17q0 -13 -16 -13q-8 0 -21 13q-73 72 -105 108z" />
<glyph unicode="a" horiz-adv-x="483" d="M299 34q-48 -48 -118 -48q-57 0 -94 34t-37 82q0 55 44 82q45 26 184 51q23 4 31 10.5t8 23.5q0 93 -19 122q-18 27 -67 27q-30 0 -59.5 -21t-29.5 -46q0 -11 3.5 -23t3.5 -19q0 -16 -11 -24.5t-27 -8.5q-38 0 -38 42q0 37 45 77q80 69 154 69q62 0 88 -39q18 -26 18 -92 q0 -22 -1.5 -99t-1.5 -115q0 -85 44 -85q22 0 29 20q4 13 18 13q15 0 15 -15q0 -11 -11 -25q-33 -38 -78 -38q-49 0 -68 47q-3 10 -9 10q-4 0 -16 -12zM317 192q-1 14 -15 14q-13 0 -30 -4q-69 -14 -103 -26q-53 -21 -53 -67q0 -30 24 -52.5t68 -22.5q49 0 88 36 q22 20 22 74q0 36 -1 48z" />
<glyph unicode="b" horiz-adv-x="579" d="M171 268v-108q0 -59 12 -81q11 -20 44.5 -32.5t69.5 -12.5q73 0 123.5 45t50.5 130q0 96 -43.5 149.5t-119.5 53.5q-37 0 -78.5 -25.5t-50.5 -52.5q-8 -24 -8 -66zM114 154v380q0 133 -10 154q-7 16 -29 25q-7 3 -23 7q-11 2 -11 14q0 10 10 14q52 21 94 47q13 9 18 9 q12 0 12 -15q0 -2 -0.5 -27t-1.5 -73t-1 -105v-181q0 -12 7 -12q6 0 10 4q83 71 165 71q81 0 130.5 -61.5t49.5 -155.5q0 -110 -68.5 -183.5t-178.5 -73.5q-54 0 -99 17q-12 5 -22 5q-8 0 -12 -4.5t-7 -19.5q-3 -16 -21 -16t-18 17q0 3 1.5 20.5t3 55t1.5 87.5z" />
<glyph unicode="c" horiz-adv-x="462" d="M113 246q0 -103 46.5 -157.5t118.5 -54.5q42 0 73 19t44 50q3 7 5 29q4 16 19 16q20 0 20 -18q0 -11 -8 -35q-15 -40 -58 -74.5t-116 -34.5q-102 0 -156.5 65t-54.5 160q0 112 64.5 182.5t165.5 70.5q93 0 129 -47q17 -22 17 -55q0 -44 -44 -44q-34 0 -36 30q-1 9 -1 31 t-22.5 35.5t-58.5 13.5q-64 0 -105.5 -50.5t-41.5 -131.5z" />
<glyph unicode="d" horiz-adv-x="591" d="M474 146q0 -66 17 -83q12 -12 28 -12q6 0 18.5 3t14.5 3q15 0 15 -18q0 -13 -13 -16q-3 -1 -23 -6.5t-37 -11.5q-14 -5 -26.5 -11t-19 -9.5t-11.5 -3.5q-12 0 -14 10q-2 7 -4 23.5t-3 23.5q-2 10 -9 10q-5 0 -15 -8q-69 -53 -147 -53q-85 0 -142 59.5t-57 158.5 q0 111 72 183.5t191 72.5q36 0 71 -10q20 -5 23 -5q13 0 13 18v77q0 126 -11 148q-7 15 -25 23q-5 3 -31 9q-7 2 -7 13q0 8 9 13q64 26 98 51q9 6 17 6q11 0 11 -12q0 -3 -0.5 -32t-1.5 -77.5t-1 -98.5v-438zM416 173v120q0 61 -14 82q-12 20 -45.5 33t-76.5 13 q-71 0 -119.5 -51.5t-48.5 -136.5q0 -90 47 -141.5t125 -51.5q39 0 76.5 19t44.5 37q11 28 11 77z" />
<glyph unicode="e" horiz-adv-x="478" d="M407 268q-53 -5 -280 -5q-16 0 -16 -34q0 -89 46.5 -142t119.5 -53q47 0 79 18.5t44 45.5q5 11 7 24q3 21 19 21q20 0 20 -21q0 -19 -16 -48q-19 -35 -63 -61.5t-112 -26.5q-97 0 -152.5 65t-55.5 161q0 113 59.5 182.5t156.5 69.5q88 0 132 -47t44 -117q0 -29 -32 -32z M122 307q0 -10 13 -10q165 0 203 5q27 5 27 28q0 47 -28.5 73t-84.5 26q-38 0 -71 -22t-49 -62q-9 -19 -10 -38z" />
<glyph unicode="f" horiz-adv-x="325" d="M183 134q0 -70 15 -86q14 -15 53 -15q3 0 12 0.5t13 0.5q14 0 14 -18t-14 -18q-2 0 -21 1t-48 2.5t-55 1.5q-25 0 -46.5 -1t-34.5 -2.5t-16 -1.5q-14 0 -14 19q0 17 13 17q2 0 9 -0.5t10 -0.5q33 0 42 19q9 18 9 82v253q0 10 -3.5 13t-13.5 3q-16 0 -33.5 -1t-19.5 -1 q-11 0 -11 21q0 14 12 16q42 6 54 21q13 15 16 71q4 99 19 150.5t51 83.5q44 39 121 39q49 0 82.5 -19.5t33.5 -58.5q0 -44 -41 -44q-34 0 -39 36q-3 27 -6 32q-10 19 -49 19q-32 0 -56 -20.5t-35 -53.5q-23 -62 -23 -234q0 -9 3 -12t13 -3q34 0 61 1.5t33 1.5t9.5 -1 t6 -6.5t2.5 -15.5q0 -24 -19 -24q-2 0 -12.5 0.5t-31.5 1t-49 0.5q-10 0 -13 -3t-3 -12v-254z" />
<glyph unicode="g" horiz-adv-x="521" d="M72 292q0 75 51 123.5t135 48.5q65 0 111 -30q8 -4 14 -4t20 16q31 38 69 38q45 0 45 -42q0 -18 -11 -27.5t-24 -9.5q-15 0 -27 12q-10 8 -22 8q-9 0 -17 -7.5t-8 -19.5q0 -9 7 -23q20 -34 20 -80q0 -73 -50.5 -119.5t-135.5 -46.5q-21 0 -39 3t-28.5 6t-13.5 3 q-19 0 -28 -6q-27 -18 -27 -49q0 -25 17 -39q21 -18 95 -21q36 -1 99 -1q82 -1 127.5 -26t45.5 -92q0 -87 -74 -143t-191 -56q-95 0 -148.5 39t-53.5 97q0 57 50 94q11 8 54 28q10 5 10 9q0 7 -10 8q-78 12 -78 83q0 34 29 65q8 9 29 25q9 6 9 12q0 4 -9 13q-42 40 -42 111z M91 -143q0 -51 44 -79t122 -28q81 0 129.5 38t48.5 91t-37 72t-117 19q-59 0 -88 -8q-39 -12 -70.5 -39t-31.5 -66zM140 300q0 -137 114 -137q50 0 81 32.5t31 90.5q0 69 -30.5 106t-81.5 37q-55 0 -84.5 -35t-29.5 -94z" />
<glyph unicode="h" horiz-adv-x="587" d="M171 135q0 -71 10 -86q12 -16 44 -16q2 0 10 0.5t11 0.5q15 0 15 -19q0 -17 -15 -17q-3 0 -18 1t-39.5 2.5t-50.5 1.5q-25 0 -46.5 -1t-33.5 -2.5t-15 -1.5q-13 0 -13 18t14 18q2 0 9 -0.5t10 -0.5q31 0 39 18q11 24 11 82v413q0 124 -10 144q-10 18 -33 25 q-2 1 -10.5 2.5t-12.5 3.5q-6 2 -6 13t7 13q56 21 98 50q9 7 18 7q10 0 10 -11q0 -2 -1 -25.5t-1.5 -72t-0.5 -111.5v-183q0 -10 7 -10q4 0 11 5q77 70 165 70q66 0 96 -42q28 -39 28 -149v-119q0 -94 8 -107q9 -16 40 -16q3 0 11.5 0.5t9.5 0.5q14 0 14 -19q0 -17 -14 -17 q-2 0 -15.5 1t-36.5 2.5t-49 1.5q-25 0 -46 -1t-33.5 -2.5t-15.5 -1.5q-13 0 -13 18t14 18q2 0 10 -0.5t11 -0.5q29 0 37 19q10 28 10 144q0 131 -17 168q-23 48 -91 48q-34 0 -70.5 -18.5t-53.5 -40.5q-17 -20 -17 -91v-127z" />
<glyph unicode="i" horiz-adv-x="295" d="M180 134q0 -71 11 -85q12 -16 47 -16q4 0 9.5 0.5t6.5 0.5q15 0 15 -18t-15 -18q-2 0 -16 1t-37.5 2.5t-50.5 1.5t-49 -1t-34 -2.5t-15 -1.5q-13 0 -13 19q0 17 14 17q2 0 8.5 -0.5t9.5 -0.5q32 0 40 18q11 20 11 81v132q0 69 -13 92q-9 19 -54 30q-11 3 -11 15 q0 11 8 13q42 14 100 51q10 7 19 7q13 0 13 -16q0 -18 -1 -30q-3 -53 -3 -152v-140zM188 640q0 -21 -13 -34.5t-34 -13.5t-35.5 13.5t-14.5 34.5t14.5 34.5t34.5 13.5q22 0 35 -12.5t13 -35.5z" />
<glyph unicode="j" horiz-adv-x="266" d="M174 -21q0 -127 -24 -182q-19 -43 -55 -69.5t-78 -26.5q-38 0 -58 14t-20 33q0 16 9 25t23 9q20 0 32 -21q9 -16 38 -16q38 0 51 31q20 48 20 281v195q0 81 -13 103q-11 20 -56 31q-10 2 -10 15q0 10 11 14q44 16 97 50q11 7 18 7q14 0 14 -16t-1 -32q-3 -66 -3 -149 q0 -23 2.5 -141.5t2.5 -154.5zM181 640q0 -21 -14 -34.5t-34 -13.5q-21 0 -35 13.5t-14 34.5t14 34.5t35 13.5q20 0 34 -13t14 -35z" />
<glyph unicode="k" horiz-adv-x="540" d="M169 208v-73q0 -71 12 -86q12 -16 44 -16q4 0 11.5 1t9.5 1q12 0 12 -18q0 -19 -12 -19q-3 0 -17.5 1t-38.5 2.5t-50 1.5t-49.5 -1t-36.5 -2.5t-15 -1.5q-12 0 -12 19q0 18 12 18q1 0 9.5 -1t13.5 -1q30 0 40 19q9 16 9 82v403q0 133 -10 153q-10 18 -33 25q-2 1 -10 2.5 t-12 3.5q-6 1 -6 13q0 11 7 13q52 19 98 50q9 7 18 7t9 -11q0 -2 -1 -25t-1.5 -71.5t-0.5 -112.5v-376zM198 223q-6 6 -6 14q0 13 12 17q31 10 56 35q48 48 75 78q18 21 18 34q0 16 -26 16q-3 0 -12 -0.5t-12 -0.5q-13 0 -13 18q0 17 13 17q5 0 37.5 -2.5t60.5 -2.5 q22 0 40.5 1t29 2.5t13.5 1.5q16 0 16 -19q0 -16 -15 -16q-2 0 -9 0.5t-10 0.5q-16 0 -32 -10.5t-48 -42.5q-19 -20 -63 -62.5t-54 -52.5q-4 -4 -4 -10q0 -3 3 -7q47 -64 137 -152q48 -47 95 -47q5 0 12.5 1.5t10.5 1.5q16 0 16 -16q0 -11 -13 -17q-18 -8 -48 -8 q-78 0 -135 58q-62 64 -120 141q-12 16 -25 29z" />
<glyph unicode="l" horiz-adv-x="289" d="M173 135q0 -71 11 -85q12 -16 44 -16q4 0 12 0.5t10 0.5q11 0 11 -17q0 -19 -12 -19q-3 0 -17.5 1t-38.5 2.5t-49 1.5q-27 0 -50.5 -1t-37 -2.5t-15.5 -1.5q-12 0 -12 19q0 17 12 17q1 0 9 -0.5t13 -0.5q31 0 40 19q10 18 10 82v409q0 127 -10 146q-10 18 -33 25 q-2 1 -10.5 2.5t-12.5 3.5q-6 2 -6 13t7 13q60 25 99 49q12 8 19 8q10 0 10 -11q0 -2 -1 -29.5t-1.5 -80t-0.5 -116.5v-432z" />
<glyph unicode="m" horiz-adv-x="881" d="M180 135q0 -72 11 -86q12 -16 41 -16q2 0 10 0.5t11 0.5q15 0 15 -19q0 -17 -16 -17q-2 0 -16.5 1t-38.5 2.5t-50 1.5q-25 0 -46.5 -1t-34 -2.5t-15.5 -1.5q-12 0 -12 18t14 18q2 0 9 -0.5t10 -0.5q32 0 39 18q11 24 11 82v129q0 70 -12 93q-10 19 -58 32q-8 2 -8 13 q0 10 8 14q45 19 91 51q10 7 18 7q11 0 13 -12q0 -4 0.5 -14.5t1 -24.5t0.5 -23q0 -10 9 -10q3 0 10 5q78 73 162 73q81 0 108 -71q4 -10 9 -10t10 4q36 35 81.5 56t87.5 21q64 0 93 -42q28 -39 28 -149v-119q0 -93 9 -107q9 -16 39 -16q3 0 11.5 0.5t9.5 0.5q14 0 14 -19 q0 -17 -14 -17q-2 0 -15.5 1t-36.5 2.5t-49 1.5q-25 0 -46 -1t-33 -2.5t-15 -1.5q-13 0 -13 18t14 18q2 0 10 -0.5t10 -0.5q31 0 37 19q10 24 10 143q0 132 -17 169q-23 48 -88 48q-33 0 -65 -18t-50 -41q-19 -24 -19 -91v-106q0 -94 8 -107q9 -16 40 -16q3 0 11 0.5t9 0.5 q15 0 15 -19q0 -17 -14 -17q-2 0 -15.5 1t-36.5 2.5t-49 1.5q-25 0 -46 -1t-33 -2.5t-15 -1.5q-13 0 -13 18t13 18q3 0 11 -0.5t10 -0.5q31 0 37 19q10 28 10 143q0 133 -18 169q-23 48 -87 48q-33 0 -65 -18t-50 -40q-19 -23 -19 -92v-127z" />
<glyph unicode="n" horiz-adv-x="595" d="M180 135q0 -72 11 -86q12 -16 42 -16q3 0 10 0.5t10 0.5q16 0 16 -19q0 -17 -16 -17q-3 0 -17.5 1t-38.5 2.5t-50 1.5q-25 0 -46.5 -1t-34 -2.5t-15.5 -1.5q-12 0 -12 18t13 18q2 0 9.5 -0.5t10.5 -0.5q32 0 39 18q11 24 11 82v129q0 70 -12 93q-10 19 -58 32q-8 2 -8 13 q0 10 8 14q51 22 91 51q10 7 18 7q11 0 13 -12q0 -4 0.5 -14.5t1 -24.5t0.5 -23q0 -10 9 -10q3 0 12 7q82 71 165 71q66 0 96 -42q29 -41 29 -149v-119q0 -94 8 -107q9 -16 40 -16q3 0 10.5 0.5t8.5 0.5q16 0 16 -19q0 -17 -15 -17q-2 0 -15.5 1t-37 2.5t-49.5 1.5 q-25 0 -45.5 -1t-32.5 -2.5t-15 -1.5q-14 0 -14 18t14 18q2 0 10.5 -0.5t10.5 -0.5q31 0 37 19q10 24 10 142q0 133 -17 170q-23 48 -91 48q-33 0 -68 -18.5t-53 -40.5q-19 -24 -19 -91v-127z" />
<glyph unicode="o" horiz-adv-x="552" d="M507 237q0 -109 -63.5 -180t-172.5 -71q-104 0 -164.5 67t-60.5 165q0 114 67.5 180t168.5 66q104 0 164.5 -63t60.5 -164zM432 224q0 95 -43.5 150.5t-114.5 55.5q-72 0 -114 -52t-42 -144q0 -97 44.5 -155t115.5 -58q72 0 113 53.5t41 149.5z" />
<glyph unicode="p" horiz-adv-x="583" d="M175 274v-108q0 -70 15 -92q12 -18 44.5 -29.5t67.5 -11.5q70 0 121 46.5t51 133.5q0 91 -41.5 145t-116.5 54q-43 0 -83 -24.5t-49 -51.5q-9 -29 -9 -62zM176 -5v-146q0 -62 9 -80q13 -23 58 -23q3 0 13.5 0.5t11.5 0.5q16 0 16 -19q0 -17 -18 -17q-3 0 -21.5 1.5 t-46.5 2.5t-54 1q-22 0 -44 -1t-35.5 -2.5t-16.5 -1.5q-14 0 -14 18t13 18q2 0 9.5 -0.5t10.5 -0.5q28 0 40 19q9 15 9 83v415q0 58 -8 84q-6 19 -27 29q-10 5 -34 11q-9 2 -9 14q0 7 9 13q49 21 91 51q8 7 16 7q12 0 14 -11q1 -10 1.5 -31.5t0.5 -27.5q0 -14 10 -14 q5 0 9 4q36 34 80.5 53.5t83.5 19.5q81 0 132.5 -60.5t51.5 -153.5q0 -113 -66.5 -186t-180.5 -73q-53 0 -90 13q-12 3 -15 3q-9 0 -9 -13z" />
<glyph unicode="q" horiz-adv-x="579" d="M407 185v113q0 62 -12 81q-11 19 -44.5 32.5t-68.5 13.5q-73 0 -123.5 -45t-50.5 -130q0 -96 44.5 -148.5t121.5 -52.5q36 0 77 22t49 47q7 21 7 67zM465 -152q0 -64 11 -83q12 -19 41 -19q3 0 10.5 0.5t9.5 0.5q14 0 14 -18t-15 -18l-34 3q-34 2 -63 2q-26 0 -54.5 -1 t-47 -2.5t-21.5 -1.5q-18 0 -18 17q0 19 16 19q1 0 12 -0.5t14 -0.5q44 0 56 23q9 14 9 80v198q0 13 -8 13q-6 0 -12 -6q-75 -61 -156 -61t-132 61t-51 155q0 111 67 184t177 73q53 0 101 -16q15 -6 21 -6q8 0 11.5 4.5t6.5 19.5q4 18 22 18q20 0 20 -20q0 -3 -2 -20.5 t-3.5 -54.5t-1.5 -87v-456z" />
<glyph unicode="r" horiz-adv-x="386" d="M180 132q0 -66 14 -83q13 -16 51 -16q2 0 10 0.5t11 0.5q16 0 16 -18t-16 -18q-3 0 -20 1t-44 2.5t-53 1.5q-25 0 -46.5 -1t-34.5 -2.5t-16 -1.5q-13 0 -13 18t13 18q2 0 9.5 -0.5t10.5 -0.5q29 0 39 18q11 20 11 78v133q0 70 -12 93q-10 19 -58 32q-8 2 -8 13q0 10 8 14 q48 20 91 51q10 7 18 7q11 0 13 -12q0 -3 0.5 -14t1 -25.5t0.5 -22.5q0 -10 6 -10t9 4q24 32 57.5 52.5t65.5 20.5q28 0 45 -14t17 -37q0 -24 -13.5 -36t-28.5 -12q-22 0 -30 16q-12 22 -36 22q-17 0 -39 -17t-31 -36q-18 -38 -18 -89v-130z" />
<glyph unicode="s" horiz-adv-x="391" d="M178 204q-63 28 -88 60t-25 73q0 57 43 92t122 35q49 0 89 -12q15 -4 17 -23q1 -25 4 -51.5t3 -32.5q0 -16 -20 -16q-16 0 -19 14q-8 48 -19 60q-20 26 -70 26q-46 0 -71 -20.5t-25 -47.5q0 -33 22 -54t84 -49q74 -32 100.5 -65.5t26.5 -73.5q0 -58 -41 -95.5t-127 -37.5 q-83 0 -119 28q-11 9 -13 24q-9 66 -9 79q0 19 22 19q15 0 17 -15q10 -44 28 -66q28 -33 88 -33q44 0 72.5 20t28.5 50q0 34 -23 56.5t-98 55.5z" />
<glyph unicode="t" horiz-adv-x="330" d="M176 134q0 -52 10 -74q14 -26 51 -26q36 0 59 27q5 7 13 7q7 0 12 -5.5t5 -12.5t-7 -14q-46 -46 -111 -46q-57 0 -79 37q-16 26 -16 88q0 15 1 53t2 100.5t2 119.5q0 15 -17 15q-13 0 -29.5 -1t-20.5 -1q-15 0 -15 19q0 16 13 18q46 7 66 31t32 79q4 19 19 19t15 -19 q0 -1 -1 -34.5t-1 -53.5q0 -15 15 -15q22 0 56.5 1.5t38.5 1.5q17 0 17 -23q0 -24 -18 -24q-5 0 -39.5 1t-54.5 1q-16 0 -16 -15q-2 -135 -2 -254z" />
<glyph unicode="u" horiz-adv-x="591" d="M476 141q0 -60 17 -79q10 -11 28 -11q5 0 17 3t17 3q13 0 13 -17q0 -13 -9 -16q-3 -1 -24 -7t-36 -11t-28.5 -11.5t-20.5 -10t-11 -3.5q-11 0 -14 12q0 2 -8 47q-1 9 -7 9q-4 0 -21 -14q-65 -49 -144 -49q-68 0 -106 47q-30 46 -30 161q0 12 0.5 65t0.5 69q0 33 -7 51 q-10 24 -60 28q-12 0 -12 16q0 15 12 17q67 10 105 24q14 6 20 6q5 0 9.5 -4.5t4.5 -10.5q0 -1 -3 -26.5t-6.5 -69.5t-3.5 -92q0 -135 16 -173q22 -53 99 -53q37 0 69 14t48 32q16 19 16 91v112q0 74 -9 92q-10 21 -57 25q-13 0 -13 16q0 15 12 17q51 6 92 21q3 1 9 3.5 t10 4t7 1.5q15 0 15 -14l-1 -19q-2 -19 -4 -55t-2 -79v-162z" />
<glyph unicode="v" horiz-adv-x="530" d="M301 49q-4 -8 -11 -26t-11 -26q-5 -11 -18 -11t-18 11q-4 9 -7.5 18l-7 18t-5.5 14q-90 206 -131 304q-16 37 -30 53q-12 14 -30 14q-2 0 -7 -0.5t-8 -0.5q-12 0 -12 17q0 18 15 18q2 0 15 -1t35.5 -2.5t48.5 -1.5q25 0 46.5 1.5t34 2.5t15.5 1q14 0 14 -19 q0 -16 -13 -16q-1 0 -10 0.5t-12 0.5q-44 0 -44 -25q0 -18 23 -77q44 -107 91 -207q4 -9 9 -9t9 8q46 93 91 206q26 65 26 79t-8.5 19.5t-32.5 5.5q-3 0 -11 -0.5t-10 -0.5q-13 0 -13 17q0 18 14 18q3 0 14 -1t31 -2.5t45 -1.5t43 1.5t27.5 2.5t12.5 1q15 0 15 -18 q0 -17 -13 -17q-1 0 -6.5 0.5t-7.5 0.5q-22 0 -34 -15q-13 -16 -28 -51q-22 -50 -63.5 -141t-72.5 -162z" />
<glyph unicode="w" horiz-adv-x="728" d="M247 50q-2 -6 -9 -24t-10 -26q-5 -14 -19 -14q-13 0 -18 11q-2 3 -13 41q-43 144 -94 309q-14 46 -24 61q-10 11 -29 11q-2 0 -8 -0.5t-7 -0.5q-13 0 -13 17t16 17l35 -2q36 -3 55 -3q18 0 61 3l43 2q14 0 14 -18q0 -17 -15 -17l-6 1h-8q-35 0 -45.5 -6.5t-10.5 -19.5 q0 -14 11 -56q22 -83 60 -204q6 -22 10 -22q3 0 11 19q14 33 42 104t51.5 131t24.5 62q9 22 22 22q11 0 17 -13q2 -4 16 -43q16 -42 103 -263q9 -22 11 -22q4 0 10 20q30 91 62 206q11 38 11 58q0 27 -54 27q-2 0 -8 -0.5t-9 -0.5q-13 0 -13 17q0 18 13 18q4 0 40 -2.5 t54 -2.5t50.5 2.5t34.5 2.5q13 0 13 -15q0 -19 -12 -19q-2 0 -8 0.5t-8 0.5q-13 0 -27 -9q-10 -8 -28 -64q-7 -21 -29.5 -91.5t-41 -129t-25.5 -77.5q-11 -37 -15 -48q-5 -14 -19 -14q-12 0 -18 11q-2 4 -4.5 11.5t-6.5 19t-7 20.5q-26 73 -103 266q-6 16 -10 16 q-5 0 -10 -13q-35 -84 -106 -267z" />
<glyph unicode="x" d="M411 103q39 -46 51 -56q17 -14 29 -14q2 0 8.5 0.5t7.5 0.5q13 0 13 -18t-14 -18q-3 0 -17 1t-37.5 2.5t-48.5 1.5q-33 0 -68 -2.5t-36 -2.5q-15 0 -15 18t14 18q2 0 9 -0.5t10 -0.5q45 0 45 21q0 9 -42 61l-54 65q-6 8 -11 8q-6 0 -12 -8l-52 -64q-41 -50 -41 -63 q0 -20 42 -20q3 0 12 0.5t11 0.5q14 0 14 -18t-15 -18q-1 0 -30.5 2.5t-63.5 2.5q-25 0 -46 -1t-32.5 -2.5t-14.5 -1.5q-16 0 -16 18t14 18q1 0 7 -0.5t8 -0.5q22 0 36 14q34 34 50 53l91 110q7 7 7 13t-6 12l-92 115q-26 32 -48 54q-14 14 -29 14q-2 0 -7.5 -0.5t-6.5 -0.5 q-12 0 -12 17q0 18 13 18q3 0 15.5 -1t34.5 -2.5t47 -1.5q33 0 67 3l34 2q14 0 14 -18q0 -17 -13 -17q-2 0 -9 0.5t-10 0.5q-40 0 -40 -19q0 -15 41 -65l48 -61q5 -6 9 -6q6 0 11 6l49 61q39 50 39 66q0 18 -39 18q-3 0 -11 -0.5t-10 -0.5q-14 0 -14 17q0 18 15 18l27 -2 q27 -3 60 -3q25 0 44 1.5t29 2.5t13 1q14 0 14 -18q0 -17 -13 -17q-1 0 -6.5 0.5t-7.5 0.5q-15 0 -29 -14q-23 -23 -49 -54l-85 -101q-7 -9 -7 -14q0 -8 7 -15z" />
<glyph unicode="y" horiz-adv-x="538" d="M304 17q-93 -218 -130 -265q-42 -51 -95 -51t-53 38q0 15 9.5 24t23.5 9q9 0 17.5 -3.5t16.5 -3.5q32 0 59 34q24 32 78 152q18 41 18 50q0 11 -7 28q-16 36 -147 323q-20 42 -29 52q-12 14 -30 14q-2 0 -7.5 -0.5t-7.5 -0.5q-12 0 -12 17q0 18 15 18q2 0 15.5 -1 t36.5 -2.5t49 -1.5q25 0 46 1.5t33.5 2.5t15.5 1q15 0 15 -17q0 -18 -15 -18q-1 0 -10.5 0.5t-12.5 0.5q-22 0 -31 -6t-9 -22q0 -12 24 -71q38 -92 90 -204q10 -19 14 -19q8 0 13 13q11 28 84 211q21 57 21 74q0 13 -9 18.5t-33 5.5q-2 0 -11 -0.5t-10 -0.5q-13 0 -13 19 q0 16 14 16q2 0 13.5 -1t32 -2.5t45.5 -1.5t43 1.5t27.5 2.5t12.5 1q16 0 16 -18q0 -17 -11 -17q-1 0 -9 0.5t-10 0.5q-17 0 -31 -15q-13 -13 -28 -51q-75 -188 -137 -335z" />
<glyph unicode="z" horiz-adv-x="471" d="M134 60q-6 -9 -6 -13q0 -8 14 -8q35 -2 118 -2t111 17q15 9 27.5 31.5t17.5 46.5q2 14 16 14q19 0 19 -15q0 -14 -24 -123q-3 -10 -13 -10q-2 0 -20.5 0.5t-62 1.5t-103.5 1q-9 0 -94 -0.5t-93 -0.5q-15 0 -15 13q0 6 8 16q162 202 283 362q8 10 8 14q0 5 -9 5 q-15 0 -47.5 0.5t-37.5 0.5q-98 0 -118 -14q-29 -20 -38 -73q-2 -11 -16 -11q-17 0 -17 14q0 6 3.5 25.5t8.5 45.5t7 40q2 15 19 15q1 0 52 -2.5t122 -2.5h80t52 0.5t19 0.5q17 0 17 -12q0 -10 -8 -19q-175 -226 -280 -358z" />
<glyph unicode="{" horiz-adv-x="327" d="M186 16q0 -65 20 -94t63 -29q2 0 8.5 0.5t9.5 0.5q11 0 15 -4t4 -15t-6.5 -14.5t-25.5 -3.5q-83 0 -117 32t-34 124q0 26 1.5 88.5t1.5 68.5q0 105 -83 113q-12 1 -16 5.5t-4 15.5q0 15 21 18q82 10 82 115q0 3 -1.5 68t-1.5 82q0 83 37 123t114 40q18 0 24 -4.5t6 -15.5 q0 -19 -18 -19q-3 0 -11.5 0.5t-11.5 0.5q-40 0 -58.5 -28t-18.5 -92q0 -19 0.5 -72.5t0.5 -58.5q0 -66 -15.5 -98.5t-58.5 -52.5q-6 -2 -6 -6q0 -3 7 -6q37 -16 55 -48t18 -99q0 -5 -0.5 -60.5t-0.5 -74.5z" />
<glyph unicode="|" horiz-adv-x="252" d="M154 -144q0 -10 -5.5 -14.5t-22.5 -4.5t-22.5 5t-5.5 16v891q0 12 5.5 16.5t21.5 4.5q17 0 23 -5t6 -18v-891z" />
<glyph unicode="}" horiz-adv-x="327" d="M142 592q0 65 -20.5 94t-63.5 29q-2 0 -8.5 -0.5t-9.5 -0.5q-11 0 -15 3.5t-4 14.5q0 10 7 14t26 4q82 0 116 -32t34 -124q0 -26 -1.5 -88t-1.5 -68q0 -104 83 -114q20 -2 20 -20q0 -15 -21 -18q-82 -10 -82 -115q0 -3 1.5 -68.5t1.5 -82.5q0 -83 -37 -122.5t-113 -39.5 q-18 0 -24.5 4t-6.5 15q0 19 18 19q3 0 11.5 -0.5t11.5 -0.5q40 0 59 28t19 92q0 19 -0.5 73t-0.5 59q0 66 15.5 98.5t58.5 52.5q6 2 6 6q0 3 -7 6q-37 16 -55 48t-18 99q0 5 0.5 60.5t0.5 74.5z" />
<glyph unicode="~" horiz-adv-x="642" d="M123 210q-5 -7 -11 -7q-5 0 -9 4l-21 17q-5 4 -5 10q0 3 5 10q65 86 135 86q24 0 46.5 -8.5t78.5 -38.5q58 -31 81 -31q48 0 94 62q5 7 12 7q5 0 10 -4l22 -17q4 -5 4 -11q0 -5 -3 -9q-66 -86 -139 -86q-46 0 -105 35q-71 43 -102 43q-48 0 -93 -62z" />
<glyph unicode="&#xa1;" horiz-adv-x="316" d="M118 235q0 10 1 14.5t5 8.5t13 4q13 0 17.5 -5.5t4.5 -20.5q3 -100 12.5 -239t9.5 -160q0 -54 -43 -54q-23 0 -33.5 12t-10.5 41q0 17 11 157t13 242zM85 410q0 23 14.5 39t36.5 16q24 0 38.5 -14t14.5 -40q0 -24 -15 -38.5t-38 -14.5t-37 14t-14 38z" />
<glyph unicode="&#xa2;" horiz-adv-x="511" d="M304 -77q0 -10 -4 -14t-15 -4q-13 0 -16.5 4t-3.5 14v59q0 14 -10 15q-89 8 -135.5 69.5t-46.5 148.5q0 97 49 162t134 80q9 1 9 11v69q0 10 4 14.5t16 4.5q11 0 15 -4t4 -15v-66q0 -12 13 -12q32 0 63 -13.5t45 -33.5q17 -23 17 -47q0 -41 -37 -41q-35 0 -35 33 q0 5 0.5 13t0.5 11q0 30 -39 39q-18 3 -19 3q-9 0 -9 -17v-356q0 -12 10 -12q5 0 13 2q63 14 85 68q2 6 5 29q2 16 19 16q19 0 19 -17q0 -14 -7 -35q-12 -32 -45 -62.5t-87 -39.5q-12 -1 -12 -17v-59zM265 52v356q0 15 -10 15q-9 0 -19 -4q-42 -16 -67.5 -62.5t-25.5 -109.5 q0 -168 104 -203q6 -2 10 -2q8 0 8 10z" />
<glyph unicode="&#xa3;" horiz-adv-x="597" d="M419 -29q-52 0 -227 50q-11 3 -30 9t-30.5 9.5t-18.5 3.5q-26 0 -46 -20q-10 -10 -21 -10q-20 0 -20 20q0 15 19 25q15 8 54 21t67.5 58.5t31.5 118.5q0 13 -12 13h-80q-9 0 -12.5 3.5t-3.5 17.5q0 22 16 22h81q12 0 12 11q0 9 -3.5 49.5t-3.5 56.5q0 96 53.5 151 t154.5 55q69 0 106.5 -24.5t37.5 -62.5q0 -46 -40 -46t-40 41q0 25 -18 41q-17 17 -55 17q-54 0 -90 -34t-36 -103q0 -36 2.5 -87t2.5 -55q0 -10 12 -10h123q8 0 11 -4t3 -17q0 -22 -14 -22h-126q-10 0 -12 -10q-4 -33 -9 -54t-22.5 -50t-46.5 -51q-8 -5 -8 -14q0 -6 10 -7 q24 -3 108 -22q93 -20 147 -20q44 0 58 17q14 15 14 39q0 2 -0.5 8t-0.5 8q0 18 19 18q22 0 22 -22q0 -45 -35 -87q-40 -51 -104 -51z" />
<glyph unicode="&#xa4;" horiz-adv-x="463" d="M394 281q0 -52 -29 -92q-3 -5 -3 -10q0 -6 5 -11l37 -35q7 -6 7 -13q0 -9 -9 -18t-17 -9t-14 6l-38 39q-4 5 -11 5q-4 0 -10 -4q-37 -20 -83 -20q-50 0 -83 19q-5 3 -8 3q-6 0 -11 -6l-32 -33q-10 -10 -18 -10q-10 0 -18 8t-8 17q0 6 8 14l36 36q5 5 5 10t-3 9 q-29 43 -29 95q0 50 29 89q4 6 4 10q0 5 -5 10l-37 35q-6 6 -6 12q0 10 11.5 20.5t17.5 10.5q8 0 13 -7l34 -38q5 -6 11 -6q4 0 9 3q41 25 83 25q53 0 86 -23q4 -3 8 -3q5 0 11 6l29 32q13 13 20 13q8 0 17.5 -8.5t9.5 -18.5q0 -6 -7 -13l-38 -38q-4 -4 -4 -10t3 -10 q27 -41 27 -91zM348 280q0 53 -33.5 89t-82.5 36q-50 0 -83.5 -37t-33.5 -88q0 -54 34 -87.5t83 -33.5q47 0 81.5 33t34.5 88z" />
<glyph unicode="&#xa5;" horiz-adv-x="666" d="M365 141q0 -73 14 -90t49 -17q2 0 9.5 0.5t8.5 0.5q15 0 15 -19q0 -18 -16 -18q-3 0 -17.5 1.5t-39 3t-51.5 1.5t-55 -1.5t-45.5 -3t-19.5 -1.5q-14 0 -14 20q0 17 13 17q1 0 7.5 -0.5t9.5 -0.5q46 0 56 20q10 18 10 88v40q0 12 -12 12h-168q-19 0 -19 19q0 22 19 22h165 q12 0 13 6q1 3 1 17q0 8 -7 19l-20 29q-6 9 -15 9h-137q-19 0 -19 19q0 22 19 22h104q11 0 11 7q0 3 -3 8l-51 83q-47 77 -81 119q-14 16 -45 16q-2 0 -9 -0.5t-10 -0.5q-12 0 -12 19t15 19q4 0 18.5 -1.5t39.5 -3t53 -1.5q20 0 69 3t52 3q14 0 14 -18q0 -19 -15 -19 q-4 0 -18 0.5t-19 0.5q-33 0 -33 -20q0 -21 57 -112l67 -106q15 -25 22 -25q8 0 23 23l69 109q51 82 51 110q0 21 -44 21q-10 0 -19 -0.5t-11 -0.5q-15 0 -15 18q0 19 14 19q4 0 19 -1.5t39.5 -3t53.5 -1.5q39 0 69.5 3t31.5 3q15 0 15 -19q0 -18 -13 -18q-2 0 -8 0.5 t-9 0.5q-24 0 -44 -18q-12 -12 -79 -113l-56 -86q-5 -7 -5 -11q0 -6 11 -6h108q18 0 18 -21q0 -9 -2.5 -13.5t-6 -5.5t-9.5 -1h-144q-9 0 -14 -8l-17 -28q-6 -10 -6 -20q0 -13 2 -18q3 -6 10 -6h169q18 0 18 -21q0 -9 -2.5 -13.5t-5.5 -5.5t-10 -1h-169q-12 0 -12 -12v-41z " />
<glyph unicode="&#xa6;" horiz-adv-x="252" d="M154 367q0 -10 -5.5 -14.5t-22.5 -4.5t-22.5 5t-5.5 16v302q0 12 5.5 16.5t21.5 4.5q17 0 23 -5t6 -18v-302zM154 -93q0 -10 -5.5 -14.5t-22.5 -4.5t-22.5 5t-5.5 16v302q0 12 5.5 16.5t21.5 4.5q17 0 23 -5t6 -18v-302z" />
<glyph unicode="&#xa7;" horiz-adv-x="460" d="M199 -157q-60 0 -96.5 27t-36.5 64t37 37q32 0 35 -40q2 -27 18 -38q24 -15 51 -15q49 0 76 25t27 60q0 31 -25.5 67.5t-101.5 99.5q-76 61 -105 101t-29 80q0 84 96 124q6 3 6 9q0 4 -3 9q-41 42 -41 95q0 57 45.5 93t119.5 36q57 0 89.5 -22.5t32.5 -59.5 q0 -40 -35 -40q-33 0 -35 28q-4 34 -14 44q-14 15 -48 15q-42 0 -70 -22t-28 -55t19.5 -60t92.5 -83q87 -67 115 -103.5t28 -75.5q0 -85 -96 -133q-7 -4 -7 -11t5 -12q50 -56 50 -108q0 -53 -46 -94.5t-126 -41.5zM287 129q10 0 19 6q56 33 56 89q0 18 -6.5 34t-36.5 48 t-85 73q-4 3 -19 13.5t-25 18.5q-6 5 -13 5q-9 0 -17 -5q-54 -30 -54 -81q0 -32 21 -61t81 -82q6 -5 17 -14.5t21 -18t22 -17.5q10 -8 19 -8z" />
<glyph unicode="&#xa8;" horiz-adv-x="290" d="M113 606q0 -19 -12.5 -31t-30.5 -12t-30.5 12t-12.5 31t13 31.5t31 12.5t30 -12t12 -32zM263 606q0 -19 -12.5 -31t-30.5 -12q-17 0 -30.5 12t-13.5 31t13.5 31.5t31.5 12.5t30 -12t12 -32z" />
<glyph unicode="&#xa9;" horiz-adv-x="805" d="M747 337q0 -149 -98 -250.5t-241 -101.5q-149 0 -248 100t-99 248q0 145 100.5 244.5t245.5 99.5q144 0 242 -97.5t98 -242.5zM712 330q0 135 -87 226t-219 91t-221 -91t-89 -223q0 -134 90 -225t223 -91q128 0 215.5 91t87.5 222zM414 122q-102 0 -157 60.5t-55 145.5 q0 89 58 151t157 62q61 0 112 -15q17 -6 17 -19q0 -17 4 -48.5t4 -34.5q0 -11 -15 -11q-14 0 -17 12q-11 41 -22 57q-18 27 -90 27q-65 0 -106.5 -44.5t-41.5 -129.5t44 -133t111 -48q60 0 88 35q8 9 24 51q5 12 16 12q16 0 16 -13q0 -9 -5.5 -34.5t-11.5 -37.5 q-7 -13 -24 -21q-48 -24 -106 -24z" />
<glyph unicode="&#xaa;" horiz-adv-x="319" d="M195 398q-1 8 -9 8q-11 0 -20 -2q-37 -7 -55 -14q-33 -13 -33 -40q0 -18 12.5 -30t38.5 -12q28 0 53 22q14 14 14 41q0 20 -1 27zM185 306q-31 -31 -72 -31q-37 0 -59.5 20.5t-22.5 52.5q0 34 30 51t110 31q24 4 24 21q0 54 -11 67q-13 16 -39 16q-18 0 -37.5 -12.5 t-19.5 -27.5q0 -7 2.5 -14.5t2.5 -11.5q0 -19 -24 -19t-24 25q0 23 29 50q50 41 97 41q42 0 58 -23q11 -17 11 -56q0 -14 -1 -60t-1 -69q0 -50 27 -50q14 0 18 13q3 7 11 7q11 0 11 -11q0 -6 -7 -16q-20 -23 -51 -23q-36 0 -47 29q-2 6 -6 6q-3 0 -9 -6z" />
<glyph unicode="&#xab;" horiz-adv-x="449" d="M237 379q-16 -19 -35 -38.5t-45 -44.5t-41 -41q-5 -5 -5 -8t4 -7q11 -11 38.5 -37.5t46 -46t35.5 -38.5q12 -15 12 -21q0 -5 -5 -9.5t-10 -4.5q-6 0 -26 17q-71 60 -165 129q-13 9 -13 18q0 12 15 22q97 69 167 127q17 13 20 13q5 0 10.5 -4.5t5.5 -9.5q0 -4 -9 -16z M416 379q-15 -18 -33.5 -37t-47 -46.5t-41.5 -40.5q-5 -5 -5 -8t4 -7q96 -94 121 -122q11 -14 11 -21q0 -5 -4.5 -9.5t-10.5 -4.5t-26 17q-68 58 -165 129q-13 9 -13 18q0 11 15 21q68 49 167 128q15 13 22 13q5 0 10 -5t5 -9t-9 -16z" />
<glyph unicode="&#xac;" horiz-adv-x="642" d="M555 45q0 -13 -13 -13h-33q-14 0 -14 13v197h-403q-13 0 -13 13v32q0 14 13 14h450q13 0 13 -14v-242z" />
<glyph unicode="&#xad;" horiz-adv-x="277" d="M230 211h-184q-12 0 -14.5 5.5t-2.5 25.5q0 18 3.5 24.5t13.5 6.5h186q11 0 13.5 -6t2.5 -24q0 -20 -3 -26t-15 -6z" />
<glyph unicode="&#xae;" horiz-adv-x="805" d="M747 337q0 -149 -98 -250.5t-241 -101.5q-149 0 -248 100t-99 248q0 145 100.5 244.5t245.5 99.5q144 0 242 -97.5t98 -242.5zM712 330q0 135 -87 226t-219 91t-221 -91t-89 -223q0 -134 90 -225t223 -91q128 0 215.5 91t87.5 222zM348 225q0 -41 10 -51t33 -10h6 q6 1 7 1q11 0 11 -15t-11 -15q-1 0 -14 1t-32.5 2t-36.5 1q-16 0 -34 -1t-30.5 -2t-13.5 -1q-11 0 -11 16q0 14 11 14q1 0 7 -0.5t8 -0.5q22 0 30 14q9 18 9 52v212q0 43 -9 56q-7 11 -30 11q-2 0 -7.5 -0.5t-6.5 -0.5q-11 0 -11 15q0 16 12 16q2 0 14 -0.5t29 -1t33 -0.5 q7 0 32 1t39 1q151 0 151 -100q0 -80 -93 -105q-7 -1 -7 -5q0 -3 6 -5q24 -10 41 -39q33 -56 61 -93q25 -32 44 -32q1 0 6.5 1t8.5 1q10 0 10 -12t-9 -15t-22 -3q-55 0 -88 33q-10 11 -44 71q-35 63 -41 71q-12 13 -31 15q-11 1 -26 1q-11 0 -11 -15v-83zM348 378 q0 -16 8 -21q10 -5 25 -5q56 0 79 20t23 60q0 78 -92 78q-15 0 -33 -4q-10 -3 -10 -18v-110z" />
<glyph unicode="&#xaf;" horiz-adv-x="291" d="M267 578q0 -17 -5 -23t-16 -6h-201q-11 0 -15.5 4.5t-5.5 22.5q0 30 20 30h200q12 0 17.5 -5.5t5.5 -22.5z" />
<glyph unicode="&#xb0;" horiz-adv-x="276" d="M252 558q0 -52 -34 -83.5t-80 -31.5q-50 0 -82 30.5t-32 83.5q0 50 34 82t80 32q48 0 81 -30.5t33 -82.5zM210 557q0 37 -19 58t-53 21q-31 0 -51 -21t-20 -58q0 -38 19.5 -58.5t52.5 -20.5q30 0 50.5 21t20.5 58z" />
<glyph unicode="&#xb1;" horiz-adv-x="642" d="M349 141q0 -12 -12 -12h-32q-14 0 -14 12v199h-195q-12 0 -12 13v31q0 12 12 12h195v197q0 13 14 13h32q12 0 12 -13v-197h196q14 0 14 -12v-31q0 -13 -14 -13h-196v-199zM559 44v-31q0 -13 -14 -13h-449q-12 0 -12 13v31q0 13 12 13h449q14 0 14 -13z" />
<glyph unicode="&#xb2;" horiz-adv-x="341" d="M160 403q-36 0 -65 -0.5t-44 -1.5t-19 -1q-13 0 -13 14q0 8 12 17q112 74 156.5 128.5t44.5 117.5q0 35 -20 55.5t-55 20.5q-42 0 -61 -21q-15 -16 -19 -34q-2 -11 -15 -11q-15 0 -15 13q0 7 5 22q11 25 40 45.5t79 20.5q56 0 86.5 -29.5t30.5 -81.5q0 -42 -18.5 -77 t-74.5 -84q-30 -26 -81 -60q-5 -4 -5 -6q0 -4 7 -4q29 -1 78 -1q52 0 65 7.5t18 34.5q2 11 14 11t12 -9q0 -4 -3 -25q-3 -30 -3 -55q0 -9 -14 -9q-1 0 -17.5 1t-45.5 1.5t-60 0.5z" />
<glyph unicode="&#xb3;" horiz-adv-x="341" d="M187 628q-5 -2 -5 -5q0 -5 6 -5q101 -7 101 -91q0 -63 -59.5 -103t-143.5 -40q-42 0 -42 26q0 10 5.5 17t14.5 7q8 0 20 -6t33 -6q53 0 84.5 24t31.5 70q0 37 -21 58.5t-59 21.5q-25 0 -42 -6q-9 -3 -15 -3q-12 0 -12 16q0 15 21 16q26 2 49 14q55 26 55 73q0 51 -56 51 q-29 0 -52 -21q-9 -9 -15 -23q-3 -9 -15 -9q-15 0 -15 13q0 11 8 21q34 50 107 50q45 0 68 -21t23 -53q0 -58 -75 -86z" />
<glyph unicode="&#xb4;" horiz-adv-x="293" d="M209 645q-32 -36 -105 -108q-13 -13 -21 -13q-16 0 -16 13q0 7 7 17q62 97 79 128q15 29 37 29q36 0 36 -29q0 -16 -17 -37z" />
<glyph unicode="&#xb5;" horiz-adv-x="592" d="M189 -222q0 -31 -42 -31q-37 0 -37 35q0 140 0.5 261t0.5 142q0 12 0.5 69.5t0.5 73.5q0 31 -8 51q-10 24 -59 28q-12 0 -12 16q0 15 11 17q68 10 105 24q15 6 20 6t9.5 -4.5t4.5 -10.5q0 -1 -3.5 -26.5t-6.5 -69.5t-3 -92q0 -135 16 -173q22 -53 100 -53q37 0 68.5 13.5 t48.5 32.5q15 17 15 91v112q0 76 -8 92q-10 21 -57 25q-13 0 -13 16q0 15 12 17q47 5 91 21q3 1 9 3.5t10 4t7 1.5q15 0 15 -14l-2 -19q-2 -19 -3.5 -55t-1.5 -79v-162q0 -60 17 -79q10 -11 28 -11q4 0 17 3t18 3q12 0 12 -17q0 -13 -8 -16q-1 0 -23 -6.5t-38 -11.5 q-14 -5 -27.5 -11.5t-21 -10t-11.5 -3.5q-11 0 -14 12q-1 5 -3 21.5t-4 25.5q-1 9 -8 9q-4 0 -21 -14q-61 -48 -126 -48q-49 0 -78 26q-7 7 -10 7q-7 0 -7 -9q0 -53 1 -84q2 -48 6.5 -80t8.5 -47t4 -22z" />
<glyph unicode="&#xb6;" horiz-adv-x="513" d="M377 71q0 -154 -49 -224q-29 -42 -73 -67.5t-92 -25.5q-14 0 -23.5 8t-9.5 19q0 31 30 31q2 0 12.5 -3.5t22.5 -3.5q46 0 82 39.5t47 101.5q8 40 8 161q0 26 -20 26q-2 0 -13 -0.5t-20 -0.5q-88 0 -152 56t-64 164q0 107 72.5 173t195.5 77q15 2 21 16q12 26 24 38 q23 23 53 23q31 0 31 -26q0 -23 -22 -24q-37 -4 -49 -21q-12 -18 -12 -56v-481z" />
<glyph unicode="&#xb7;" horiz-adv-x="218" d="M161 271q0 -22 -14.5 -38t-37.5 -16q-24 0 -38 14t-14 39q0 24 15 39t38 15t37 -14t14 -39z" />
<glyph unicode="&#xb8;" horiz-adv-x="285" d="M230 -139q0 -54 -48.5 -85.5t-104.5 -31.5q-21 0 -21 18q0 19 26 19q40 0 65.5 16.5t25.5 48.5q0 35 -52 49q-15 4 -15 18q0 11 9 30q11 25 32 62h30q-24 -48 -24 -57t11 -13q66 -20 66 -74z" />
<glyph unicode="&#xb9;" horiz-adv-x="341" d="M202 489q0 -42 8 -52q9 -11 35 -11q2 0 8 0.5t7 0.5q10 0 10 -14q0 -13 -12 -13q-2 0 -12.5 1t-27 2t-33.5 1q-16 0 -35.5 -1t-34 -2t-16.5 -1q-10 0 -10 14q0 13 9 13q2 0 8.5 -0.5t7.5 -0.5q28 0 35 14q6 14 6 48v177q0 47 -6 59q-3 7 -16 7q-8 0 -21.5 -1t-14.5 -1 q-9 0 -9 13q0 11 8 13q46 7 80 28q13 8 19 8q10 0 10 -13q0 -1 -0.5 -9t-0.5 -14q-2 -31 -2 -83v-183z" />
<glyph unicode="&#xba;" horiz-adv-x="355" d="M320 427q0 -67 -38.5 -110t-106.5 -43q-64 0 -102 41t-38 100q0 70 42 110.5t104 40.5q65 0 102 -39t37 -100zM268 419q0 57 -23 88.5t-66 31.5q-44 0 -68.5 -30t-24.5 -84q0 -58 24.5 -92.5t67.5 -34.5q44 0 67 32t23 89z" />
<glyph unicode="&#xbb;" horiz-adv-x="449" d="M213 114q21 23 62 63.5t59 59.5q5 5 5 8q0 4 -5 9q-78 74 -119 121q-12 15 -12 21q0 4 4.5 8.5t10.5 4.5t25 -16q100 -81 166 -130q13 -9 13 -18q0 -11 -15 -21q-50 -36 -166 -128q-17 -13 -21 -13q-5 0 -10.5 4.5t-5.5 9.5q0 7 9 17zM34 114q16 18 34.5 37t45.5 45 t42 41q5 5 5 8q0 4 -5 9q-83 79 -120 121q-11 14 -11 21q0 4 4.5 8.5t10.5 4.5q7 0 26 -16q79 -67 165 -130q13 -9 13 -18q0 -10 -15 -21q-75 -53 -167 -128q-17 -13 -21 -13q-5 0 -10.5 5t-5.5 9q0 5 9 17z" />
<glyph unicode="&#xbc;" horiz-adv-x="780" d="M276 12q-6 -14 -22 -14q-17 0 -17 11q0 5 5 17l252 577q6 16 24 16q16 0 16 -12q0 -7 -3 -14zM204 335q0 -43 8 -51q8 -11 35 -11q2 0 8 0.5t7 0.5q9 0 9 -14t-11 -14q-2 0 -12.5 1t-27 2t-33.5 1q-16 0 -36 -1t-34.5 -2t-16.5 -1q-10 0 -10 14t9 14q1 0 8 -0.5t8 -0.5 q29 0 35 13q6 14 6 48v177q0 49 -6 59q-4 7 -16 7q-8 0 -21.5 -1t-14.5 -1q-9 0 -9 13q0 11 8 13q49 9 80 29q14 7 20 7q10 0 10 -13q0 -1 -0.5 -9t-0.5 -14q-2 -31 -2 -83v-183zM653 0q0 -15 -23 -15q-16 0 -21 3t-5 12v87q0 12 -12 12h-159q-17 0 -17 14q0 10 7 17 q16 20 192 251q9 11 22 11q16 0 16 -15q0 -2 -0.5 -20t-0.5 -38v-171q0 -9 10 -9h38q8 0 11 -4t3 -15q0 -13 -2.5 -16.5t-11.5 -3.5h-39q-8 0 -8 -12v-88zM604 148q0 59 0.5 106.5t0.5 49.5q0 7 -4 7l-7 -7q-21 -30 -59 -79.5t-57 -75.5q-2 -4 -2 -7q0 -5 8 -5h106 q9 0 11.5 2t2.5 9z" />
<glyph unicode="&#xbd;" horiz-adv-x="780" d="M274 12q-6 -14 -22 -14q-17 0 -17 11q0 5 5 17l252 577q6 16 24 16q16 0 16 -12q0 -7 -3 -14zM204 335q0 -43 8 -51q8 -11 35 -11q2 0 8 0.5t7 0.5q9 0 9 -14t-11 -14q-2 0 -12.5 1t-27 2t-33.5 1q-16 0 -36 -1t-34.5 -2t-16.5 -1q-10 0 -10 14t9 14q1 0 8 -0.5t8 -0.5 q29 0 35 13q6 14 6 48v177q0 49 -6 59q-4 7 -16 7q-8 0 -21.5 -1t-14.5 -1q-9 0 -9 13q0 11 8 13q49 9 80 29q14 7 20 7q10 0 10 -13q0 -1 -0.5 -9t-0.5 -14q-2 -31 -2 -83v-183zM581 3q-36 0 -65 -0.5t-44.5 -1.5t-18.5 -1q-13 0 -13 14q0 8 12 17q112 74 156.5 128.5 t44.5 117.5q0 35 -20 55.5t-55 20.5q-42 0 -61 -21q-15 -16 -19 -34q-2 -11 -15 -11q-15 0 -15 13q0 7 5 22q11 25 40 45.5t79 20.5q56 0 86.5 -29.5t30.5 -81.5q0 -42 -18.5 -77t-74.5 -84q-30 -26 -81 -60q-5 -4 -5 -6q0 -4 7 -4q29 -1 78 -1q52 0 65 7.5t18 34.5 q2 11 14 11t12 -9q0 -4 -3 -25q-3 -30 -3 -55q0 -9 -14 -9q-1 0 -17.5 0.5t-45.5 1.5t-60 1z" />
<glyph unicode="&#xbe;" horiz-adv-x="780" d="M281 12q-6 -14 -22 -14q-17 0 -17 11q0 5 5 17l252 577q6 16 24 16q16 0 16 -12q0 -7 -3 -14zM205 474q-5 -1 -5 -5q0 -5 6 -5q101 -7 101 -90q0 -63 -59.5 -103.5t-143.5 -40.5q-42 0 -42 26q0 10 5.5 17t14.5 7q8 0 20 -6t33 -6q53 0 84.5 24t31.5 70q0 37 -21 58.5 t-59 21.5q-25 0 -42 -6q-9 -3 -15 -3q-12 0 -12 16q0 15 21 16q26 2 49 14q55 26 55 73q0 51 -56 51q-29 0 -52 -21q-9 -9 -15 -23q-3 -9 -15 -9q-15 0 -15 13q0 11 8 21q36 50 107 50q45 0 68 -21t23 -53q0 -58 -75 -86zM653 0q0 -15 -23 -15q-16 0 -21 3t-5 12v87 q0 12 -12 12h-159q-17 0 -17 14q0 10 7 17q16 20 192 251q9 11 22 11q16 0 16 -15q0 -2 -0.5 -20t-0.5 -38v-171q0 -9 10 -9h38q8 0 11 -4t3 -15q0 -13 -2.5 -16.5t-11.5 -3.5h-39q-8 0 -8 -12v-88zM604 148q0 59 0.5 106.5t0.5 49.5q0 7 -4 7l-7 -7q-21 -30 -59 -79.5 t-57 -75.5q-2 -4 -2 -7q0 -5 8 -5h106q9 0 11.5 2t2.5 9z" />
<glyph unicode="&#xbf;" horiz-adv-x="439" d="M231 189q0 13 -5 31t-5 26q0 17 21 17q15 0 20 -17q11 -38 11 -69q0 -40 -18 -64t-72 -65q-40 -30 -56 -57.5t-16 -65.5q0 -48 27 -75t74 -27q96 0 96 71q0 3 -0.5 13.5t-0.5 13.5q0 17 11 26.5t28 9.5q38 0 38 -48t-48.5 -87t-132.5 -39q-77 0 -122.5 37.5t-45.5 100.5 q0 54 23 90t91 79q30 19 43 28.5t26 28.5t13 42zM178 410q0 23 14.5 39t37.5 16q24 0 38 -14t14 -40q0 -24 -15 -38.5t-38 -14.5t-37 14t-14 38z" />
<glyph unicode="&#xc0;" horiz-adv-x="707" d="M175 138q-24 -61 -24 -79q0 -25 58 -25q5 0 13 0.5t10 0.5q13 0 13 -17q0 -20 -15 -20q-1 0 -50.5 2t-73.5 2t-55.5 -2t-33.5 -2q-12 0 -12 17q0 20 14 20q2 0 8 -0.5t10 -0.5q28 0 42 20q20 28 43 83q36 89 105 253.5t84 200.5q10 28 12 48q1 15 15 20q30 13 35 13 q9 0 12 -13q1 -3 21 -58q31 -86 181 -463q25 -64 41 -85q15 -19 44 -19q3 0 8.5 0.5t7.5 0.5q15 0 15 -18q0 -19 -14 -19q-2 0 -40 2t-63 2q-24 0 -79 -2t-56 -2q-15 0 -15 18q0 19 14 19q1 0 8.5 -0.5t9.5 -0.5q35 0 49 7t14 24q0 20 -21 74l-34 88q-8 19 -14.5 25t-20.5 6 h-200q-12 0 -17 -5t-11 -19zM250 333q-7 -16 -7 -22q0 -9 6.5 -11.5t27.5 -2.5h137q29 0 29 14q0 8 -6 22l-83 214q-4 10 -8 10t-10 -13zM250 796q-26 18 -26 37q0 15 9.5 23.5t22.5 8.5q18 0 41 -22q38 -37 117 -106q11 -11 11 -18q0 -6 -4.5 -10.5t-10.5 -4.5q-9 0 -24 9 q-93 51 -136 83z" />
<glyph unicode="&#xc1;" horiz-adv-x="707" d="M175 138q-24 -61 -24 -79q0 -25 58 -25q5 0 13 0.5t10 0.5q13 0 13 -17q0 -20 -15 -20q-1 0 -50.5 2t-73.5 2t-55.5 -2t-33.5 -2q-12 0 -12 17q0 20 14 20q2 0 8 -0.5t10 -0.5q28 0 42 20q20 28 43 83q36 89 105 253.5t84 200.5q10 28 12 48q1 15 15 20q30 13 35 13 q9 0 12 -13q1 -3 21 -58q31 -86 181 -463q25 -64 41 -85q15 -19 44 -19q3 0 8.5 0.5t7.5 0.5q15 0 15 -18q0 -19 -14 -19q-2 0 -40 2t-63 2q-24 0 -79 -2t-56 -2q-15 0 -15 18q0 19 14 19q1 0 8.5 -0.5t9.5 -0.5q35 0 49 7t14 24q0 20 -21 74l-34 88q-8 19 -14.5 25t-20.5 6 h-200q-12 0 -17 -5t-11 -19zM250 333q-7 -16 -7 -22q0 -9 6.5 -11.5t27.5 -2.5h137q29 0 29 14q0 8 -6 22l-83 214q-4 10 -8 10t-10 -13zM452 796q-43 -32 -136 -83q-15 -9 -24 -9q-5 0 -10 4.5t-5 10.5q0 7 11 18q65 57 117 106q23 22 41 22q13 0 22.5 -8.5t9.5 -23.5 q0 -19 -26 -37z" />
<glyph unicode="&#xc2;" horiz-adv-x="707" d="M175 138q-24 -61 -24 -79q0 -25 58 -25q5 0 13 0.5t10 0.5q13 0 13 -17q0 -20 -15 -20q-1 0 -50.5 2t-73.5 2t-55.5 -2t-33.5 -2q-12 0 -12 17q0 20 14 20q2 0 8 -0.5t10 -0.5q28 0 42 20q20 28 43 83q36 89 105 253.5t84 200.5q10 28 12 48q1 15 15 20q30 13 35 13 q9 0 12 -13q1 -3 21 -58q31 -86 181 -463q25 -64 41 -85q15 -19 44 -19q3 0 8.5 0.5t7.5 0.5q15 0 15 -18q0 -19 -14 -19q-2 0 -40 2t-63 2q-24 0 -79 -2t-56 -2q-15 0 -15 18q0 19 14 19q1 0 8.5 -0.5t9.5 -0.5q35 0 49 7t14 24q0 20 -21 74l-34 88q-8 19 -14.5 25t-20.5 6 h-200q-12 0 -17 -5t-11 -19zM250 333q-7 -16 -7 -22q0 -9 6.5 -11.5t27.5 -2.5h137q29 0 29 14q0 8 -6 22l-83 214q-4 10 -8 10t-10 -13zM506 707q0 -5 -5 -9.5t-10 -4.5q-7 0 -18 8q-2 1 -20 15.5t-40 32t-34 27.5q-6 5 -12 5q-5 0 -11 -6q-76 -60 -97 -75q-8 -7 -17 -7 q-5 0 -9.5 4.5t-4.5 9.5t5 12q11 11 29 31.5t43.5 50t40.5 45.5q10 13 22 13t21 -12q25 -29 65.5 -75.5t45.5 -52.5q6 -7 6 -12z" />
<glyph unicode="&#xc3;" horiz-adv-x="707" d="M175 138q-24 -61 -24 -79q0 -25 58 -25q5 0 13 0.5t10 0.5q13 0 13 -17q0 -20 -15 -20q-1 0 -50.5 2t-73.5 2t-55.5 -2t-33.5 -2q-12 0 -12 17q0 20 14 20q2 0 8 -0.5t10 -0.5q28 0 42 20q20 28 43 83q36 89 105 253.5t84 200.5q10 28 12 48q1 15 15 20q30 13 35 13 q9 0 12 -13q1 -3 21 -58q31 -86 181 -463q25 -64 41 -85q15 -19 44 -19q3 0 8.5 0.5t7.5 0.5q15 0 15 -18q0 -19 -14 -19q-2 0 -40 2t-63 2q-24 0 -79 -2t-56 -2q-15 0 -15 18q0 19 14 19q1 0 8.5 -0.5t9.5 -0.5q35 0 49 7t14 24q0 20 -21 74l-34 88q-8 19 -14.5 25t-20.5 6 h-200q-12 0 -17 -5t-11 -19zM250 333q-7 -16 -7 -22q0 -9 6.5 -11.5t27.5 -2.5h137q29 0 29 14q0 8 -6 22l-83 214q-4 10 -8 10t-10 -13zM377 795q39 -20 64 -20q28 0 38 41q4 12 15 12q16 0 16 -14q0 -5 -3 -14q-11 -43 -28 -62.5t-44 -19.5q-34 0 -76 23t-70 23 q-29 0 -45 -43q-3 -9 -14 -9q-16 0 -16 13q0 7 4 19q26 78 83 78q24 0 76 -27z" />
<glyph unicode="&#xc4;" horiz-adv-x="707" d="M175 138q-24 -61 -24 -79q0 -25 58 -25q5 0 13 0.5t10 0.5q13 0 13 -17q0 -20 -15 -20q-1 0 -50.5 2t-73.5 2t-55.5 -2t-33.5 -2q-12 0 -12 17q0 20 14 20q2 0 8 -0.5t10 -0.5q28 0 42 20q20 28 43 83q36 89 105 253.5t84 200.5q10 28 12 48q1 15 15 20q30 13 35 13 q9 0 12 -13q1 -3 21 -58q31 -86 181 -463q25 -64 41 -85q15 -19 44 -19q3 0 8.5 0.5t7.5 0.5q15 0 15 -18q0 -19 -14 -19q-2 0 -40 2t-63 2q-24 0 -79 -2t-56 -2q-15 0 -15 18q0 19 14 19q1 0 8.5 -0.5t9.5 -0.5q35 0 49 7t14 24q0 20 -21 74l-34 88q-8 19 -14.5 25t-20.5 6 h-200q-12 0 -17 -5t-11 -19zM250 333q-7 -16 -7 -22q0 -9 6.5 -11.5t27.5 -2.5h137q29 0 29 14q0 8 -6 22l-83 214q-4 10 -8 10t-10 -13zM327 748q0 -19 -12 -31.5t-31 -12.5q-17 0 -29.5 12t-12.5 32q0 19 12.5 31.5t30.5 12.5t30 -12.5t12 -31.5zM486 748q0 -19 -12 -31.5 t-31 -12.5q-17 0 -30 12.5t-13 31.5t13 31.5t31 12.5t30 -12.5t12 -31.5z" />
<glyph unicode="&#xc5;" horiz-adv-x="707" d="M175 138q-24 -61 -24 -79q0 -25 58 -25q5 0 13 0.5t10 0.5q13 0 13 -17q0 -20 -15 -20q-1 0 -50.5 2t-73.5 2t-55.5 -2t-33.5 -2q-12 0 -12 17q0 20 14 20q2 0 8 -0.5t10 -0.5q28 0 42 20q20 28 43 83q36 89 105 253.5t84 200.5q10 28 12 48q1 15 15 20q30 13 35 13 q9 0 12 -13q1 -3 21 -58q31 -86 181 -463q25 -64 41 -85q15 -19 44 -19q3 0 8.5 0.5t7.5 0.5q15 0 15 -18q0 -19 -14 -19q-2 0 -40 2t-63 2q-24 0 -79 -2t-56 -2q-15 0 -15 18q0 19 14 19q1 0 8.5 -0.5t9.5 -0.5q35 0 49 7t14 24q0 20 -21 74l-34 88q-8 19 -14.5 25t-20.5 6 h-200q-12 0 -17 -5t-11 -19zM250 333q-7 -16 -7 -22q0 -9 6.5 -11.5t27.5 -2.5h137q29 0 29 14q0 8 -6 22l-83 214q-4 10 -8 10t-10 -13zM451 786q0 -41 -25.5 -66.5t-64.5 -25.5q-41 0 -65 24.5t-24 63.5t26 65t64 26q41 0 65 -23.5t24 -63.5zM416 783q0 28 -15 43.5 t-40 15.5q-23 0 -38 -16t-15 -43q0 -25 15 -41t38 -16q24 0 39.5 15.5t15.5 41.5z" />
<glyph unicode="&#xc6;" horiz-adv-x="987" d="M222 141q-43 -65 -43 -87q0 -20 43 -20q4 0 13.5 0.5t13.5 0.5q13 0 13 -20q0 -17 -17 -17q-1 0 -56.5 2t-79.5 2t-54.5 -2t-32.5 -2q-20 0 -20 18q0 19 18 19q2 0 9.5 -0.5t11.5 -0.5q28 0 48 20q30 30 69 85q208 290 308 452q6 11 6 20q0 11 -13 13q-18 3 -46 3 q-2 0 -11.5 -0.5t-13.5 -0.5q-14 0 -14 19q0 18 16 18q3 0 33.5 -1.5t71 -2.5t67.5 -1q83 0 190 1.5t131 1.5q16 0 16 -18q0 -16 1 -45t1.5 -48.5t0.5 -22.5q0 -15 -17 -15t-19 13q-4 55 -23 74q-20 21 -108 21q-77 0 -111 -3q-18 -1 -18 -26v-204q0 -15 9 -19t31 -4 q72 0 97 9q26 9 35 69q2 16 20 16q16 0 16 -15l-3 -39q-3 -39 -3 -65q0 -19 1.5 -51t1.5 -40q0 -14 -17 -14q-16 0 -18 14q-5 54 -28 69q-15 9 -108 9q-20 0 -27 -5t-7 -19v-182q0 -39 7 -51q12 -17 45 -22.5t99 -5.5q84 0 108 18q30 21 52 87q5 12 19 12q18 0 18 -13 q0 -9 -10.5 -54t-17.5 -68q-9 -25 -31 -25q-44 0 -126 2t-150 2q-27 0 -65 -1t-66 -2t-31 -1q-14 0 -14 17q0 20 14 20q2 0 10 -0.5t11 -0.5q38 0 50 20q10 18 10 85v90q0 19 -4.5 25t-19.5 6h-192q-22 0 -38 -24zM537 334v254q0 10 -6 10q-5 0 -13 -13l-159 -241 q-18 -29 -18 -35q0 -11 28 -11h132q28 0 33 14q3 8 3 22z" />
<glyph unicode="&#xc7;" horiz-adv-x="688" d="M448 -144q0 -55 -50.5 -88t-108.5 -33q-23 0 -23 19q0 20 28 20q42 0 68.5 17.5t26.5 49.5q0 36 -55 51q-16 5 -16 18q0 11 10 31q17 34 17 40q0 8 -12 10q-137 16 -210 107t-73 224q0 156 95 253t265 97q33 0 64 -3t45.5 -6t40 -9.5t30.5 -7.5q26 -5 26 -24q1 -27 7 -74 t6 -53q0 -17 -20 -17q-17 0 -20 12q-12 64 -37 93q-42 48 -163 48q-114 0 -189 -78t-75 -220q0 -139 76 -221.5t201 -82.5q101 0 154 55q25 25 48 83q5 14 20 14q17 0 17 -14t-9.5 -52t-19.5 -56q-11 -20 -35 -32q-74 -37 -182 -39q-13 0 -17 -14q-10 -20 -10 -28 q0 -9 11 -13q69 -22 69 -77z" />
<glyph unicode="&#xc8;" horiz-adv-x="578" d="M486 -2q-44 0 -129.5 1.5t-153.5 1.5q-27 0 -63 -0.5t-62.5 -1.5t-29.5 -1q-14 0 -14 18q0 19 13 19q2 0 10.5 -0.5t11.5 -0.5q37 0 49 20q10 18 10 85v383q0 70 -10 86q-12 19 -51 19q-3 0 -11 -0.5t-9 -0.5q-13 0 -13 17q0 20 15 20q3 0 27 -1.5t57.5 -2.5t60.5 -1 q83 0 169.5 1.5t110.5 1.5q16 0 16 -19q0 -17 1 -45.5t1.5 -47.5t0.5 -22q0 -15 -17 -15t-19 14q-3 53 -24 74q-12 13 -35.5 16.5t-71.5 3.5q-15 0 -57.5 -1t-54.5 -1q-18 0 -18 -26v-205q0 -15 8.5 -19t30.5 -4q74 0 99 9q29 10 35 70q2 15 19 15t17 -15l-3 -39 q-3 -38 -3 -64q0 -20 1.5 -52t1.5 -40q0 -14 -17 -14q-16 0 -18 14q-4 53 -29 69q-15 9 -108 9q-20 0 -27 -5t-7 -19v-182q0 -40 8 -51q12 -17 45 -22.5t98 -5.5q84 0 108 18q28 20 53 86q6 13 18 13q19 0 19 -13q0 -9 -10.5 -53.5t-17.5 -67.5q-9 -26 -31 -26zM185 796 q-26 18 -26 37q0 15 9.5 23.5t22.5 8.5q18 0 41 -22q38 -37 117 -106q11 -11 11 -18q0 -6 -4.5 -10.5t-10.5 -4.5q-9 0 -24 9q-93 51 -136 83z" />
<glyph unicode="&#xc9;" horiz-adv-x="578" d="M486 -2q-44 0 -129.5 1.5t-153.5 1.5q-27 0 -63 -0.5t-62.5 -1.5t-29.5 -1q-14 0 -14 18q0 19 13 19q2 0 10.5 -0.5t11.5 -0.5q37 0 49 20q10 18 10 85v383q0 70 -10 86q-12 19 -51 19q-3 0 -11 -0.5t-9 -0.5q-13 0 -13 17q0 20 15 20q3 0 27 -1.5t57.5 -2.5t60.5 -1 q83 0 169.5 1.5t110.5 1.5q16 0 16 -19q0 -17 1 -45.5t1.5 -47.5t0.5 -22q0 -15 -17 -15t-19 14q-3 53 -24 74q-12 13 -35.5 16.5t-71.5 3.5q-15 0 -57.5 -1t-54.5 -1q-18 0 -18 -26v-205q0 -15 8.5 -19t30.5 -4q74 0 99 9q29 10 35 70q2 15 19 15t17 -15l-3 -39 q-3 -38 -3 -64q0 -20 1.5 -52t1.5 -40q0 -14 -17 -14q-16 0 -18 14q-4 53 -29 69q-15 9 -108 9q-20 0 -27 -5t-7 -19v-182q0 -40 8 -51q12 -17 45 -22.5t98 -5.5q84 0 108 18q28 20 53 86q6 13 18 13q19 0 19 -13q0 -9 -10.5 -53.5t-17.5 -67.5q-9 -26 -31 -26zM397 796 q-43 -32 -136 -83q-15 -9 -24 -9q-5 0 -10 4.5t-5 10.5q0 7 11 18q65 57 117 106q23 22 41 22q13 0 22.5 -8.5t9.5 -23.5q0 -19 -26 -37z" />
<glyph unicode="&#xca;" horiz-adv-x="578" d="M486 -2q-44 0 -129.5 1.5t-153.5 1.5q-27 0 -63 -0.5t-62.5 -1.5t-29.5 -1q-14 0 -14 18q0 19 13 19q2 0 10.5 -0.5t11.5 -0.5q37 0 49 20q10 18 10 85v383q0 70 -10 86q-12 19 -51 19q-3 0 -11 -0.5t-9 -0.5q-13 0 -13 17q0 20 15 20q3 0 27 -1.5t57.5 -2.5t60.5 -1 q83 0 169.5 1.5t110.5 1.5q16 0 16 -19q0 -17 1 -45.5t1.5 -47.5t0.5 -22q0 -15 -17 -15t-19 14q-3 53 -24 74q-12 13 -35.5 16.5t-71.5 3.5q-15 0 -57.5 -1t-54.5 -1q-18 0 -18 -26v-205q0 -15 8.5 -19t30.5 -4q74 0 99 9q29 10 35 70q2 15 19 15t17 -15l-3 -39 q-3 -38 -3 -64q0 -20 1.5 -52t1.5 -40q0 -14 -17 -14q-16 0 -18 14q-4 53 -29 69q-15 9 -108 9q-20 0 -27 -5t-7 -19v-182q0 -40 8 -51q12 -17 45 -22.5t98 -5.5q84 0 108 18q28 20 53 86q6 13 18 13q19 0 19 -13q0 -9 -10.5 -53.5t-17.5 -67.5q-9 -26 -31 -26zM428 707 q0 -5 -5 -9.5t-10 -4.5q-7 0 -18 8q-2 1 -20 15.5t-40 32t-34 27.5q-6 5 -12 5q-5 0 -11 -6q-76 -60 -97 -75q-8 -7 -17 -7q-5 0 -9.5 4.5t-4.5 9.5t5 12q11 11 29 31.5t43.5 50t40.5 45.5q10 13 22 13t21 -12q25 -29 65.5 -75.5t45.5 -52.5q6 -7 6 -12z" />
<glyph unicode="&#xcb;" horiz-adv-x="578" d="M486 -2q-44 0 -129.5 1.5t-153.5 1.5q-27 0 -63 -0.5t-62.5 -1.5t-29.5 -1q-14 0 -14 18q0 19 13 19q2 0 10.5 -0.5t11.5 -0.5q37 0 49 20q10 18 10 85v383q0 70 -10 86q-12 19 -51 19q-3 0 -11 -0.5t-9 -0.5q-13 0 -13 17q0 20 15 20q3 0 27 -1.5t57.5 -2.5t60.5 -1 q83 0 169.5 1.5t110.5 1.5q16 0 16 -19q0 -17 1 -45.5t1.5 -47.5t0.5 -22q0 -15 -17 -15t-19 14q-3 53 -24 74q-12 13 -35.5 16.5t-71.5 3.5q-15 0 -57.5 -1t-54.5 -1q-18 0 -18 -26v-205q0 -15 8.5 -19t30.5 -4q74 0 99 9q29 10 35 70q2 15 19 15t17 -15l-3 -39 q-3 -38 -3 -64q0 -20 1.5 -52t1.5 -40q0 -14 -17 -14q-16 0 -18 14q-4 53 -29 69q-15 9 -108 9q-20 0 -27 -5t-7 -19v-182q0 -40 8 -51q12 -17 45 -22.5t98 -5.5q84 0 108 18q28 20 53 86q6 13 18 13q19 0 19 -13q0 -9 -10.5 -53.5t-17.5 -67.5q-9 -26 -31 -26zM255 748 q0 -19 -12 -31.5t-31 -12.5q-17 0 -29.5 12t-12.5 32q0 19 12.5 31.5t30.5 12.5t30 -12.5t12 -31.5zM414 748q0 -19 -12 -31.5t-31 -12.5q-17 0 -30 12.5t-13 31.5t13 31.5t31 12.5t30 -12.5t12 -31.5z" />
<glyph unicode="&#xcc;" horiz-adv-x="326" d="M197 143q0 -75 14 -92t49 -17q2 0 9 0.5t8 0.5q15 0 15 -18q0 -19 -15 -19q-3 0 -18.5 1.5t-40.5 3t-52 1.5t-54.5 -1.5t-45 -3t-19.5 -1.5q-13 0 -13 20q0 17 13 17q1 0 7.5 -0.5t9.5 -0.5q45 0 54 20q10 18 10 90v373q0 74 -10 90q-11 20 -51 20q-3 0 -11 -0.5t-9 -0.5 q-13 0 -13 17q0 20 15 20q3 0 21.5 -1.5t46.5 -3t55 -1.5t50.5 1.5t37 3t16.5 1.5q16 0 16 -18q0 -19 -15 -19q-1 0 -8 0.5t-8 0.5q-35 0 -50 -18q-14 -16 -14 -94v-372zM58 796q-26 18 -26 37q0 15 9.5 23.5t22.5 8.5q18 0 41 -22q38 -37 117 -106q11 -11 11 -18 q0 -6 -4.5 -10.5t-10.5 -4.5q-9 0 -24 9q-93 51 -136 83z" />
<glyph unicode="&#xcd;" horiz-adv-x="326" d="M197 143q0 -75 14 -92t49 -17q2 0 9 0.5t8 0.5q15 0 15 -18q0 -19 -15 -19q-3 0 -18.5 1.5t-40.5 3t-52 1.5t-54.5 -1.5t-45 -3t-19.5 -1.5q-13 0 -13 20q0 17 13 17q1 0 7.5 -0.5t9.5 -0.5q45 0 54 20q10 18 10 90v373q0 74 -10 90q-11 20 -51 20q-3 0 -11 -0.5t-9 -0.5 q-13 0 -13 17q0 20 15 20q3 0 21.5 -1.5t46.5 -3t55 -1.5t50.5 1.5t37 3t16.5 1.5q16 0 16 -18q0 -19 -15 -19q-1 0 -8 0.5t-8 0.5q-35 0 -50 -18q-14 -16 -14 -94v-372zM265 796q-43 -32 -136 -83q-15 -9 -24 -9q-5 0 -10 4.5t-5 10.5q0 7 11 18q65 57 117 106q23 22 41 22 q13 0 22.5 -8.5t9.5 -23.5q0 -19 -26 -37z" />
<glyph unicode="&#xce;" horiz-adv-x="326" d="M197 143q0 -75 14 -92t49 -17q2 0 9 0.5t8 0.5q15 0 15 -18q0 -19 -15 -19q-3 0 -18.5 1.5t-40.5 3t-52 1.5t-54.5 -1.5t-45 -3t-19.5 -1.5q-13 0 -13 20q0 17 13 17q1 0 7.5 -0.5t9.5 -0.5q45 0 54 20q10 18 10 90v373q0 74 -10 90q-11 20 -51 20q-3 0 -11 -0.5t-9 -0.5 q-13 0 -13 17q0 20 15 20q3 0 21.5 -1.5t46.5 -3t55 -1.5t50.5 1.5t37 3t16.5 1.5q16 0 16 -18q0 -19 -15 -19q-1 0 -8 0.5t-8 0.5q-35 0 -50 -18q-14 -16 -14 -94v-372zM301 707q0 -5 -5 -9.5t-10 -4.5q-7 0 -18 8q-2 1 -20 15.5t-40 32t-34 27.5q-6 5 -12 5q-5 0 -11 -6 q-76 -60 -97 -75q-8 -7 -17 -7q-5 0 -9.5 4.5t-4.5 9.5t5 12q11 11 29 31.5t43.5 50t40.5 45.5q10 13 22 13t21 -12q25 -29 65.5 -75.5t45.5 -52.5q6 -7 6 -12z" />
<glyph unicode="&#xcf;" horiz-adv-x="326" d="M197 143q0 -75 14 -92t49 -17q2 0 9 0.5t8 0.5q15 0 15 -18q0 -19 -15 -19q-3 0 -18.5 1.5t-40.5 3t-52 1.5t-54.5 -1.5t-45 -3t-19.5 -1.5q-13 0 -13 20q0 17 13 17q1 0 7.5 -0.5t9.5 -0.5q45 0 54 20q10 18 10 90v373q0 74 -10 90q-11 20 -51 20q-3 0 -11 -0.5t-9 -0.5 q-13 0 -13 17q0 20 15 20q3 0 21.5 -1.5t46.5 -3t55 -1.5t50.5 1.5t37 3t16.5 1.5q16 0 16 -18q0 -19 -15 -19q-1 0 -8 0.5t-8 0.5q-35 0 -50 -18q-14 -16 -14 -94v-372zM124 748q0 -19 -12 -31.5t-31 -12.5q-17 0 -29.5 12t-12.5 32q0 19 12.5 31.5t30.5 12.5t30 -12.5 t12 -31.5zM283 748q0 -19 -12 -31.5t-31 -12.5q-17 0 -30 12.5t-13 31.5t13 31.5t31 12.5t30 -12.5t12 -31.5z" />
<glyph unicode="&#xd0;" horiz-adv-x="748" d="M128 139v177q0 15 -15 15h-70q-12 0 -15.5 4.5t-3.5 16.5q0 20 19 20h70q15 0 15 15v126q0 77 -9 92q-13 22 -49 22q-3 0 -12 -0.5t-11 -0.5q-13 0 -13 18q0 19 14 19q3 0 21.5 -1.5t46.5 -2.5t55 -1q20 0 59.5 1.5t57.5 1.5q166 0 254 -40q76 -35 116 -107.5t40 -168.5 q0 -176 -103.5 -261.5t-280.5 -85.5q-33 0 -81.5 2t-61.5 2q-27 0 -54 -1t-44.5 -2t-20.5 -1q-18 0 -18 18q0 19 13 19q1 0 7 -0.5t9 -0.5q44 0 55 20q10 22 10 85zM196 141q0 -61 18 -78q21 -19 131 -19q124 0 200.5 70.5t76.5 211.5q0 70 -22 130.5t-63 97.5 q-42 38 -106 51.5t-161 13.5q-55 0 -65 -11q-9 -9 -9 -50v-171q0 -15 15 -15h182q11 0 14.5 -4t3.5 -15q0 -13 -4 -17.5t-16 -4.5h-180q-15 0 -15 -15v-175z" />
<glyph unicode="&#xd1;" horiz-adv-x="791" d="M179 139q1 -68 16 -88q14 -17 51 -17q1 0 10 0.5t12 0.5q13 0 13 -20q0 -17 -13 -17q-3 0 -18 1.5t-40 3t-52 1.5t-52 -1.5t-40 -3t-18 -1.5q-14 0 -14 19q0 18 13 18q2 0 8.5 -0.5t9.5 -0.5q43 0 54 20q10 18 11 85q4 204 4 378q0 69 -13 86q-20 24 -60 24 q-3 0 -10 -0.5t-9 -0.5q-13 0 -13 18q0 19 16 19q3 0 29 -2t42 -2q18 0 39.5 2t25.5 2q15 0 26 -16q30 -40 85 -109.5t83 -105.5q131 -167 229 -283q7 -9 12 -9t5 8q1 43 1 126q0 4 -0.5 101.5t-2.5 138.5q-3 78 -11 93q-11 20 -53 20q-3 0 -12.5 -0.5t-11.5 -0.5 q-14 0 -14 17q0 20 15 20q2 0 19 -1.5t44.5 -3t54.5 -1.5t49.5 1.5t35.5 3t15 1.5q15 0 15 -18q0 -19 -14 -19q-1 0 -10 0.5t-12 0.5q-35 0 -47 -17q-15 -19 -15 -96q0 -13 -0.5 -73t-0.5 -107q0 -69 0.5 -127t1.5 -92.5t2 -58t1.5 -36t0.5 -14.5q0 -19 -25 -19q-10 0 -16 9 q-34 48 -72 94q-67 81 -202.5 251t-160.5 201q-8 8 -12 8q-6 0 -6 -9q-1 -61 -1 -201q0 -71 2 -201zM426 795q39 -20 64 -20q28 0 38 41q4 12 15 12q16 0 16 -14q0 -5 -3 -14q-11 -43 -28 -62.5t-44 -19.5q-34 0 -76 23t-70 23q-29 0 -45 -43q-3 -9 -14 -9q-16 0 -16 13 q0 7 4 19q26 78 83 78q24 0 76 -27z" />
<glyph unicode="&#xd2;" horiz-adv-x="752" d="M703 341q0 -157 -87 -255.5t-241 -98.5q-145 0 -235 92.5t-90 240.5q0 153 93.5 253t240.5 100q145 0 232 -91t87 -241zM627 323q0 139 -72.5 223.5t-180.5 84.5q-111 0 -179.5 -81.5t-68.5 -221.5q0 -137 73 -218t182 -81q110 0 178 78t68 216zM313 796q-26 18 -26 37 q0 15 9.5 23.5t22.5 8.5q18 0 41 -22q38 -37 117 -106q11 -11 11 -18q0 -6 -4.5 -10.5t-10.5 -4.5q-9 0 -24 9q-93 51 -136 83z" />
<glyph unicode="&#xd3;" horiz-adv-x="752" d="M703 341q0 -157 -87 -255.5t-241 -98.5q-145 0 -235 92.5t-90 240.5q0 153 93.5 253t240.5 100q145 0 232 -91t87 -241zM627 323q0 139 -72.5 223.5t-180.5 84.5q-111 0 -179.5 -81.5t-68.5 -221.5q0 -137 73 -218t182 -81q110 0 178 78t68 216zM483 796 q-43 -32 -136 -83q-15 -9 -24 -9q-5 0 -10 4.5t-5 10.5q0 7 11 18q65 57 117 106q23 22 41 22q13 0 22.5 -8.5t9.5 -23.5q0 -19 -26 -37z" />
<glyph unicode="&#xd4;" horiz-adv-x="752" d="M703 341q0 -157 -87 -255.5t-241 -98.5q-145 0 -235 92.5t-90 240.5q0 153 93.5 253t240.5 100q145 0 232 -91t87 -241zM627 323q0 139 -72.5 223.5t-180.5 84.5q-111 0 -179.5 -81.5t-68.5 -221.5q0 -137 73 -218t182 -81q110 0 178 78t68 216zM512 707q0 -5 -5 -9.5 t-10 -4.5q-7 0 -18 8q-2 1 -20 15.5t-40 32t-34 27.5q-6 5 -12 5q-5 0 -11 -6q-76 -60 -97 -75q-8 -7 -17 -7q-5 0 -9.5 4.5t-4.5 9.5t5 12q11 11 29 31.5t43.5 50t40.5 45.5q10 13 22 13t21 -12q25 -29 65.5 -75.5t45.5 -52.5q6 -7 6 -12z" />
<glyph unicode="&#xd5;" horiz-adv-x="752" d="M703 341q0 -157 -87 -255.5t-241 -98.5q-145 0 -235 92.5t-90 240.5q0 153 93.5 253t240.5 100q145 0 232 -91t87 -241zM627 323q0 139 -72.5 223.5t-180.5 84.5q-111 0 -179.5 -81.5t-68.5 -221.5q0 -137 73 -218t182 -81q110 0 178 78t68 216zM387 795q39 -20 64 -20 q28 0 38 41q4 12 15 12q16 0 16 -14q0 -5 -3 -14q-11 -43 -28 -62.5t-44 -19.5q-34 0 -76 23t-70 23q-29 0 -45 -43q-3 -9 -14 -9q-16 0 -16 13q0 7 4 19q26 78 83 78q24 0 76 -27z" />
<glyph unicode="&#xd6;" horiz-adv-x="752" d="M703 341q0 -157 -87 -255.5t-241 -98.5q-145 0 -235 92.5t-90 240.5q0 153 93.5 253t240.5 100q145 0 232 -91t87 -241zM627 323q0 139 -72.5 223.5t-180.5 84.5q-111 0 -179.5 -81.5t-68.5 -221.5q0 -137 73 -218t182 -81q110 0 178 78t68 216zM338 748q0 -19 -12 -31.5 t-31 -12.5q-17 0 -29.5 12t-12.5 32q0 19 12.5 31.5t30.5 12.5t30 -12.5t12 -31.5zM497 748q0 -19 -12 -31.5t-31 -12.5q-17 0 -30 12.5t-13 31.5t13 31.5t31 12.5t30 -12.5t12 -31.5z" />
<glyph unicode="&#xd7;" horiz-adv-x="642" d="M505 129q5 -5 5 -10t-4 -9l-23 -23q-4 -5 -10 -5t-10 4l-143 143l-142 -143q-4 -4 -10 -4q-5 0 -9 5l-20 19q-4 4 -4 10q0 5 4 9l141 143l-143 143q-5 7 -5 9q0 5 5 10l23 24q6 4 9 4q4 0 10 -4l144 -143l142 142q4 4 10 4q5 0 10 -4l19 -20q5 -5 5 -9q0 -5 -5 -10 l-142 -142z" />
<glyph unicode="&#xd8;" horiz-adv-x="752" d="M154 45l-54 -66q-8 -8 -15 -8q-6 0 -14.5 7t-8.5 13q0 8 6 14l57 69q4 4 4 10q0 5 -4 11q-75 91 -75 225q0 153 93.5 253t240.5 100q104 0 180 -48q3 -3 8 -3q6 0 12 6l55 66q7 8 15 8q6 0 14 -6.5t9 -13.5q0 -6 -7 -16l-54 -65q-4 -4 -4 -10t5 -11q86 -89 86 -239 q0 -157 -87 -255.5t-241 -98.5q-116 0 -199 61q-5 3 -10 3q-6 0 -12 -6zM627 323q0 120 -56 200q-5 6 -9 6q-6 0 -11 -6l-338 -408q-4 -4 -4 -10t5 -11q70 -65 167 -65q110 0 178 78t68 216zM126 328q0 -102 43 -177q3 -7 9 -7q4 0 11 7l336 406q3 5 3 9q0 6 -6 12 q-60 53 -148 53q-111 0 -179.5 -81.5t-68.5 -221.5z" />
<glyph unicode="&#xd9;" horiz-adv-x="763" d="M643 247q0 -127 -62.5 -194t-200.5 -67q-139 0 -202 63.5t-63 188.5q0 22 0.5 113.5t0.5 169.5q0 67 -12 87q-12 19 -50 19q-3 0 -10.5 -0.5t-9.5 -0.5q-12 0 -12 17q0 20 16 20q3 0 20 -1.5t43.5 -3t53.5 -1.5t53.5 1.5t42.5 3t19 1.5q14 0 14 -18q0 -19 -13 -19 q-1 0 -8 0.5t-9 0.5q-43 0 -55 -16q-15 -20 -15 -92q0 -188 2 -264q2 -116 49 -168.5t149 -52.5q57 0 97 14t62.5 35.5t35 58.5t16 72.5t3.5 88.5q0 148 -2 218q-3 72 -12 87q-12 19 -53 19q-2 0 -11.5 -0.5t-11.5 -0.5q-11 0 -11 17q0 20 14 20q3 0 45.5 -3t67.5 -3 q24 0 61 3t38 3q18 0 18 -18q0 -19 -16 -19q-2 0 -10.5 0.5t-10.5 0.5q-31 -1 -46 -18q-16 -18 -16 -89q0 -18 0.5 -130t0.5 -143zM297 796q-26 18 -26 37q0 15 9.5 23.5t22.5 8.5q18 0 41 -22q38 -37 117 -106q11 -11 11 -18q0 -6 -4.5 -10.5t-10.5 -4.5q-9 0 -24 9 q-93 51 -136 83z" />
<glyph unicode="&#xda;" horiz-adv-x="763" d="M643 247q0 -127 -62.5 -194t-200.5 -67q-139 0 -202 63.5t-63 188.5q0 22 0.5 113.5t0.5 169.5q0 67 -12 87q-12 19 -50 19q-3 0 -10.5 -0.5t-9.5 -0.5q-12 0 -12 17q0 20 16 20q3 0 20 -1.5t43.5 -3t53.5 -1.5t53.5 1.5t42.5 3t19 1.5q14 0 14 -18q0 -19 -13 -19 q-1 0 -8 0.5t-9 0.5q-43 0 -55 -16q-15 -20 -15 -92q0 -188 2 -264q2 -116 49 -168.5t149 -52.5q57 0 97 14t62.5 35.5t35 58.5t16 72.5t3.5 88.5q0 148 -2 218q-3 72 -12 87q-12 19 -53 19q-2 0 -11.5 -0.5t-11.5 -0.5q-11 0 -11 17q0 20 14 20q3 0 45.5 -3t67.5 -3 q24 0 61 3t38 3q18 0 18 -18q0 -19 -16 -19q-2 0 -10.5 0.5t-10.5 0.5q-31 -1 -46 -18q-16 -18 -16 -89q0 -18 0.5 -130t0.5 -143zM492 796q-43 -32 -136 -83q-15 -9 -24 -9q-5 0 -10 4.5t-5 10.5q0 7 11 18q65 57 117 106q23 22 41 22q13 0 22.5 -8.5t9.5 -23.5 q0 -19 -26 -37z" />
<glyph unicode="&#xdb;" horiz-adv-x="763" d="M643 247q0 -127 -62.5 -194t-200.5 -67q-139 0 -202 63.5t-63 188.5q0 22 0.5 113.5t0.5 169.5q0 67 -12 87q-12 19 -50 19q-3 0 -10.5 -0.5t-9.5 -0.5q-12 0 -12 17q0 20 16 20q3 0 20 -1.5t43.5 -3t53.5 -1.5t53.5 1.5t42.5 3t19 1.5q14 0 14 -18q0 -19 -13 -19 q-1 0 -8 0.5t-9 0.5q-43 0 -55 -16q-15 -20 -15 -92q0 -188 2 -264q2 -116 49 -168.5t149 -52.5q57 0 97 14t62.5 35.5t35 58.5t16 72.5t3.5 88.5q0 148 -2 218q-3 72 -12 87q-12 19 -53 19q-2 0 -11.5 -0.5t-11.5 -0.5q-11 0 -11 17q0 20 14 20q3 0 45.5 -3t67.5 -3 q24 0 61 3t38 3q18 0 18 -18q0 -19 -16 -19q-2 0 -10.5 0.5t-10.5 0.5q-31 -1 -46 -18q-16 -18 -16 -89q0 -18 0.5 -130t0.5 -143zM530 707q0 -5 -5 -9.5t-10 -4.5q-7 0 -18 8q-2 1 -20 15.5t-40 32t-34 27.5q-6 5 -12 5q-5 0 -11 -6q-76 -60 -97 -75q-8 -7 -17 -7 q-5 0 -9.5 4.5t-4.5 9.5t5 12q11 11 29 31.5t43.5 50t40.5 45.5q10 13 22 13t21 -12q25 -29 65.5 -75.5t45.5 -52.5q6 -7 6 -12z" />
<glyph unicode="&#xdc;" horiz-adv-x="763" d="M643 247q0 -127 -62.5 -194t-200.5 -67q-139 0 -202 63.5t-63 188.5q0 22 0.5 113.5t0.5 169.5q0 67 -12 87q-12 19 -50 19q-3 0 -10.5 -0.5t-9.5 -0.5q-12 0 -12 17q0 20 16 20q3 0 20 -1.5t43.5 -3t53.5 -1.5t53.5 1.5t42.5 3t19 1.5q14 0 14 -18q0 -19 -13 -19 q-1 0 -8 0.5t-9 0.5q-43 0 -55 -16q-15 -20 -15 -92q0 -188 2 -264q2 -116 49 -168.5t149 -52.5q57 0 97 14t62.5 35.5t35 58.5t16 72.5t3.5 88.5q0 148 -2 218q-3 72 -12 87q-12 19 -53 19q-2 0 -11.5 -0.5t-11.5 -0.5q-11 0 -11 17q0 20 14 20q3 0 45.5 -3t67.5 -3 q24 0 61 3t38 3q18 0 18 -18q0 -19 -16 -19q-2 0 -10.5 0.5t-10.5 0.5q-31 -1 -46 -18q-16 -18 -16 -89q0 -18 0.5 -130t0.5 -143zM347 748q0 -19 -12 -31.5t-31 -12.5q-17 0 -29.5 12t-12.5 32q0 19 12.5 31.5t30.5 12.5t30 -12.5t12 -31.5zM506 748q0 -19 -12 -31.5 t-31 -12.5q-17 0 -30 12.5t-13 31.5t13 31.5t31 12.5t30 -12.5t12 -31.5z" />
<glyph unicode="&#xdd;" horiz-adv-x="660" d="M369 265v-122q0 -75 14 -92t49 -17q2 0 9 0.5t8 0.5q15 0 15 -19q0 -18 -15 -18q-3 0 -18.5 1.5t-40.5 3t-52 1.5t-55 -1.5t-45.5 -3t-19.5 -1.5q-13 0 -13 20q0 17 13 17q1 0 7.5 -0.5t9.5 -0.5q45 0 55 20q10 18 10 90v110q0 19 -2 25q-4 10 -11 23l-117 189 q-47 77 -81 119q-12 16 -44 16q-3 0 -9 -0.5t-8 -0.5q-13 0 -13 19t16 19q4 0 19 -1.5t40.5 -3t53.5 -1.5q20 0 67.5 3t50.5 3q15 0 15 -19q0 -18 -16 -18q-4 0 -17.5 0.5t-18.5 0.5q-35 0 -35 -21q0 -3 0.5 -7t2 -8.5t3 -8t5 -10t6 -11t8 -13.5t9 -15l10.5 -18t12 -20 l75 -123q16 -27 23 -27q8 0 24 25l77 126q49 79 49 109q0 22 -46 22q-10 0 -18.5 -0.5t-10.5 -0.5q-15 0 -15 18q0 19 15 19l36 -3q36 -3 75 -3t69 3t31 3q16 0 16 -19q0 -18 -13 -18q-2 0 -8 0.5t-9 0.5q-22 0 -42 -18q-15 -14 -77 -112l-119 -192q-6 -8 -8 -19 q-1 -5 -1 -21zM455 796q-43 -32 -136 -83q-15 -9 -24 -9q-5 0 -10 4.5t-5 10.5q0 7 11 18q65 57 117 106q23 22 41 22q13 0 22.5 -8.5t9.5 -23.5q0 -19 -26 -37z" />
<glyph unicode="&#xde;" horiz-adv-x="575" d="M196 135q0 -67 14 -84t56 -17q2 0 9.5 0.5t8.5 0.5q15 0 15 -18q0 -19 -15 -19q-3 0 -20.5 1.5t-45 3t-53.5 1.5q-27 0 -54 -1.5t-44 -3t-19 -1.5q-14 0 -14 19q0 18 13 18q1 0 7.5 -0.5t9.5 -0.5q45 0 54 20q10 18 10 89v376q0 72 -10 88q-11 20 -51 20q-3 0 -11 -0.5 t-9 -0.5q-13 0 -13 17q0 20 15 20q3 0 20.5 -1.5t44.5 -3t54 -1.5t53 1.5t41.5 3t18.5 1.5q15 0 15 -18q0 -19 -14 -19q-2 0 -8 0.5t-8 0.5q-42 0 -57 -18q-12 -16 -12 -60q0 -25 14 -25q11 0 39 1t39 1q238 0 238 -173q0 -38 -11 -70t-37.5 -63.5t-81 -49.5t-132.5 -18 q-11 0 -29.5 1t-21.5 1q-10 0 -14 -3.5t-4 -15.5zM196 233q0 -27 13 -34q10 -7 47 -7q106 0 150 37.5t44 113.5q0 72 -43.5 107.5t-137.5 35.5q-34 0 -55 -3q-18 -2 -18 -25v-225z" />
<glyph unicode="&#xdf;" horiz-adv-x="574" d="M184 130q0 -75 5 -90q5 -20 5 -23q0 -18 -15 -18q-2 0 -16.5 1.5t-27.5 1.5q-33 0 -57 -2l-24 -2q-13 0 -13 19q0 17 12 17q2 0 9 -0.5t11 -0.5q33 0 42 19q9 20 9 79v256q0 9 -3.5 12.5t-13.5 3.5q-17 0 -33.5 -1t-17.5 -1q-12 0 -12 22q0 13 13 15q39 6 51 21 q15 16 17 74q4 93 24 143.5t59 84.5q46 42 125 42q46 0 78.5 -14t48.5 -37t23 -46t7 -47q0 -106 -109 -203q-45 -40 -45 -62q0 -15 16.5 -32t79.5 -70q60 -50 82.5 -84t22.5 -77q0 -66 -44 -106t-112 -40q-80 0 -120 29q-11 8 -13 24q-6 57 -6 60q0 20 21 20q16 0 18 -17 q5 -32 20 -50q24 -30 85 -30q42 0 67 24.5t25 63.5t-23 68t-79 72q-54 43 -74.5 69.5t-20.5 53.5q0 25 13 45.5t43 50.5q90 91 90 187q0 46 -25 78.5t-71 32.5q-78 0 -116 -77q-31 -60 -31 -231v-328z" />
<glyph unicode="&#xe0;" horiz-adv-x="483" d="M299 34q-48 -48 -118 -48q-57 0 -94 34t-37 82q0 55 44 82q45 26 184 51q23 4 31 10.5t8 23.5q0 93 -19 122q-18 27 -67 27q-30 0 -59.5 -21t-29.5 -46q0 -11 3.5 -23t3.5 -19q0 -16 -11 -24.5t-27 -8.5q-38 0 -38 42q0 37 45 77q80 69 154 69q62 0 88 -39q18 -26 18 -92 q0 -22 -1.5 -99t-1.5 -115q0 -85 44 -85q22 0 29 20q4 13 18 13q15 0 15 -15q0 -11 -11 -25q-33 -38 -78 -38q-49 0 -68 47q-3 10 -9 10q-4 0 -16 -12zM317 192q-1 14 -15 14q-13 0 -30 -4q-69 -14 -103 -26q-53 -21 -53 -67q0 -30 24 -52.5t68 -22.5q49 0 88 36 q22 20 22 74q0 36 -1 48zM154 645q-17 21 -17 35t10 22.5t25 8.5q23 0 38 -29q27 -51 79 -128q7 -11 7 -17q0 -13 -16 -13q-8 0 -21 13q-73 72 -105 108z" />
<glyph unicode="&#xe1;" horiz-adv-x="483" d="M299 34q-48 -48 -118 -48q-57 0 -94 34t-37 82q0 55 44 82q45 26 184 51q23 4 31 10.5t8 23.5q0 93 -19 122q-18 27 -67 27q-30 0 -59.5 -21t-29.5 -46q0 -11 3.5 -23t3.5 -19q0 -16 -11 -24.5t-27 -8.5q-38 0 -38 42q0 37 45 77q80 69 154 69q62 0 88 -39q18 -26 18 -92 q0 -22 -1.5 -99t-1.5 -115q0 -85 44 -85q22 0 29 20q4 13 18 13q15 0 15 -15q0 -11 -11 -25q-33 -38 -78 -38q-49 0 -68 47q-3 10 -9 10q-4 0 -16 -12zM317 192q-1 14 -15 14q-13 0 -30 -4q-69 -14 -103 -26q-53 -21 -53 -67q0 -30 24 -52.5t68 -22.5q49 0 88 36 q22 20 22 74q0 36 -1 48zM339 645q-32 -36 -105 -108q-13 -13 -21 -13q-16 0 -16 13q0 7 7 17q62 97 79 128q15 29 37 29q36 0 36 -29q0 -16 -17 -37z" />
<glyph unicode="&#xe2;" horiz-adv-x="483" d="M299 34q-48 -48 -118 -48q-57 0 -94 34t-37 82q0 55 44 82q45 26 184 51q23 4 31 10.5t8 23.5q0 93 -19 122q-18 27 -67 27q-30 0 -59.5 -21t-29.5 -46q0 -11 3.5 -23t3.5 -19q0 -16 -11 -24.5t-27 -8.5q-38 0 -38 42q0 37 45 77q80 69 154 69q62 0 88 -39q18 -26 18 -92 q0 -22 -1.5 -99t-1.5 -115q0 -85 44 -85q22 0 29 20q4 13 18 13q15 0 15 -15q0 -11 -11 -25q-33 -38 -78 -38q-49 0 -68 47q-3 10 -9 10q-4 0 -16 -12zM317 192q-1 14 -15 14q-13 0 -30 -4q-69 -14 -103 -26q-53 -21 -53 -67q0 -30 24 -52.5t68 -22.5q49 0 88 36 q22 20 22 74q0 36 -1 48zM136 524q-5 0 -10.5 4.5t-5.5 8.5q0 7 4 12q57 85 94 150q9 16 23 16t21 -13q19 -32 55 -90t38 -61q5 -8 5 -12q0 -6 -5.5 -10.5t-12.5 -4.5q-8 0 -16 8q-29 31 -76 88q-6 7 -11 7q-4 0 -10 -8q-50 -59 -80 -88q-7 -7 -13 -7z" />
<glyph unicode="&#xe3;" horiz-adv-x="483" d="M299 34q-48 -48 -118 -48q-57 0 -94 34t-37 82q0 55 44 82q45 26 184 51q23 4 31 10.5t8 23.5q0 93 -19 122q-18 27 -67 27q-30 0 -59.5 -21t-29.5 -46q0 -11 3.5 -23t3.5 -19q0 -16 -11 -24.5t-27 -8.5q-38 0 -38 42q0 37 45 77q80 69 154 69q62 0 88 -39q18 -26 18 -92 q0 -22 -1.5 -99t-1.5 -115q0 -85 44 -85q22 0 29 20q4 13 18 13q15 0 15 -15q0 -11 -11 -25q-33 -38 -78 -38q-49 0 -68 47q-3 10 -9 10q-4 0 -16 -12zM317 192q-1 14 -15 14q-13 0 -30 -4q-69 -14 -103 -26q-53 -21 -53 -67q0 -30 24 -52.5t68 -22.5q49 0 88 36 q22 20 22 74q0 36 -1 48zM255 626q39 -20 60 -20t33 39q3 13 15 13q15 0 15 -14q0 -3 -3 -15q-11 -42 -27.5 -61t-44.5 -19q-26 0 -66 22q-41 23 -60 23q-16 0 -25.5 -9t-18.5 -32q-3 -10 -15 -10q-15 0 -15 13q0 7 4 19q15 46 34 62t43 16q19 0 71 -27z" />
<glyph unicode="&#xe4;" horiz-adv-x="483" d="M299 34q-48 -48 -118 -48q-57 0 -94 34t-37 82q0 55 44 82q45 26 184 51q23 4 31 10.5t8 23.5q0 93 -19 122q-18 27 -67 27q-30 0 -59.5 -21t-29.5 -46q0 -11 3.5 -23t3.5 -19q0 -16 -11 -24.5t-27 -8.5q-38 0 -38 42q0 37 45 77q80 69 154 69q62 0 88 -39q18 -26 18 -92 q0 -22 -1.5 -99t-1.5 -115q0 -85 44 -85q22 0 29 20q4 13 18 13q15 0 15 -15q0 -11 -11 -25q-33 -38 -78 -38q-49 0 -68 47q-3 10 -9 10q-4 0 -16 -12zM317 192q-1 14 -15 14q-13 0 -30 -4q-69 -14 -103 -26q-53 -21 -53 -67q0 -30 24 -52.5t68 -22.5q49 0 88 36 q22 20 22 74q0 36 -1 48zM212 606q0 -19 -12.5 -31t-30.5 -12t-30.5 12t-12.5 31t13 31.5t31 12.5t30 -12t12 -32zM362 606q0 -19 -12.5 -31t-30.5 -12q-17 0 -30.5 12t-13.5 31t13.5 31.5t31.5 12.5t30 -12t12 -32z" />
<glyph unicode="&#xe5;" horiz-adv-x="483" d="M299 34q-48 -48 -118 -48q-57 0 -94 34t-37 82q0 55 44 82q45 26 184 51q23 4 31 10.5t8 23.5q0 93 -19 122q-18 27 -67 27q-30 0 -59.5 -21t-29.5 -46q0 -11 3.5 -23t3.5 -19q0 -16 -11 -24.5t-27 -8.5q-38 0 -38 42q0 37 45 77q80 69 154 69q62 0 88 -39q18 -26 18 -92 q0 -22 -1.5 -99t-1.5 -115q0 -85 44 -85q22 0 29 20q4 13 18 13q15 0 15 -15q0 -11 -11 -25q-33 -38 -78 -38q-49 0 -68 47q-3 10 -9 10q-4 0 -16 -12zM317 192q-1 14 -15 14q-13 0 -30 -4q-69 -14 -103 -26q-53 -21 -53 -67q0 -30 24 -52.5t68 -22.5q49 0 88 36 q22 20 22 74q0 36 -1 48zM335 608q0 -42 -26.5 -68t-66.5 -26q-42 0 -67 25t-25 65t27 66.5t66 26.5q42 0 67 -24t25 -65zM300 605q0 29 -16 46t-42 17q-23 0 -39.5 -17.5t-16.5 -45.5q0 -26 16.5 -43.5t39.5 -17.5q25 0 41.5 17t16.5 44z" />
<glyph unicode="&#xe6;" horiz-adv-x="743" d="M353 66q-8 0 -15 -10q-68 -70 -154 -70q-60 0 -97 33.5t-37 82.5q0 55 44 82q45 26 184 51q23 4 31 10.5t8 23.5q0 98 -18 122q-20 28 -66 28q-37 0 -65 -20t-28 -48q0 -11 4 -23t4 -19q0 -16 -11.5 -24.5t-27.5 -8.5q-38 0 -38 42q0 36 45 78q77 68 151 68q57 0 83 -36 q8 -11 15 -32q3 -8 7 -8q3 0 8 6q55 70 151 70q87 0 129 -46.5t42 -117.5q0 -29 -32 -32q-53 -5 -275 -5q-17 0 -17 -34q0 -89 46 -142t118 -53q47 0 79 18.5t43 45.5q0 1 7 24q5 21 19 21q20 0 20 -21q0 -19 -16 -48q-18 -35 -61.5 -61.5t-109.5 -26.5q-105 0 -156 69 q-9 11 -14 11zM329 128q0 14 -7 56q-4 22 -16 22t-32 -4q-80 -17 -104 -26q-54 -21 -54 -66q0 -31 24 -53.5t68 -22.5q32 0 62 17t48 42q11 16 11 35zM387 307q0 -10 14 -10q163 0 200 5q27 5 27 28q0 99 -109 99q-40 0 -72.5 -22t-49.5 -62q-9 -19 -10 -38z" />
<glyph unicode="&#xe7;" horiz-adv-x="462" d="M326 -139q0 -54 -48.5 -85.5t-104.5 -31.5q-21 0 -21 18q0 19 26 19q40 0 65.5 16.5t25.5 48.5q0 35 -52 49q-15 4 -15 18q0 8 9 30q2 6 7 15.5t6 12.5q2 6 2 8q0 9 -12 11q-82 14 -125 75.5t-43 145.5q0 112 64.5 182.5t165.5 70.5q93 0 129 -47q17 -22 17 -55 q0 -44 -44 -44q-34 0 -36 30q-1 9 -1 31t-22.5 35.5t-58.5 13.5q-64 0 -105.5 -50.5t-41.5 -131.5q0 -103 46.5 -157.5t118.5 -54.5q42 0 73 19t44 50q3 7 5 29q4 16 19 16q20 0 20 -18q0 -11 -8 -35q-14 -37 -52.5 -70t-102.5 -38q-13 -1 -19 -15q-8 -19 -8 -24 q0 -9 11 -13q66 -20 66 -74z" />
<glyph unicode="&#xe8;" horiz-adv-x="478" d="M407 268q-53 -5 -280 -5q-16 0 -16 -34q0 -89 46.5 -142t119.5 -53q47 0 79 18.5t44 45.5q5 11 7 24q3 21 19 21q20 0 20 -21q0 -19 -16 -48q-19 -35 -63 -61.5t-112 -26.5q-97 0 -152.5 65t-55.5 161q0 113 59.5 182.5t156.5 69.5q88 0 132 -47t44 -117q0 -29 -32 -32z M122 307q0 -10 13 -10q165 0 203 5q27 5 27 28q0 47 -28.5 73t-84.5 26q-38 0 -71 -22t-49 -62q-9 -19 -10 -38zM156 645q-17 21 -17 35t10 22.5t25 8.5q23 0 38 -29q27 -51 79 -128q7 -11 7 -17q0 -13 -16 -13q-8 0 -21 13q-73 72 -105 108z" />
<glyph unicode="&#xe9;" horiz-adv-x="478" d="M407 268q-53 -5 -280 -5q-16 0 -16 -34q0 -89 46.5 -142t119.5 -53q47 0 79 18.5t44 45.5q5 11 7 24q3 21 19 21q20 0 20 -21q0 -19 -16 -48q-19 -35 -63 -61.5t-112 -26.5q-97 0 -152.5 65t-55.5 161q0 113 59.5 182.5t156.5 69.5q88 0 132 -47t44 -117q0 -29 -32 -32z M122 307q0 -10 13 -10q165 0 203 5q27 5 27 28q0 47 -28.5 73t-84.5 26q-38 0 -71 -22t-49 -62q-9 -19 -10 -38zM345 645q-32 -36 -105 -108q-13 -13 -21 -13q-16 0 -16 13q0 7 7 17q62 97 79 128q15 29 37 29q36 0 36 -29q0 -16 -17 -37z" />
<glyph unicode="&#xea;" horiz-adv-x="478" d="M407 268q-53 -5 -280 -5q-16 0 -16 -34q0 -89 46.5 -142t119.5 -53q47 0 79 18.5t44 45.5q5 11 7 24q3 21 19 21q20 0 20 -21q0 -19 -16 -48q-19 -35 -63 -61.5t-112 -26.5q-97 0 -152.5 65t-55.5 161q0 113 59.5 182.5t156.5 69.5q88 0 132 -47t44 -117q0 -29 -32 -32z M122 307q0 -10 13 -10q165 0 203 5q27 5 27 28q0 47 -28.5 73t-84.5 26q-38 0 -71 -22t-49 -62q-9 -19 -10 -38zM154 524q-5 0 -10.5 4.5t-5.5 8.5q0 7 4 12q57 85 94 150q9 16 23 16t21 -13q19 -32 55 -90t38 -61q5 -8 5 -12q0 -6 -5.5 -10.5t-12.5 -4.5q-8 0 -16 8 q-29 31 -76 88q-6 7 -11 7q-4 0 -10 -8q-50 -59 -80 -88q-7 -7 -13 -7z" />
<glyph unicode="&#xeb;" horiz-adv-x="478" d="M407 268q-53 -5 -280 -5q-16 0 -16 -34q0 -89 46.5 -142t119.5 -53q47 0 79 18.5t44 45.5q5 11 7 24q3 21 19 21q20 0 20 -21q0 -19 -16 -48q-19 -35 -63 -61.5t-112 -26.5q-97 0 -152.5 65t-55.5 161q0 113 59.5 182.5t156.5 69.5q88 0 132 -47t44 -117q0 -29 -32 -32z M122 307q0 -10 13 -10q165 0 203 5q27 5 27 28q0 47 -28.5 73t-84.5 26q-38 0 -71 -22t-49 -62q-9 -19 -10 -38zM221 606q0 -19 -12.5 -31t-30.5 -12t-30.5 12t-12.5 31t13 31.5t31 12.5t30 -12t12 -32zM371 606q0 -19 -12.5 -31t-30.5 -12q-17 0 -30.5 12t-13.5 31 t13.5 31.5t31.5 12.5t30 -12t12 -32z" />
<glyph unicode="&#xec;" horiz-adv-x="295" d="M56 645q-17 21 -17 35t10 22.5t25 8.5q23 0 38 -29q27 -51 79 -128q7 -11 7 -17q0 -13 -16 -13q-8 0 -21 13q-73 72 -105 108zM180 134q0 -71 11 -85q12 -16 47 -16q4 0 9.5 0.5t6.5 0.5q15 0 15 -18t-15 -18q-2 0 -16 1t-37.5 2.5t-50.5 1.5t-49 -1t-34 -2.5t-15 -1.5 q-13 0 -13 19q0 17 14 17q2 0 8.5 -0.5t9.5 -0.5q32 0 40 18q11 20 11 81v132q0 69 -13 92q-9 19 -54 30q-11 3 -11 15q0 11 8 13q46 16 100 51q10 7 19 7q13 0 13 -16q0 -18 -1 -30q-3 -53 -3 -152v-140z" />
<glyph unicode="&#xed;" horiz-adv-x="295" d="M219 645q-32 -36 -105 -108q-13 -13 -21 -13q-16 0 -16 13q0 7 7 17q62 97 79 128q15 29 37 29q36 0 36 -29q0 -16 -17 -37zM180 134q0 -71 11 -85q12 -16 47 -16q4 0 9.5 0.5t6.5 0.5q15 0 15 -18t-15 -18q-2 0 -16 1t-37.5 2.5t-50.5 1.5t-49 -1t-34 -2.5t-15 -1.5 q-13 0 -13 19q0 17 14 17q2 0 8.5 -0.5t9.5 -0.5q32 0 40 18q11 20 11 81v132q0 69 -13 92q-9 19 -54 30q-11 3 -11 15q0 11 8 13q46 16 100 51q10 7 19 7q13 0 13 -16q0 -18 -1 -30q-3 -53 -3 -152v-140z" />
<glyph unicode="&#xee;" horiz-adv-x="295" d="M180 134q0 -71 11 -85q12 -16 47 -16q4 0 9.5 0.5t6.5 0.5q15 0 15 -18t-15 -18q-2 0 -16 1t-37.5 2.5t-50.5 1.5t-49 -1t-34 -2.5t-15 -1.5q-13 0 -13 19q0 17 14 17q2 0 8.5 -0.5t9.5 -0.5q32 0 40 18q11 20 11 81v132q0 69 -13 92q-9 19 -54 30q-11 3 -11 15 q0 11 8 13q46 16 100 51q10 7 19 7q13 0 13 -16q0 -18 -1 -30q-3 -53 -3 -152v-140zM36 524q-5 0 -10.5 4.5t-5.5 8.5q0 7 4 12q57 85 94 150q9 16 23 16t21 -13q19 -32 55 -90t38 -61q5 -8 5 -12q0 -6 -5.5 -10.5t-12.5 -4.5q-8 0 -16 8q-29 31 -76 88q-6 7 -11 7 q-4 0 -10 -8q-50 -59 -80 -88q-7 -7 -13 -7z" />
<glyph unicode="&#xef;" horiz-adv-x="295" d="M106 606q0 -19 -12.5 -31t-30.5 -12t-30.5 12t-12.5 31t13 31.5t31 12.5t30 -12t12 -32zM256 606q0 -19 -12.5 -31t-30.5 -12q-17 0 -30.5 12t-13.5 31t13.5 31.5t31.5 12.5t30 -12t12 -32zM180 134q0 -71 11 -85q12 -16 47 -16q4 0 9.5 0.5t6.5 0.5q15 0 15 -18t-15 -18 q-2 0 -16 1t-37.5 2.5t-50.5 1.5t-49 -1t-34 -2.5t-15 -1.5q-13 0 -13 19q0 17 14 17q2 0 8.5 -0.5t9.5 -0.5q32 0 40 18q11 20 11 81v132q0 69 -13 92q-9 19 -54 30q-11 3 -11 15q0 11 8 13q46 16 100 51q10 7 19 7q13 0 13 -16q0 -18 -1 -30q-3 -53 -3 -152v-140z" />
<glyph unicode="&#xf0;" horiz-adv-x="552" d="M507 260q0 -117 -60 -195.5t-176 -78.5q-103 0 -164 67t-61 165q0 114 68 179.5t168 65.5q73 0 125 -45q7 -7 12 -7q6 0 6 11q0 8 -2 18q-18 110 -75 182q-3 5 -9 5q-1 0 -7 -2l-95 -53q-7 -4 -12 -4q-8 0 -13 8.5t-5 16.5q0 7 9 11l89 50q6 4 6 9q0 6 -3 9 q-28 37 -80 69q-25 16 -50 25q-16 6 -16 14q0 24 17 24q13 0 49 -16q62 -25 132 -88q4 -4 10 -4q3 0 7 2l69 40q7 4 12 4q7 0 12 -8t5 -16q0 -9 -10 -14l-61 -33q-7 -4 -7 -9q0 -2 2 -6q52 -77 80 -166t28 -230zM437 228q0 95 -44 148t-119 53q-72 0 -114 -52t-42 -143 q0 -97 44.5 -155t115.5 -58q73 0 116 55.5t43 151.5z" />
<glyph unicode="&#xf1;" horiz-adv-x="595" d="M180 135q0 -72 11 -86q12 -16 42 -16q3 0 10 0.5t10 0.5q16 0 16 -19q0 -17 -16 -17q-3 0 -17.5 1t-38.5 2.5t-50 1.5q-25 0 -46.5 -1t-34 -2.5t-15.5 -1.5q-12 0 -12 18t13 18q2 0 9.5 -0.5t10.5 -0.5q32 0 39 18q11 24 11 82v129q0 70 -12 93q-10 19 -58 32q-8 2 -8 13 q0 10 8 14q51 22 91 51q10 7 18 7q11 0 13 -12q0 -4 0.5 -14.5t1 -24.5t0.5 -23q0 -10 9 -10q3 0 12 7q82 71 165 71q66 0 96 -42q29 -41 29 -149v-119q0 -94 8 -107q9 -16 40 -16q3 0 10.5 0.5t8.5 0.5q16 0 16 -19q0 -17 -15 -17q-2 0 -15.5 1t-37 2.5t-49.5 1.5 q-25 0 -45.5 -1t-32.5 -2.5t-15 -1.5q-14 0 -14 18t14 18q2 0 10.5 -0.5t10.5 -0.5q31 0 37 19q10 24 10 142q0 133 -17 170q-23 48 -91 48q-33 0 -68 -18.5t-53 -40.5q-19 -24 -19 -91v-127zM316 626q39 -20 60 -20t33 39q3 13 15 13q15 0 15 -14q0 -3 -3 -15 q-11 -42 -27.5 -61t-44.5 -19q-26 0 -66 22q-41 23 -60 23q-16 0 -25.5 -9t-18.5 -32q-3 -10 -15 -10q-15 0 -15 13q0 7 4 19q15 46 34 62t43 16q19 0 71 -27z" />
<glyph unicode="&#xf2;" horiz-adv-x="552" d="M507 237q0 -109 -63.5 -180t-172.5 -71q-104 0 -164.5 67t-60.5 165q0 114 67.5 180t168.5 66q104 0 164.5 -63t60.5 -164zM432 224q0 95 -43.5 150.5t-114.5 55.5q-72 0 -114 -52t-42 -144q0 -97 44.5 -155t115.5 -58q72 0 113 53.5t41 149.5zM192 645q-17 21 -17 35 t10 22.5t25 8.5q23 0 38 -29q27 -51 79 -128q7 -11 7 -17q0 -13 -16 -13q-8 0 -21 13q-73 72 -105 108z" />
<glyph unicode="&#xf3;" horiz-adv-x="552" d="M507 237q0 -109 -63.5 -180t-172.5 -71q-104 0 -164.5 67t-60.5 165q0 114 67.5 180t168.5 66q104 0 164.5 -63t60.5 -164zM432 224q0 95 -43.5 150.5t-114.5 55.5q-72 0 -114 -52t-42 -144q0 -97 44.5 -155t115.5 -58q72 0 113 53.5t41 149.5zM366 645 q-32 -36 -105 -108q-13 -13 -21 -13q-16 0 -16 13q0 7 7 17q62 97 79 128q15 29 37 29q36 0 36 -29q0 -16 -17 -37z" />
<glyph unicode="&#xf4;" horiz-adv-x="552" d="M507 237q0 -109 -63.5 -180t-172.5 -71q-104 0 -164.5 67t-60.5 165q0 114 67.5 180t168.5 66q104 0 164.5 -63t60.5 -164zM432 224q0 95 -43.5 150.5t-114.5 55.5q-72 0 -114 -52t-42 -144q0 -97 44.5 -155t115.5 -58q72 0 113 53.5t41 149.5zM176 524q-5 0 -10.5 4.5 t-5.5 8.5q0 7 4 12q57 85 94 150q9 16 23 16t21 -13q19 -32 55 -90t38 -61q5 -8 5 -12q0 -6 -5.5 -10.5t-12.5 -4.5q-8 0 -16 8q-29 31 -76 88q-6 7 -11 7q-4 0 -10 -8q-50 -59 -80 -88q-7 -7 -13 -7z" />
<glyph unicode="&#xf5;" horiz-adv-x="552" d="M507 237q0 -109 -63.5 -180t-172.5 -71q-104 0 -164.5 67t-60.5 165q0 114 67.5 180t168.5 66q104 0 164.5 -63t60.5 -164zM432 224q0 95 -43.5 150.5t-114.5 55.5q-72 0 -114 -52t-42 -144q0 -97 44.5 -155t115.5 -58q72 0 113 53.5t41 149.5zM290 626q39 -20 60 -20 t33 39q3 13 15 13q15 0 15 -14q0 -3 -3 -15q-11 -42 -27.5 -61t-44.5 -19q-26 0 -66 22q-41 23 -60 23q-16 0 -25.5 -9t-18.5 -32q-3 -10 -15 -10q-15 0 -15 13q0 7 4 19q15 46 34 62t43 16q19 0 71 -27z" />
<glyph unicode="&#xf6;" horiz-adv-x="552" d="M507 237q0 -109 -63.5 -180t-172.5 -71q-104 0 -164.5 67t-60.5 165q0 114 67.5 180t168.5 66q104 0 164.5 -63t60.5 -164zM432 224q0 95 -43.5 150.5t-114.5 55.5q-72 0 -114 -52t-42 -144q0 -97 44.5 -155t115.5 -58q72 0 113 53.5t41 149.5zM245 606q0 -19 -12.5 -31 t-30.5 -12t-30.5 12t-12.5 31t13 31.5t31 12.5t30 -12t12 -32zM395 606q0 -19 -12.5 -31t-30.5 -12q-17 0 -30.5 12t-13.5 31t13.5 31.5t31.5 12.5t30 -12t12 -32z" />
<glyph unicode="&#xf7;" horiz-adv-x="642" d="M366 415q0 -20 -13 -32.5t-33 -12.5q-18 0 -31 13t-13 32t13 32.5t32 13.5q20 0 32.5 -13t12.5 -33zM559 283v-32q0 -13 -14 -13h-449q-12 0 -12 13v32q0 13 12 13h449q14 0 14 -13zM366 120q0 -21 -13 -34t-33 -13q-18 0 -31 13t-13 34q0 18 13 31.5t32 13.5t32 -12.5 t13 -32.5z" />
<glyph unicode="&#xf8;" horiz-adv-x="552" d="M125 18l-33 -41q-6 -8 -15 -8q-6 0 -13 6t-7 13q0 8 5 13l36 43q3 4 3 10t-3 10q-52 63 -52 154q0 114 67.5 180t168.5 66q69 0 121 -30q5 -3 9 -3q6 0 11 6l37 45q7 8 15 8q6 0 13 -5.5t8 -12.5q0 -6 -7 -16l-36 -44q-3 -4 -3 -9q0 -6 4 -10q53 -62 53 -156 q0 -109 -63.5 -180t-172.5 -71q-72 0 -126 35q-6 2 -9 2q-6 0 -11 -5zM432 224q0 64 -22 113q-3 7 -9 7q-5 0 -9 -6l-215 -258q-3 -4 -3 -9q0 -6 4 -10q42 -40 100 -40q72 0 113 53.5t41 149.5zM118 234q0 -68 21 -116q3 -7 8 -7t10 6l214 258q3 5 3 9q0 6 -4 10 q-41 36 -96 36q-72 0 -114 -52t-42 -144z" />
<glyph unicode="&#xf9;" horiz-adv-x="591" d="M476 141q0 -60 17 -79q10 -11 28 -11q5 0 17 3t17 3q13 0 13 -17q0 -13 -9 -16q-3 -1 -24 -7t-36 -11t-28.5 -11.5t-20.5 -10t-11 -3.5q-11 0 -14 12q0 2 -8 47q-1 9 -7 9q-4 0 -21 -14q-65 -49 -144 -49q-68 0 -106 47q-30 46 -30 161q0 12 0.5 65t0.5 69q0 33 -7 51 q-10 24 -60 28q-12 0 -12 16q0 15 12 17q67 10 105 24q14 6 20 6q5 0 9.5 -4.5t4.5 -10.5q0 -1 -3 -26.5t-6.5 -69.5t-3.5 -92q0 -135 16 -173q22 -53 99 -53q37 0 69 14t48 32q16 19 16 91v112q0 74 -9 92q-10 21 -57 25q-13 0 -13 16q0 15 12 17q51 6 92 21q3 1 9 3.5 t10 4t7 1.5q15 0 15 -14l-1 -19q-2 -19 -4 -55t-2 -79v-162zM200 645q-17 21 -17 35t10 22.5t25 8.5q23 0 38 -29q27 -51 79 -128q7 -11 7 -17q0 -13 -16 -13q-8 0 -21 13q-73 72 -105 108z" />
<glyph unicode="&#xfa;" horiz-adv-x="591" d="M476 141q0 -60 17 -79q10 -11 28 -11q5 0 17 3t17 3q13 0 13 -17q0 -13 -9 -16q-3 -1 -24 -7t-36 -11t-28.5 -11.5t-20.5 -10t-11 -3.5q-11 0 -14 12q0 2 -8 47q-1 9 -7 9q-4 0 -21 -14q-65 -49 -144 -49q-68 0 -106 47q-30 46 -30 161q0 12 0.5 65t0.5 69q0 33 -7 51 q-10 24 -60 28q-12 0 -12 16q0 15 12 17q67 10 105 24q14 6 20 6q5 0 9.5 -4.5t4.5 -10.5q0 -1 -3 -26.5t-6.5 -69.5t-3.5 -92q0 -135 16 -173q22 -53 99 -53q37 0 69 14t48 32q16 19 16 91v112q0 74 -9 92q-10 21 -57 25q-13 0 -13 16q0 15 12 17q51 6 92 21q3 1 9 3.5 t10 4t7 1.5q15 0 15 -14l-1 -19q-2 -19 -4 -55t-2 -79v-162zM389 645q-32 -36 -105 -108q-13 -13 -21 -13q-16 0 -16 13q0 7 7 17q62 97 79 128q15 29 37 29q36 0 36 -29q0 -16 -17 -37z" />
<glyph unicode="&#xfb;" horiz-adv-x="591" d="M476 141q0 -60 17 -79q10 -11 28 -11q5 0 17 3t17 3q13 0 13 -17q0 -13 -9 -16q-3 -1 -24 -7t-36 -11t-28.5 -11.5t-20.5 -10t-11 -3.5q-11 0 -14 12q0 2 -8 47q-1 9 -7 9q-4 0 -21 -14q-65 -49 -144 -49q-68 0 -106 47q-30 46 -30 161q0 12 0.5 65t0.5 69q0 33 -7 51 q-10 24 -60 28q-12 0 -12 16q0 15 12 17q67 10 105 24q14 6 20 6q5 0 9.5 -4.5t4.5 -10.5q0 -1 -3 -26.5t-6.5 -69.5t-3.5 -92q0 -135 16 -173q22 -53 99 -53q37 0 69 14t48 32q16 19 16 91v112q0 74 -9 92q-10 21 -57 25q-13 0 -13 16q0 15 12 17q51 6 92 21q3 1 9 3.5 t10 4t7 1.5q15 0 15 -14l-1 -19q-2 -19 -4 -55t-2 -79v-162zM199 524q-5 0 -10.5 4.5t-5.5 8.5q0 7 4 12q57 85 94 150q9 16 23 16t21 -13q19 -32 55 -90t38 -61q5 -8 5 -12q0 -6 -5.5 -10.5t-12.5 -4.5q-8 0 -16 8q-29 31 -76 88q-6 7 -11 7q-4 0 -10 -8q-50 -59 -80 -88 q-7 -7 -13 -7z" />
<glyph unicode="&#xfc;" horiz-adv-x="591" d="M476 141q0 -60 17 -79q10 -11 28 -11q5 0 17 3t17 3q13 0 13 -17q0 -13 -9 -16q-3 -1 -24 -7t-36 -11t-28.5 -11.5t-20.5 -10t-11 -3.5q-11 0 -14 12q0 2 -8 47q-1 9 -7 9q-4 0 -21 -14q-65 -49 -144 -49q-68 0 -106 47q-30 46 -30 161q0 12 0.5 65t0.5 69q0 33 -7 51 q-10 24 -60 28q-12 0 -12 16q0 15 12 17q67 10 105 24q14 6 20 6q5 0 9.5 -4.5t4.5 -10.5q0 -1 -3 -26.5t-6.5 -69.5t-3.5 -92q0 -135 16 -173q22 -53 99 -53q37 0 69 14t48 32q16 19 16 91v112q0 74 -9 92q-10 21 -57 25q-13 0 -13 16q0 15 12 17q51 6 92 21q3 1 9 3.5 t10 4t7 1.5q15 0 15 -14l-1 -19q-2 -19 -4 -55t-2 -79v-162zM268 606q0 -19 -12.5 -31t-30.5 -12t-30.5 12t-12.5 31t13 31.5t31 12.5t30 -12t12 -32zM418 606q0 -19 -12.5 -31t-30.5 -12q-17 0 -30.5 12t-13.5 31t13.5 31.5t31.5 12.5t30 -12t12 -32z" />
<glyph unicode="&#xfd;" horiz-adv-x="538" d="M304 17q-93 -218 -130 -265q-42 -51 -95 -51t-53 38q0 15 9.5 24t23.5 9q9 0 17.5 -3.5t16.5 -3.5q32 0 59 34q24 32 78 152q18 41 18 50q0 11 -7 28q-16 36 -147 323q-20 42 -29 52q-12 14 -30 14q-2 0 -7.5 -0.5t-7.5 -0.5q-12 0 -12 17q0 18 15 18q2 0 15.5 -1 t36.5 -2.5t49 -1.5q25 0 46 1.5t33.5 2.5t15.5 1q15 0 15 -17q0 -18 -15 -18q-1 0 -10.5 0.5t-12.5 0.5q-22 0 -31 -6t-9 -22q0 -12 24 -71q38 -92 90 -204q10 -19 14 -19q8 0 13 13q11 28 84 211q21 57 21 74q0 13 -9 18.5t-33 5.5q-2 0 -11 -0.5t-10 -0.5q-13 0 -13 19 q0 16 14 16q2 0 13.5 -1t32 -2.5t45.5 -1.5t43 1.5t27.5 2.5t12.5 1q16 0 16 -18q0 -17 -11 -17q-1 0 -9 0.5t-10 0.5q-17 0 -31 -15q-13 -13 -28 -51q-75 -188 -137 -335zM377 645q-32 -36 -105 -108q-13 -13 -21 -13q-16 0 -16 13q0 7 7 17q62 97 79 128q15 29 37 29 q36 0 36 -29q0 -16 -17 -37z" />
<glyph unicode="&#xfe;" horiz-adv-x="583" d="M174 -151q0 -62 9 -80q10 -23 58 -23q3 0 13.5 0.5t11.5 0.5q16 0 16 -19q0 -17 -18 -17q-3 0 -21.5 1.5t-46.5 2.5t-54 1q-30 0 -63 -2l-33 -3q-14 0 -14 18t13 18q2 0 9.5 -0.5t10.5 -0.5q28 0 40 19q10 17 10 83v685q0 130 -9 152q-8 18 -29 28q-11 5 -24 6 q-11 2 -11 14q0 11 10 15q54 21 93 47q13 9 19 9q12 0 12 -15q0 -4 -1 -46t-1.5 -130.5t-0.5 -206.5q0 -15 7 -15q4 0 9 5q32 31 75.5 50t83.5 19q83 0 135.5 -60.5t52.5 -153.5q0 -113 -66.5 -186t-181.5 -73q-47 0 -88 13q-8 3 -16 3q-10 0 -10 -13v-146zM173 166 q0 -70 16 -92q12 -17 44.5 -29t67.5 -12q69 0 120 46.5t51 133.5q0 92 -41.5 145.5t-116.5 53.5q-43 0 -83 -24.5t-49 -51.5q-9 -29 -9 -62v-108z" />
<glyph unicode="&#xff;" horiz-adv-x="538" d="M304 17q-93 -218 -130 -265q-42 -51 -95 -51t-53 38q0 15 9.5 24t23.5 9q9 0 17.5 -3.5t16.5 -3.5q32 0 59 34q24 32 78 152q18 41 18 50q0 11 -7 28q-16 36 -147 323q-20 42 -29 52q-12 14 -30 14q-2 0 -7.5 -0.5t-7.5 -0.5q-12 0 -12 17q0 18 15 18q2 0 15.5 -1 t36.5 -2.5t49 -1.5q25 0 46 1.5t33.5 2.5t15.5 1q15 0 15 -17q0 -18 -15 -18q-1 0 -10.5 0.5t-12.5 0.5q-22 0 -31 -6t-9 -22q0 -12 24 -71q38 -92 90 -204q10 -19 14 -19q8 0 13 13q11 28 84 211q21 57 21 74q0 13 -9 18.5t-33 5.5q-2 0 -11 -0.5t-10 -0.5q-13 0 -13 19 q0 16 14 16q2 0 13.5 -1t32 -2.5t45.5 -1.5t43 1.5t27.5 2.5t12.5 1q16 0 16 -18q0 -17 -11 -17q-1 0 -9 0.5t-10 0.5q-17 0 -31 -15q-13 -13 -28 -51q-75 -188 -137 -335zM241 606q0 -19 -12.5 -31t-30.5 -12t-30.5 12t-12.5 31t13 31.5t31 12.5t30 -12t12 -32zM391 606 q0 -19 -12.5 -31t-30.5 -12q-17 0 -30.5 12t-13.5 31t13.5 31.5t31.5 12.5t30 -12t12 -32z" />
<glyph unicode="&#x152;" horiz-adv-x="987" d="M538 131v402q0 29 -6 49q-7 21 -30 30q-36 14 -113 14q-125 0 -194 -78.5t-69 -219.5q0 -135 71.5 -214.5t182.5 -79.5q73 0 109 12q33 10 44 35q5 11 5 50zM605 121q0 -40 8 -51q12 -17 45 -22.5t98 -5.5q85 0 108 17q28 20 53 86q6 13 18 13q19 0 19 -13 q0 -9 -10.5 -53.5t-17.5 -67.5q-9 -26 -31 -26q-44 0 -127.5 2t-151.5 2q-27 0 -45 -0.5t-26.5 -1t-11.5 -0.5q-13 0 -75 -3.5t-81 -3.5q-149 0 -238 89t-89 238q0 155 92.5 251.5t249.5 96.5q48 0 106 -6q44 -4 113 -4q83 0 165 2t106 2q17 0 17 -20q0 -17 1 -45.5 t1.5 -47.5t0.5 -22q0 -15 -17 -15t-19 14q-3 53 -24 74q-12 13 -35.5 16.5t-71.5 3.5q-37 0 -112 -3q-18 0 -18 -26v-204q0 -15 9 -19t31 -4q73 0 98 9q30 11 35 70q2 15 19 15t17 -15l-3 -39q-3 -38 -3 -64q0 -20 1.5 -52t1.5 -40q0 -14 -17 -14q-16 0 -18 14q-4 53 -29 69 q-15 9 -108 9q-20 0 -27 -5t-7 -19v-181z" />
<glyph unicode="&#x153;" horiz-adv-x="860" d="M493 229q0 -89 47 -142t119 -53q46 0 78 18.5t44 45.5q5 12 7 24q5 21 20 21q19 0 19 -21q0 -16 -16 -48q-20 -35 -63 -61.5t-111 -26.5q-112 0 -167 85q-9 14 -12 14q-5 0 -13 -13q-58 -86 -178 -86q-103 0 -162 65.5t-59 163.5q0 115 66 182t166 67q124 0 176 -93 q5 -10 9 -10q6 0 10 8q27 45 71.5 70t100.5 25q88 0 132 -47t44 -117q0 -29 -32 -32q-53 -5 -280 -5q-16 0 -16 -34zM428 221q0 95 -43.5 152t-114.5 57t-111.5 -53.5t-40.5 -145.5q0 -98 42.5 -154t113.5 -56q73 0 113.5 52t40.5 148zM504 307q0 -10 13 -10q165 0 203 5 q27 5 27 28q0 47 -28.5 73t-84.5 26q-38 0 -70 -22t-50 -62q-9 -19 -10 -38z" />
<glyph unicode="&#x178;" horiz-adv-x="660" d="M369 265v-122q0 -75 14 -92t49 -17q2 0 9 0.5t8 0.5q15 0 15 -19q0 -18 -15 -18q-3 0 -18.5 1.5t-40.5 3t-52 1.5t-55 -1.5t-45.5 -3t-19.5 -1.5q-13 0 -13 20q0 17 13 17q1 0 7.5 -0.5t9.5 -0.5q45 0 55 20q10 18 10 90v110q0 19 -2 25q-4 10 -11 23l-117 189 q-47 77 -81 119q-12 16 -44 16q-3 0 -9 -0.5t-8 -0.5q-13 0 -13 19t16 19q4 0 19 -1.5t40.5 -3t53.5 -1.5q20 0 67.5 3t50.5 3q15 0 15 -19q0 -18 -16 -18q-4 0 -17.5 0.5t-18.5 0.5q-35 0 -35 -21q0 -3 0.5 -7t2 -8.5t3 -8t5 -10t6 -11t8 -13.5t9 -15l10.5 -18t12 -20 l75 -123q16 -27 23 -27q8 0 24 25l77 126q49 79 49 109q0 22 -46 22q-10 0 -18.5 -0.5t-10.5 -0.5q-15 0 -15 18q0 19 15 19l36 -3q36 -3 75 -3t69 3t31 3q16 0 16 -19q0 -18 -13 -18q-2 0 -8 0.5t-9 0.5q-22 0 -42 -18q-15 -14 -77 -112l-119 -192q-6 -8 -8 -19 q-1 -5 -1 -21zM302 748q0 -19 -12 -31.5t-31 -12.5q-17 0 -29.5 12t-12.5 32q0 19 12.5 31.5t30.5 12.5t30 -12.5t12 -31.5zM461 748q0 -19 -12 -31.5t-31 -12.5q-17 0 -30 12.5t-13 31.5t13 31.5t31 12.5t30 -12.5t12 -31.5z" />
<glyph unicode="&#x2c6;" horiz-adv-x="290" d="M41 524q-5 0 -10.5 4.5t-5.5 8.5q0 7 4 12q57 85 94 150q9 16 23 16t21 -13q19 -32 55 -90t38 -61q5 -8 5 -12q0 -6 -5.5 -10.5t-12.5 -4.5q-8 0 -16 8q-29 31 -76 88q-6 7 -11 7q-4 0 -10 -8q-50 -59 -80 -88q-7 -7 -13 -7z" />
<glyph unicode="&#x2dc;" horiz-adv-x="290" d="M160 626q39 -20 60 -20t33 39q3 13 15 13q15 0 15 -14q0 -3 -3 -15q-11 -42 -27.5 -61t-44.5 -19q-26 0 -66 22q-41 23 -60 23q-16 0 -25.5 -9t-18.5 -32q-3 -10 -15 -10q-15 0 -15 13q0 7 4 19q15 46 34 62t43 16q19 0 71 -27z" />
<glyph unicode="&#x2000;" horiz-adv-x="436" />
<glyph unicode="&#x2001;" horiz-adv-x="873" />
<glyph unicode="&#x2002;" horiz-adv-x="436" />
<glyph unicode="&#x2003;" horiz-adv-x="873" />
<glyph unicode="&#x2004;" horiz-adv-x="291" />
<glyph unicode="&#x2005;" horiz-adv-x="218" />
<glyph unicode="&#x2006;" horiz-adv-x="145" />
<glyph unicode="&#x2007;" horiz-adv-x="145" />
<glyph unicode="&#x2008;" horiz-adv-x="109" />
<glyph unicode="&#x2009;" horiz-adv-x="174" />
<glyph unicode="&#x200a;" horiz-adv-x="48" />
<glyph unicode="&#x2010;" horiz-adv-x="277" d="M230 211h-184q-12 0 -14.5 5.5t-2.5 25.5q0 18 3.5 24.5t13.5 6.5h186q11 0 13.5 -6t2.5 -24q0 -20 -3 -26t-15 -6z" />
<glyph unicode="&#x2011;" horiz-adv-x="277" d="M230 211h-184q-12 0 -14.5 5.5t-2.5 25.5q0 18 3.5 24.5t13.5 6.5h186q11 0 13.5 -6t2.5 -24q0 -20 -3 -26t-15 -6z" />
<glyph unicode="&#x2012;" horiz-adv-x="277" d="M230 211h-184q-12 0 -14.5 5.5t-2.5 25.5q0 18 3.5 24.5t13.5 6.5h186q11 0 13.5 -6t2.5 -24q0 -20 -3 -26t-15 -6z" />
<glyph unicode="&#x2013;" horiz-adv-x="433" d="M386 213h-340q-12 0 -14.5 5t-2.5 24q0 18 3.5 23.5t13.5 5.5h342q11 0 13.5 -5t2.5 -23q0 -20 -3 -25t-15 -5z" />
<glyph unicode="&#x2014;" horiz-adv-x="637" d="M590 213h-544q-12 0 -14.5 5t-2.5 24q0 18 3.5 23.5t13.5 5.5h546q11 0 13.5 -5t2.5 -23q0 -20 -3 -25t-15 -5z" />
<glyph unicode="&#x2018;" horiz-adv-x="208" d="M47 571q0 95 81 156q24 17 34 17q15 0 15 -15q0 -9 -12 -17q-61 -37 -61 -99q0 -26 26 -39q28 -15 28 -42q0 -18 -13 -31.5t-37 -13.5q-29 0 -45 22t-16 62z" />
<glyph unicode="&#x2019;" horiz-adv-x="208" d="M161 657q0 -96 -81 -157q-24 -17 -34 -17q-6 0 -10.5 4.5t-4.5 10.5q0 10 13 17q60 37 60 99q0 27 -26 40q-28 15 -28 41q0 19 13 32t37 13q29 0 45 -22t16 -61z" />
<glyph unicode="&#x201a;" horiz-adv-x="208" d="M161 17q0 -95 -81 -157q-24 -17 -34 -17q-6 0 -10.5 4.5t-4.5 10.5q0 8 13 17q60 38 60 100q0 25 -26 38q-28 15 -28 42q0 19 13 32t37 13q29 0 45 -22t16 -61z" />
<glyph unicode="&#x201c;" horiz-adv-x="373" d="M47 571q0 95 81 156q24 17 34 17q15 0 15 -15q0 -9 -12 -17q-61 -37 -61 -99q0 -26 26 -39q28 -15 28 -42q0 -18 -13 -31.5t-37 -13.5q-29 0 -45 22t-16 62zM212 571q0 95 82 156q22 17 33 17q15 0 15 -15q0 -9 -12 -17q-61 -37 -61 -99q0 -26 26 -39q28 -15 28 -42 q0 -18 -13 -31.5t-36 -13.5q-29 0 -45.5 22.5t-16.5 61.5z" />
<glyph unicode="&#x201d;" horiz-adv-x="373" d="M327 657q0 -95 -82 -157q-22 -17 -34 -17q-14 0 -14 15q0 10 12 17q60 36 60 99q0 28 -25 40q-28 15 -28 41q0 19 12.5 32t36.5 13q29 0 45.5 -22t16.5 -61zM161 657q0 -96 -81 -157q-24 -17 -34 -17q-6 0 -10.5 4.5t-4.5 10.5q0 10 13 17q60 37 60 99q0 27 -26 40 q-28 15 -28 41q0 19 13 32t37 13q29 0 45 -22t16 -61z" />
<glyph unicode="&#x201e;" horiz-adv-x="373" d="M327 17q0 -94 -82 -157q-22 -17 -34 -17q-14 0 -14 15q0 10 12 17q60 32 60 100q0 25 -25 38q-28 15 -28 42q0 19 12.5 32t36.5 13q29 0 45.5 -22t16.5 -61zM161 17q0 -95 -81 -157q-24 -17 -34 -17q-6 0 -10.5 4.5t-4.5 10.5q0 8 13 17q60 38 60 100q0 25 -26 38 q-28 15 -28 42q0 19 13 32t37 13q29 0 45 -22t16 -61z" />
<glyph unicode="&#x2022;" horiz-adv-x="352" d="M294 269q0 -54 -33.5 -88t-85.5 -34t-84.5 33.5t-32.5 88.5q0 54 33.5 87.5t83.5 33.5q52 0 85.5 -33.5t33.5 -87.5z" />
<glyph unicode="&#x2026;" horiz-adv-x="717" d="M172 46q0 -23 -14.5 -39t-36.5 -16q-24 0 -38.5 14t-14.5 40q0 24 15 38.5t39 14.5q23 0 36.5 -14t13.5 -38zM411 46q0 -24 -14.5 -39.5t-37.5 -15.5q-24 0 -38 14t-14 40q0 24 15 38.5t38 14.5t37 -14t14 -38zM649 46q0 -23 -14.5 -39t-36.5 -16q-24 0 -38.5 14 t-14.5 40q0 24 15 38.5t39 14.5q23 0 36.5 -14t13.5 -38z" />
<glyph unicode="&#x202f;" horiz-adv-x="174" />
<glyph unicode="&#x2039;" horiz-adv-x="270" d="M237 379q-9 -10 -121 -124q-5 -5 -5 -8t4 -7q11 -11 38.5 -37.5t46 -46t35.5 -38.5q12 -15 12 -21q0 -5 -5 -9.5t-10 -4.5t-25 17q-113 90 -166 129q-13 9 -13 18q0 10 15 21q20 15 56 41.5t60.5 45.5t50.5 41q14 13 20 13q5 0 10.5 -4.5t5.5 -9.5q0 -6 -9 -16z" />
<glyph unicode="&#x203a;" horiz-adv-x="271" d="M34 114q20 21 61 62l61 61q5 5 5 8q0 5 -5 10q-78 72 -120 120q-11 14 -11 21q0 4 4.5 8.5t10.5 4.5q7 0 26 -16q79 -67 165 -130q13 -9 13 -18q0 -10 -15 -21q-75 -53 -167 -128q-17 -13 -21 -13q-5 0 -10.5 5t-5.5 9q0 8 9 17z" />
<glyph unicode="&#x205f;" horiz-adv-x="218" />
<glyph unicode="&#x20ac;" horiz-adv-x="684" d="M431 34q118 0 152 87q3 10 6 41q2 25 21 25q21 0 21 -24t-10 -51q-18 -51 -66 -88t-136 -37q-113 0 -176 66t-76 166q-3 18 -14 18h-52q-19 0 -19 19q0 21 19 21h48q12 0 12 14q0 11 0.5 24.5t1 22t0.5 10.5q0 10 -12 10h-50q-19 0 -19 18q0 22 19 22h59q11 0 13 12 q24 103 91.5 164t173.5 61q99 0 140.5 -35t41.5 -80q0 -41 -40 -41q-39 0 -39 42q0 33 -22 55q-26 24 -83 24q-69 0 -119.5 -48t-67.5 -121q0 -2 -2 -11.5t-2 -12.5q0 -9 11 -9h239q18 0 18 -21q0 -13 -4.5 -16t-13.5 -3h-247q-10 0 -12 -12q-1 -13 -1 -56q0 -13 12 -13h248 q18 0 18 -20q0 -9 -2.5 -13.5t-6 -5.5t-9.5 -1h-242q-12 0 -12 -16q0 -15 4 -29q36 -158 186 -158z" />
<glyph unicode="&#x2122;" horiz-adv-x="872" d="M215 421q0 -40 9 -49q7 -8 27 -8q1 0 8.5 0.5t9.5 0.5q12 0 12 -14q0 -13 -10 -13q-1 0 -30.5 2t-49.5 2q-15 0 -32 -1t-29 -2l-12 -1q-13 0 -13 13q0 14 12 14q1 0 9 -0.5t10 -0.5q19 0 25 12q7 16 7 45v189q0 16 -3 18q-6 5 -46 5q-28 0 -40 -11q-13 -12 -15 -39 q-2 -10 -12 -10q-15 0 -15 9q0 1 2.5 29t2.5 40t10 12q2 0 5.5 -0.5t11.5 -0.5t21 -0.5t40 -1t63 -0.5q45 0 78 0.5t48.5 1t18.5 0.5q10 0 10 -11q0 -7 0.5 -23.5t1.5 -30.5v-14q0 -11 -14 -11q-13 0 -15 10q-3 31 -11 40q-9 11 -43 11q-41 0 -46 -3q-6 -2 -6 -19v-190z M471 417q0 -37 6 -44q7 -9 23 -9h6q6 1 10 1q10 0 10 -14q0 -13 -11 -13q-1 0 -11 0.5t-25 1t-29 0.5q-11 0 -25 -0.5t-24 -1t-12 -0.5q-11 0 -11 13q0 14 13 14l5 -1h7q17 0 24 10q7 9 10 42q11 134 11 179q0 25 -7 33q-8 8 -21 8q-2 0 -9.5 -0.5t-8.5 -0.5q-11 0 -11 13 q0 15 13 15q1 0 22.5 -1.5t30.5 -1.5q10 0 32 1l22 1q8 0 11 -13q4 -12 8 -23.5t8.5 -24.5t7.5 -21q24 -66 57 -148q2 -4 4 -4q3 0 6 7q45 98 60 134q14 33 27 71q8 22 16 22l23 -1q23 -1 32 -1q10 0 29 1t21 1q10 0 10 -13q0 -14 -10 -14q-1 0 -9 0.5t-10 0.5q-19 0 -24 -8 q-4 -5 -4 -37q0 -25 5 -174q1 -29 8 -43q5 -10 24 -10q1 0 8.5 0.5t8.5 0.5q10 0 10 -13q0 -14 -11 -14q-1 0 -13 1t-29 1.5t-31 0.5t-30.5 -0.5t-27.5 -1.5t-12 -1q-12 0 -12 13q0 14 11 14q1 0 8 -0.5t8 -0.5q18 0 25 10t7 43q0 51 -4 184q0 5 -3 5q-4 0 -6 -5 q-48 -111 -88 -201q-10 -22 -20 -48q-5 -13 -16 -13q-10 0 -14 14q-8 27 -15 44q-42 111 -76 199q-2 7 -6 7q-5 0 -5 -8q-7 -156 -7 -178z" />
<glyph unicode="&#x25fc;" horiz-adv-x="450" d="M0 450h450v-450h-450v450z" />
</font>
</defs>
</svg>
